<svg width="133" height="39" viewBox="0 0 133 39" fill="none" xmlns="http://www.w3.org/2000/svg">
<path d="M89.2004 38.3918C87.203 38.3767 85.2867 37.5979 83.842 36.2141L85.885 32.4642C85.885 32.4642 87.1712 33.9261 88.9168 33.9294C90.3718 33.9317 91.662 33.0582 92.4129 31.2244L93.1224 29.5992L86.0831 13.6156C85.8349 12.9897 85.5442 12.8641 84.9621 12.8629H84.3387L84.346 8.35892L87.8376 8.36483C89.334 8.36719 90.0812 8.91091 90.6191 10.3716L94.7581 21.0131C95.0718 21.9402 95.32 22.8882 95.501 23.8503H95.5845C95.7678 22.8915 96.0053 21.9441 96.2959 21.0124L99.9301 10.3844C100.431 8.92555 101.305 8.3849 102.76 8.38726L106.512 8.34145L96.8578 32.8582C95.3574 36.686 92.3689 38.3916 89.2157 38.3918H89.2004ZM115.858 30.18C109.415 30.1689 104.269 25.5728 104.28 19.0254C104.291 12.5201 109.453 7.89972 115.896 7.91058C122.38 7.92168 127.526 12.5595 127.516 19.0649C127.505 25.6047 122.354 30.1797 115.881 30.1802L115.858 30.18ZM109.6 19.0342C109.594 22.9963 112.457 25.6701 115.866 25.676C119.315 25.6814 122.188 23.0176 122.196 19.0557C122.202 15.1365 119.339 12.42 115.889 12.4143H115.878C112.473 12.4141 109.607 15.1183 109.6 19.0342ZM70.8 30.102C65.0639 30.0924 61.3723 25.5405 61.3833 18.9511C61.3949 12.1952 65.4338 7.82346 71.0454 7.83291C75.6593 7.84093 77.1512 10.4299 77.1512 10.4299H77.2343C77.2343 10.4299 77.1938 9.88693 77.195 9.17864L77.2013 5.42474C77.2013 4.79933 76.87 4.50657 76.2883 4.50586L74.6258 4.50303L74.6335 0L79.6627 0.0084994C81.6159 0.0118047 82.488 0.888896 82.4847 2.84895L82.4484 24.2427C82.4353 24.3663 82.4498 24.4914 82.491 24.6087C82.5321 24.726 82.5989 24.8327 82.6864 24.9208C82.7739 25.0089 82.88 25.0763 82.9967 25.118C83.1135 25.1597 83.2381 25.1748 83.3614 25.162L84.9825 25.1646L84.975 29.6268L80.112 29.6185C78.1998 29.6152 77.4948 28.6966 77.4969 27.4465L77.4983 26.6539H77.4148C77.4148 26.6539 75.6671 30.102 70.8174 30.102H70.8ZM66.7453 18.9615C66.7382 23.0065 68.8537 25.6377 71.9712 25.6429C74.7147 25.6476 77.295 23.6503 77.303 18.9378C77.3084 15.6434 75.6087 12.3879 72.0766 12.3817H72.0677C69.1622 12.3813 66.7526 14.7535 66.7453 18.9615ZM49.1436 30.0664C42.7008 30.0555 37.5544 25.4595 37.566 18.9119C37.577 12.4065 42.7389 7.78592 49.1814 7.79702C55.6658 7.80835 60.812 12.4457 60.8012 18.9515C60.7901 25.4914 55.6404 30.0664 49.1673 30.0666L49.1436 30.0664ZM42.8865 18.9208C42.8797 22.8827 45.7432 25.5568 49.1518 25.5622C52.6018 25.5681 55.4745 22.904 55.4818 18.9421C55.4884 15.0229 52.6251 12.3064 49.1753 12.3005H49.164C45.7592 12.3005 42.8931 15.005 42.8865 18.9208ZM32.5177 29.5375C30.5225 29.5342 29.6927 28.6987 29.696 26.6971L29.7127 16.855C29.7167 14.4362 29.2626 12.6006 26.8101 12.5963C24.1915 12.5919 22.3172 14.7991 21.7308 17.467C21.4858 18.3487 21.3722 19.262 21.3936 20.1771L21.3778 29.5187L16.099 29.5097L16.1204 16.8314C16.1241 14.5378 15.7952 12.5772 13.2594 12.573C10.6003 12.5683 8.80814 14.7757 8.13867 17.4852C7.91661 18.357 7.80342 19.2532 7.80169 20.153L7.78569 29.4943L2.54825 29.4854L2.57507 13.6382C2.57507 13.0128 2.24398 12.7201 1.66204 12.7194L0 12.7175L0.00753014 8.21349L4.87082 8.22175C6.74136 8.22506 7.65415 9.10239 7.6518 10.6037L7.65062 11.2294C7.65062 11.6883 7.60756 12.1471 7.60756 12.1471H7.69062C8.69166 10.0635 11.2312 7.73209 14.5565 7.73823C17.7568 7.74366 19.833 9.24924 20.7425 12.1275H20.8255C21.9518 9.83593 24.6986 7.7557 28.0655 7.76137C32.4716 7.76869 35.0027 10.2753 34.9935 15.863L34.9794 24.1621C34.9662 24.2858 34.9807 24.4109 35.0219 24.5282C35.0631 24.6455 35.1299 24.7521 35.2174 24.8402C35.3049 24.9283 35.4109 24.9956 35.5277 25.0374C35.6445 25.0791 35.7691 25.0941 35.8924 25.0813L37.5135 25.0839L37.506 29.546L32.5177 29.5375Z" fill="#151F38"/>
<path d="M126.682 8.13986C128.023 9.47087 129.086 11.0806 129.806 12.8672C130.526 14.6538 130.887 16.5785 130.865 18.5195C130.865 18.746 130.858 18.9712 130.848 19.1956C132.009 17.927 132.746 16.2934 132.945 14.5432C133.145 12.7931 132.797 11.022 131.954 9.49936C131.112 7.9767 129.82 6.78568 128.277 6.10738C126.733 5.42908 125.022 5.3006 123.402 5.74146C124.601 6.36788 125.706 7.17592 126.682 8.13986Z" fill="#0EBD74"/>
</svg>
