<?xml version="1.0" encoding="utf-8"?>
<!-- Generator: Adobe Illustrator 24.1.0, SVG Export Plug-In . SVG Version: 6.00 Build 0)  -->
<svg version="1.1"
	 id="svg38" xmlns:cc="http://creativecommons.org/ns#" xmlns:dc="http://purl.org/dc/elements/1.1/" xmlns:rdf="http://www.w3.org/1999/02/22-rdf-syntax-ns#" xmlns:svg="http://www.w3.org/2000/svg"
	 xmlns="http://www.w3.org/2000/svg" xmlns:xlink="http://www.w3.org/1999/xlink" x="0px" y="0px" viewBox="0 0 210 30"
	 style="enable-background:new 0 0 210 30;" xml:space="preserve">
<style type="text/css">
	.st0{fill:#4C5D99;}
	.st1{fill:#F05AA2;}
	.st2{fill:#7985B2;}
	.st3{fill:#384470;}
</style>
<path id="path2" class="st0" d="M50.6,15c0,1.6-0.3,3-1,4.2c-0.6,1.2-1.6,2.1-2.9,2.8c-1.2,0.6-2.7,1-4.5,1h-5V7.1h5
	c1.8,0,3.3,0.3,4.5,1c1.3,0.6,2.2,1.5,2.9,2.7C50.3,12,50.6,13.4,50.6,15z M42.2,21.1c2.1,0,3.7-0.5,4.7-1.6
	c1.1-1.1,1.6-2.6,1.6-4.5c0-1.9-0.5-3.4-1.6-4.5c-1.1-1.1-2.7-1.6-4.7-1.6h-2.8v12.2H42.2z"/>
<path id="path4" class="st0" d="M64.7,7.1L59.5,17v6h-2.1v-6l-5.2-9.9h2.4l3.9,7.7l3.9-7.7H64.7z"/>
<path id="path6" class="st0" d="M79.1,23h-2l-8.2-12.5V23h-2V7.1h2L77,19.7V7.1h2V23z"/>
<path id="path8" class="st0" d="M91.6,19.3h-7L83.3,23h-2.2L87,7.4h2.3L95.2,23H93L91.6,19.3z M91.1,17.7l-2.9-8l-2.9,8H91.1z"/>
<path id="path10" class="st0" d="M113.1,7.4V23h-2V10.5l-5,12.4h-1.8l-5-12.4V23h-2V7.4h2.5l5.5,13.1l5.4-13.1H113.1z"/>
<path id="path12" class="st0" d="M118.5,7.1V23h-2V7.1H118.5z"/>
<path id="path14" class="st0" d="M128.8,6.9c1.9,0,3.5,0.5,4.8,1.4c1.3,0.9,2.1,2.2,2.6,3.9H134c-0.4-1.1-1.1-1.9-2-2.5
	c-0.9-0.6-2-0.9-3.3-0.9c-1,0-2,0.3-2.8,0.8c-0.8,0.5-1.5,1.2-1.9,2.2c-0.5,0.9-0.7,2-0.7,3.3c0,1.2,0.2,2.3,0.7,3.3
	c0.5,0.9,1.1,1.6,1.9,2.2c0.8,0.5,1.8,0.7,2.8,0.7c1.3,0,2.4-0.3,3.3-0.9c0.9-0.6,1.6-1.5,2-2.5h2.2c-0.5,1.6-1.4,3-2.6,3.9
	c-1.3,0.9-2.9,1.4-4.8,1.4c-1.5,0-2.8-0.3-3.9-1c-1.1-0.7-2-1.6-2.7-2.9c-0.6-1.2-0.9-2.6-0.9-4.2c0-1.6,0.3-3,0.9-4.2
	c0.6-1.2,1.5-2.2,2.7-2.9C126,7.3,127.3,6.9,128.8,6.9z"/>
<path id="path16" class="st0" d="M148.1,14.8c1,0.2,1.7,0.7,2.3,1.4c0.6,0.7,0.9,1.5,0.9,2.5c0,1.4-0.5,2.4-1.4,3.2
	c-0.9,0.8-2.2,1.1-3.9,1.1h-7.4V7.1h7.2c1.6,0,2.9,0.4,3.8,1.1c0.9,0.7,1.3,1.7,1.3,3c0,1-0.3,1.8-0.8,2.4
	C149.6,14.2,149,14.6,148.1,14.8z M142.4,13.6h2.5c1.3,0,2-0.6,2-1.7s-0.7-1.7-2-1.7h-2.5V13.6z M145.2,19.8c1.4,0,2.1-0.6,2.1-1.8
	c0-0.6-0.2-1-0.6-1.3c-0.4-0.3-0.9-0.5-1.6-0.5h-2.7v3.6H145.2z"/>
<path id="path18" class="st0" d="M163.2,20.1h-6l-1,2.9h-4.1L158,7.2h4.4l5.8,15.8h-4.1L163.2,20.1z M162.2,17.1l-2-5.8l-2,5.8
	H162.2z"/>
<path id="path20" class="st0" d="M183.9,23H180l-6.4-9.8V23h-3.8V7.1h3.8l6.4,9.9V7.1h3.8V23z"/>
<path id="path22" class="st0" d="M194,14.8l6.4,8.1h-4.7l-5.4-7.1V23h-3.8V7.1h3.8v7l5.4-7h4.6L194,14.8z"/>
<path id="path24" class="st1" d="M0.8,20.3c0.1,0.2,0.3,0.4,0.6,0.4c8.4-0.6,16.9-0.4,25.2,0.6c1,0.1,2.1-0.4,2.4-1.4
	c0.3-0.9-0.4-1.7-1.3-1.8c-9-0.3-17.9,0.3-26.7,1.7C0.9,19.9,0.7,20.1,0.8,20.3z"/>
<path id="path26" class="st2" d="M0.3,11.3c-0.1,0.2,0.1,0.4,0.4,0.4c9.1-0.6,18.2-0.4,27.2,0.7c0.9,0.1,1.7-0.7,1.4-1.5
	c-0.3-1-1.3-1.7-2.4-1.8c-8.8-0.2-17.5,0.3-26,1.7C0.6,10.9,0.4,11.1,0.3,11.3z"/>
<path id="path28" class="st3" d="M4.5,15.2c-0.2,0-0.3,0.2-0.3,0.4c0,0.2,0.2,0.4,0.4,0.4c9.2-0.7,14.7-0.2,23.4,1
	c1,0.1,1.9-0.5,1.9-1.5c0-1-0.8-1.8-1.7-1.8C19.2,13.3,13.6,13.7,4.5,15.2z"/>
<path id="path30" class="st3" d="M21.8,2.7c0.6,0,0.8-0.8,0.3-1c-0.4-0.2-0.8-0.4-1.1-0.5c-4.2-1.7-8.7-1.4-12.4,0.4
	c-0.5,0.3-0.3,1,0.3,1C13.1,2.4,17.4,2.5,21.8,2.7z"/>
<path id="path32" class="st1" d="M7.4,5.8C6.9,5.9,6.5,6.1,6.2,6.5C6.1,6.7,6.3,7,6.6,7c7.6-0.4,12.3-0.1,19.5,0.7
	c0.8,0.1,1.4-0.8,0.9-1.5c-0.8-1-2-1.6-3.3-1.6C17.5,4.6,13.8,4.9,7.4,5.8z"/>
<path id="path34" class="st2" d="M9.5,27.7c-0.7,0.1-0.8,1-0.2,1.2c4.2,1.7,8.8,1.3,12.6-0.7c0.6-0.3,0.3-1.2-0.4-1.2
	C17.6,27.1,13.5,27.3,9.5,27.7z"/>
<path id="path36" class="st3" d="M26.7,24.2c0.5-0.7,0-1.7-0.8-1.7c-7.2-0.2-12.7,0.1-19.9,1.2c-0.3,0-0.4,0.4-0.2,0.6
	c0.2,0.3,0.6,0.4,1,0.4c6.3-0.3,10.8,0.1,16.8,0.7C24.7,25.6,25.9,25.2,26.7,24.2z"/>
</svg>
