<svg width="691" height="270" viewBox="0 0 691 270" fill="none" xmlns="http://www.w3.org/2000/svg">
<g clip-path="url(#clip0)">
<g clip-path="url(#clip1)">
<path d="M15.3363 5.04432C15.0803 5.30036 14.8318 5.54887 14.8243 5.79738C14.8017 6.03837 15.0577 6.28688 15.2987 6.52033C15.6602 6.89686 16.0141 7.23574 15.999 7.60475C15.984 7.97375 15.5999 8.35781 15.2159 8.73435L12.1057 11.852L11.0363 10.7827L14.2369 7.58969L13.5139 6.86674L12.4446 7.92857L9.62056 5.10456L12.5123 2.22031C12.806 1.92661 13.2955 1.92661 13.5742 2.22031L15.3363 3.98249C15.63 4.26113 15.63 4.75062 15.3363 5.04432ZM1.99951 12.7331L9.19884 5.52628L12.0228 8.35028L4.82352 15.5571H1.99951V12.7331Z" fill="#393F4C"/>
<path d="M57.7725 5.14377C58.0758 4.84048 58.0758 4.33499 57.7725 4.04725L55.9528 2.22751C55.665 1.92422 55.1596 1.92422 54.8563 2.22751L53.4254 3.65064L56.3416 6.5669L57.7725 5.14377ZM44 13.0838V16H46.9163L55.5173 7.39123L52.601 4.47497L44 13.0838Z" fill="#393F4C"/>
<g clip-path="url(#clip2)">
<path d="M98.3884 2.77785H95.6662L94.8884 2.00008H90.9995L90.2217 2.77785H87.4995V4.33341H98.3884V2.77785ZM88.2773 14.4445C88.2773 14.8571 88.4412 15.2527 88.7329 15.5445C89.0246 15.8362 89.4203 16.0001 89.8328 16.0001H96.0551C96.4676 16.0001 96.8633 15.8362 97.155 15.5445C97.4467 15.2527 97.6106 14.8571 97.6106 14.4445V5.11119H88.2773V14.4445Z" fill="#393F4C"/>
</g>
<path d="M130.777 14.4445C130.777 14.8571 130.941 15.2527 131.233 15.5445C131.525 15.8362 131.92 16.0001 132.333 16.0001H138.555C138.968 16.0001 139.363 15.8362 139.655 15.5445C139.947 15.2527 140.111 14.8571 140.111 14.4445V5.11119H130.777V14.4445ZM132.333 6.66674H138.555V14.4445H132.333V6.66674ZM138.166 2.77785L137.388 2.00008H133.5L132.722 2.77785H130V4.33341H140.888V2.77785H138.166Z" fill="#393F4C"/>
<path d="M174.889 2.00008V2.77785H171V4.33341H171.778V14.4445C171.778 14.8571 171.942 15.2527 172.234 15.5445C172.526 15.8362 172.921 16.0001 173.334 16.0001H181.112C181.524 16.0001 181.92 15.8362 182.212 15.5445C182.503 15.2527 182.667 14.8571 182.667 14.4445V4.33341H183.445V2.77785H179.556V2.00008H174.889ZM174.889 5.88897H176.445V12.889H174.889V5.88897ZM178 5.88897H179.556V12.889H178V5.88897Z" fill="#393F4C"/>
<path d="M216.889 2.00008V2.77785H213V4.33341H213.778V14.4445C213.778 14.8571 213.942 15.2527 214.234 15.5445C214.526 15.8362 214.921 16.0001 215.334 16.0001H223.112C223.524 16.0001 223.92 15.8362 224.212 15.5445C224.503 15.2527 224.667 14.8571 224.667 14.4445V4.33341H225.445V2.77785H221.556V2.00008H216.889ZM215.334 4.33341H223.112V14.4445H215.334V4.33341ZM216.889 5.88897V12.889H218.445V5.88897H216.889ZM220 5.88897V12.889H221.556V5.88897H220Z" fill="#393F4C"/>
<path d="M261 2.00004C261.929 2.00004 262.819 2.36879 263.475 3.02516C264.132 3.68154 264.5 4.57178 264.5 5.50004C264.5 6.4283 264.132 7.31853 263.475 7.97491C262.819 8.63129 261.929 9.00004 261 9.00004C260.072 9.00004 259.182 8.63129 258.526 7.97491C257.869 7.31853 257.5 6.4283 257.5 5.50004C257.5 4.57178 257.869 3.68154 258.526 3.02516C259.182 2.36879 260.072 2.00004 261 2.00004ZM261 3.75004C260.536 3.75004 260.091 3.93441 259.763 4.2626C259.435 4.59079 259.25 5.03591 259.25 5.50004C259.25 5.96417 259.435 6.40929 259.763 6.73747C260.091 7.06566 260.536 7.25004 261 7.25004C261.465 7.25004 261.91 7.06566 262.238 6.73747C262.566 6.40929 262.75 5.96417 262.75 5.50004C262.75 5.03591 262.566 4.59079 262.238 4.2626C261.91 3.93441 261.465 3.75004 261 3.75004ZM261 9.87504C263.337 9.87504 268 11.0388 268 13.375V16H254V13.375C254 11.0388 258.664 9.87504 261 9.87504ZM261 11.5375C258.402 11.5375 255.663 12.815 255.663 13.375V14.3375H266.338V13.375C266.338 12.815 263.599 11.5375 261 11.5375Z" fill="#393F4C"/>
<path d="M303 2.00004C303.929 2.00004 304.819 2.36879 305.475 3.02516C306.132 3.68154 306.5 4.57178 306.5 5.50004C306.5 6.4283 306.132 7.31853 305.475 7.97491C304.819 8.63129 303.929 9.00004 303 9.00004C302.072 9.00004 301.182 8.63129 300.526 7.97491C299.869 7.31853 299.5 6.4283 299.5 5.50004C299.5 4.57178 299.869 3.68154 300.526 3.02516C301.182 2.36879 302.072 2.00004 303 2.00004ZM303 10.75C306.868 10.75 310 12.3163 310 14.25V16H296V14.25C296 12.3163 299.133 10.75 303 10.75Z" fill="#393F4C"/>
<path d="M346.909 10.3637C345.21 10.3637 341.818 11.21 341.818 12.9091V14.1818H352V12.9091C352 11.21 348.608 10.3637 346.909 10.3637ZM341.182 7.8182V5.90911H339.909V7.8182H338V9.09092H339.909V11H341.182V9.09092H343.091V7.8182H341.182ZM346.909 9.09092C347.584 9.09092 348.232 8.82274 348.709 8.34538C349.186 7.86801 349.455 7.22057 349.455 6.54547C349.455 5.87037 349.186 5.22293 348.709 4.74556C348.232 4.2682 347.584 4.00002 346.909 4.00002C346.234 4.00002 345.587 4.2682 345.109 4.74556C344.632 5.22293 344.364 5.87037 344.364 6.54547C344.364 7.22057 344.632 7.86801 345.109 8.34538C345.587 8.82274 346.234 9.09092 346.909 9.09092Z" fill="#393F4C"/>
<path d="M388.909 4.00002C388.234 4.00002 387.587 4.2682 387.109 4.74556C386.632 5.22293 386.364 5.87037 386.364 6.54547C386.364 7.22057 386.632 7.86801 387.109 8.34538C387.587 8.82274 388.234 9.09092 388.909 9.09092C389.584 9.09092 390.232 8.82274 390.709 8.34538C391.186 7.86801 391.455 7.22057 391.455 6.54547C391.455 5.87037 391.186 5.22293 390.709 4.74556C390.232 4.2682 389.584 4.00002 388.909 4.00002ZM388.909 5.20911C389.647 5.20911 390.245 5.80729 390.245 6.54547C390.245 7.28365 389.647 7.88183 388.909 7.88183C388.555 7.88183 388.215 7.74104 387.964 7.49042C387.714 7.2398 387.573 6.8999 387.573 6.54547C387.573 6.19104 387.714 5.85113 387.964 5.60052C388.215 5.3499 388.555 5.20911 388.909 5.20911ZM381.909 5.90911V7.8182H380V9.09092H381.909V11H383.182V9.09092H385.091V7.8182H383.182V5.90911H381.909ZM388.909 9.72729C387.21 9.72729 383.818 10.5737 383.818 12.2727V14.1818H394V12.2727C394 10.5737 390.608 9.72729 388.909 9.72729ZM388.909 10.9364C390.799 10.9364 392.791 11.8655 392.791 12.2727V12.9727H385.027V12.2727C385.027 11.8655 387 10.9364 388.909 10.9364Z" fill="#393F4C"/>
<path d="M430.909 10.3637C429.21 10.3637 425.818 11.21 425.818 12.9091V14.1818H436V12.9091C436 11.21 432.608 10.3637 430.909 10.3637ZM422 7.8182V9.09092H427.091V7.8182H422ZM430.909 9.09092C431.584 9.09092 432.232 8.82274 432.709 8.34538C433.186 7.86801 433.455 7.22057 433.455 6.54547C433.455 5.87037 433.186 5.22293 432.709 4.74556C432.232 4.2682 431.584 4.00002 430.909 4.00002C430.234 4.00002 429.587 4.2682 429.109 4.74556C428.632 5.22293 428.364 5.87037 428.364 6.54547C428.364 7.22057 428.632 7.86801 429.109 8.34538C429.587 8.82274 430.234 9.09092 430.909 9.09092Z" fill="black"/>
<path d="M472.909 4.00002C472.234 4.00002 471.587 4.2682 471.109 4.74556C470.632 5.22293 470.364 5.87037 470.364 6.54547C470.364 7.22057 470.632 7.86801 471.109 8.34538C471.587 8.82274 472.234 9.09092 472.909 9.09092C473.584 9.09092 474.232 8.82274 474.709 8.34538C475.186 7.86801 475.455 7.22057 475.455 6.54547C475.455 5.87037 475.186 5.22293 474.709 4.74556C474.232 4.2682 473.584 4.00002 472.909 4.00002ZM472.909 5.20911C473.647 5.20911 474.245 5.80729 474.245 6.54547C474.245 7.28365 473.647 7.88183 472.909 7.88183C472.555 7.88183 472.215 7.74104 471.964 7.49042C471.714 7.2398 471.573 6.8999 471.573 6.54547C471.573 6.19104 471.714 5.85113 471.964 5.60052C472.215 5.3499 472.555 5.20911 472.909 5.20911ZM464 7.8182V9.09092H469.091V7.8182H464ZM472.909 9.72729C471.21 9.72729 467.818 10.5737 467.818 12.2727V14.1818H478V12.2727C478 10.5737 474.608 9.72729 472.909 9.72729ZM472.909 10.9364C474.799 10.9364 476.791 11.8655 476.791 12.2727V12.9727H469.027V12.2727C469.027 11.8655 471 10.9364 472.909 10.9364Z" fill="black"/>
<path d="M513 14.0401C511.25 14.0401 509.703 13.1441 508.8 11.8001C508.821 10.4001 511.6 9.63011 513 9.63011C514.4 9.63011 517.179 10.4001 517.2 11.8001C516.297 13.1441 514.75 14.0401 513 14.0401ZM513 4.10011C513.556 4.10011 514.091 4.32136 514.484 4.71519C514.878 5.10902 515.1 5.64316 515.1 6.20011C515.1 6.75707 514.878 7.29121 514.484 7.68504C514.091 8.07887 513.556 8.30011 513 8.30011C512.443 8.30011 511.908 8.07887 511.515 7.68504C511.121 7.29121 510.9 6.75707 510.9 6.20011C510.9 5.64316 511.121 5.10902 511.515 4.71519C511.908 4.32136 512.443 4.10011 513 4.10011ZM513 2.00011C512.08 2.00011 511.17 2.18117 510.321 2.53296C509.471 2.88474 508.7 3.40036 508.05 4.05037C506.737 5.36312 506 7.1436 506 9.00011C506 10.8566 506.737 12.6371 508.05 13.9499C508.7 14.5999 509.471 15.1155 510.321 15.4673C511.17 15.8191 512.08 16.0001 513 16.0001C514.856 16.0001 516.637 15.2626 517.949 13.9499C519.262 12.6371 520 10.8566 520 9.00011C520 5.12911 516.85 2.00011 513 2.00011Z" fill="#393F4C"/>
<path d="M555 2.00011C554.08 2.00011 553.17 2.18117 552.321 2.53296C551.471 2.88474 550.7 3.40036 550.05 4.05037C548.737 5.36312 548 7.1436 548 9.00011C548 10.8566 548.737 12.6371 550.05 13.9499C550.7 14.5999 551.471 15.1155 552.321 15.4673C553.17 15.8191 554.08 16.0001 555 16.0001C556.856 16.0001 558.637 15.2626 559.949 13.9499C561.262 12.6371 562 10.8566 562 9.00011C562 8.08086 561.818 7.17061 561.467 6.32133C561.115 5.47205 560.599 4.70038 559.949 4.05037C559.299 3.40036 558.528 2.88474 557.678 2.53296C556.829 2.18117 555.919 2.00011 555 2.00011ZM551.549 13.3961C551.85 12.7661 553.684 12.1501 555 12.1501C556.316 12.1501 558.15 12.7661 558.451 13.3961C557.499 14.1521 556.302 14.6001 555 14.6001C553.698 14.6001 552.501 14.1521 551.549 13.3961ZM559.452 12.3811C558.451 11.1631 556.022 10.7501 555 10.7501C553.978 10.7501 551.549 11.1631 550.548 12.3811C549.834 11.4501 549.4 10.2741 549.4 9.00011C549.4 5.91311 551.913 3.40011 555 3.40011C558.087 3.40011 560.6 5.91311 560.6 9.00011C560.6 10.2741 560.166 11.4501 559.452 12.3811ZM555 4.80011C553.642 4.80011 552.55 5.89211 552.55 7.25011C552.55 8.60811 553.642 9.70011 555 9.70011C556.358 9.70011 557.45 8.60811 557.45 7.25011C557.45 5.89211 556.358 4.80011 555 4.80011ZM555 8.30011C554.721 8.30011 554.454 8.18949 554.257 7.99258C554.06 7.79566 553.95 7.52859 553.95 7.25011C553.95 6.97164 554.06 6.70457 554.257 6.50765C554.454 6.31074 554.721 6.20011 555 6.20011C555.278 6.20011 555.545 6.31074 555.742 6.50765C555.939 6.70457 556.05 6.97164 556.05 7.25011C556.05 7.52859 555.939 7.79566 555.742 7.99258C555.545 8.18949 555.278 8.30011 555 8.30011Z" fill="#393F4C"/>
<path d="M597 5.00008C597.541 5.00008 598.061 5.21518 598.444 5.59807C598.827 5.98095 599.042 6.50026 599.042 7.04174C599.042 7.58323 598.827 8.10253 598.444 8.48542C598.061 8.86831 597.541 9.08341 597 9.08341C596.459 9.08341 595.939 8.86831 595.556 8.48542C595.173 8.10253 594.958 7.58323 594.958 7.04174C594.958 6.50026 595.173 5.98095 595.556 5.59807C595.939 5.21518 596.459 5.00008 597 5.00008ZM592.917 6.45841C593.243 6.45841 593.547 6.54591 593.809 6.70341C593.722 7.53758 593.967 8.36591 594.468 9.01341C594.177 9.57341 593.593 9.95841 592.917 9.95841C592.453 9.95841 592.007 9.77404 591.679 9.44585C591.351 9.11766 591.167 8.67254 591.167 8.20841C591.167 7.74428 591.351 7.29916 591.679 6.97097C592.007 6.64278 592.453 6.45841 592.917 6.45841ZM601.083 6.45841C601.547 6.45841 601.993 6.64278 602.321 6.97097C602.649 7.29916 602.833 7.74428 602.833 8.20841C602.833 8.67254 602.649 9.11766 602.321 9.44585C601.993 9.77404 601.547 9.95841 601.083 9.95841C600.407 9.95841 599.823 9.57341 599.532 9.01341C600.033 8.36591 600.278 7.53758 600.191 6.70341C600.453 6.54591 600.757 6.45841 601.083 6.45841ZM593.208 12.4376C593.208 11.2301 594.906 10.2501 597 10.2501C599.094 10.2501 600.792 11.2301 600.792 12.4376V13.4584H593.208V12.4376ZM590 13.4584V12.5834C590 11.7726 591.102 11.0901 592.596 10.8917C592.252 11.2884 592.042 11.8367 592.042 12.4376V13.4584H590ZM604 13.4584H601.958V12.4376C601.958 11.8367 601.748 11.2884 601.404 10.8917C602.897 11.0901 604 11.7726 604 12.5834V13.4584Z" fill="#393F4C"/>
<path d="M639 6.86377C638.494 6.86377 638.008 7.06491 637.65 7.42293C637.292 7.78096 637.091 8.26654 637.091 8.77286C637.091 9.27919 637.292 9.76477 637.65 10.1228C638.008 10.4808 638.494 10.682 639 10.682C639.506 10.682 639.992 10.4808 640.35 10.1228C640.708 9.76477 640.909 9.27919 640.909 8.77286C640.909 8.26654 640.708 7.78096 640.35 7.42293C639.992 7.06491 639.506 6.86377 639 6.86377ZM639 11.9547C638.156 11.9547 637.347 11.6195 636.75 11.0228C636.153 10.426 635.818 9.61674 635.818 8.77286C635.818 7.92899 636.153 7.11969 636.75 6.52298C637.347 5.92627 638.156 5.59105 639 5.59105C639.844 5.59105 640.653 5.92627 641.25 6.52298C641.847 7.11969 642.182 7.92899 642.182 8.77286C642.182 9.61674 641.847 10.426 641.25 11.0228C640.653 11.6195 639.844 11.9547 639 11.9547ZM639 4.00014C635.818 4.00014 633.101 5.97923 632 8.77286C633.101 11.5665 635.818 13.5456 639 13.5456C642.182 13.5456 644.899 11.5665 646 8.77286C644.899 5.97923 642.182 4.00014 639 4.00014Z" fill="#393F4C"/>
<path d="M681 6.86377C681.506 6.86377 681.992 7.06491 682.35 7.42293C682.708 7.78096 682.909 8.26654 682.909 8.77286C682.909 9.27919 682.708 9.76477 682.35 10.1228C681.992 10.4808 681.506 10.682 681 10.682C680.494 10.682 680.008 10.4808 679.65 10.1228C679.292 9.76477 679.091 9.27919 679.091 8.77286C679.091 8.26654 679.292 7.78096 679.65 7.42293C680.008 7.06491 680.494 6.86377 681 6.86377ZM681 4.00014C684.182 4.00014 686.899 5.97923 688 8.77286C686.899 11.5665 684.182 13.5456 681 13.5456C677.818 13.5456 675.101 11.5665 674 8.77286C675.101 5.97923 677.818 4.00014 681 4.00014ZM675.387 8.77286C676.437 10.911 678.607 12.2729 681 12.2729C683.393 12.2729 685.563 10.911 686.613 8.77286C685.563 6.63468 683.393 5.27286 681 5.27286C678.607 5.27286 676.437 6.63468 675.387 8.77286Z" fill="#393F4C"/>
</g>
<g clip-path="url(#clip3)">
<path d="M7.7 44.0001C9.07913 44.0001 10.4018 44.5479 11.377 45.5231C12.3521 46.4983 12.9 47.821 12.9 49.2001C12.9 50.4881 12.428 51.6721 11.652 52.5841L11.868 52.8001H12.5L16.5 56.8001L15.3 58.0001L11.3 54.0001V53.3681L11.084 53.1521C10.172 53.9281 8.988 54.4001 7.7 54.4001C6.32087 54.4001 4.99823 53.8522 4.02304 52.877C3.04786 51.9018 2.5 50.5792 2.5 49.2001C2.5 47.821 3.04786 46.4983 4.02304 45.5231C4.99823 44.5479 6.32087 44.0001 7.7 44.0001ZM7.7 45.6001C5.7 45.6001 4.1 47.2001 4.1 49.2001C4.1 51.2001 5.7 52.8001 7.7 52.8001C9.7 52.8001 11.3 51.2001 11.3 49.2001C11.3 47.2001 9.7 45.6001 7.7 45.6001Z" fill="#393F4C"/>
<path d="M54.2642 44.0001C52.5485 44.0001 51.176 45.3726 51.176 47.0883C51.176 48.804 52.5485 50.1765 54.2642 50.1765C54.8819 50.1765 55.4309 49.9706 55.9113 49.6961L58.0387 51.8236L58.9995 50.8628L56.8721 48.7354C57.1466 48.255 57.3525 47.7059 57.3525 47.0883C57.3525 45.3726 55.9799 44.0001 54.2642 44.0001ZM46.3721 45.3726C46.008 45.3726 45.6589 45.5172 45.4015 45.7746C45.1441 46.032 44.9995 46.3811 44.9995 46.7452V56.353C44.9995 56.717 45.1441 57.0661 45.4015 57.3235C45.6589 57.5809 46.008 57.7256 46.3721 57.7256H55.9799C56.3439 57.7256 56.693 57.5809 56.9504 57.3235C57.2078 57.0661 57.3525 56.717 57.3525 56.353V52.9216L55.9799 51.5491V56.353H46.3721V46.7452H49.824C49.8652 46.2648 49.9819 45.8187 50.1466 45.3726H46.3721ZM54.2642 45.3726C55.225 45.3726 55.9799 46.1275 55.9799 47.0883C55.9799 48.0491 55.225 48.804 54.2642 48.804C53.3034 48.804 52.5485 48.0491 52.5485 47.0883C52.5485 46.1275 53.3034 45.3726 54.2642 45.3726Z" fill="#393F4C"/>
<path d="M99.2 56.6001H89.4V48.9001H99.2V56.6001ZM97.1 44.0001V45.4001H91.5V44.0001H90.1V45.4001H89.4C88.623 45.4001 88 46.0231 88 46.8001V56.6001C88 56.9714 88.1475 57.3275 88.4101 57.59C88.6726 57.8526 89.0287 58.0001 89.4 58.0001H99.2C99.5713 58.0001 99.9274 57.8526 100.19 57.59C100.453 57.3275 100.6 56.9714 100.6 56.6001V46.8001C100.6 46.0231 99.97 45.4001 99.2 45.4001H98.5V44.0001" fill="#393F4C"/>
<path d="M132.8 50.3001H136.3V53.8001H132.8V50.3001ZM141.2 56.6001H131.4V48.9001H141.2V56.6001ZM141.2 45.4001H140.5V44.0001H139.1V45.4001H133.5V44.0001H132.1V45.4001H131.4C130.623 45.4001 130 46.0301 130 46.8001V56.6001C130 56.9714 130.147 57.3275 130.41 57.59C130.673 57.8526 131.029 58.0001 131.4 58.0001H141.2C141.571 58.0001 141.927 57.8526 142.19 57.59C142.453 57.3275 142.6 56.9714 142.6 56.6001V46.8001C142.6 46.4288 142.453 46.0727 142.19 45.8101C141.927 45.5476 141.571 45.4001 141.2 45.4001Z" fill="#393F4C"/>
<path d="M176.2 50.3001V51.7001H174.8V50.3001H176.2ZM179 50.3001V51.7001H177.6V50.3001H179ZM181.8 50.3001V51.7001H180.4V50.3001H181.8ZM183.2 45.4001C183.571 45.4001 183.927 45.5476 184.19 45.8101C184.453 46.0727 184.6 46.4288 184.6 46.8001V56.6001C184.6 56.9714 184.453 57.3275 184.19 57.59C183.927 57.8526 183.571 58.0001 183.2 58.0001H173.4C172.623 58.0001 172 57.3701 172 56.6001V46.8001C172 46.4288 172.147 46.0727 172.41 45.8101C172.673 45.5476 173.029 45.4001 173.4 45.4001H174.1V44.0001H175.5V45.4001H181.1V44.0001H182.5V45.4001H183.2ZM183.2 56.6001V48.9001H173.4V56.6001H183.2ZM176.2 53.1001V54.5001H174.8V53.1001H176.2ZM179 53.1001V54.5001H177.6V53.1001H179ZM181.8 53.1001V54.5001H180.4V53.1001H181.8Z" fill="#393F4C"/>
<path d="M216.8 51.0001H218.2V52.4001H216.8V51.0001ZM226.6 46.8001V56.6001C226.6 56.9714 226.453 57.3275 226.19 57.59C225.927 57.8526 225.571 58.0001 225.2 58.0001H215.4C214.623 58.0001 214 57.3701 214 56.6001V46.8001C214 46.4288 214.147 46.0727 214.41 45.8101C214.673 45.5476 215.029 45.4001 215.4 45.4001H216.1V44.0001H217.5V45.4001H223.1V44.0001H224.5V45.4001H225.2C225.571 45.4001 225.927 45.5476 226.19 45.8101C226.453 46.0727 226.6 46.4288 226.6 46.8001ZM215.4 48.2001H225.2V46.8001H215.4V48.2001ZM225.2 56.6001V49.6001H215.4V56.6001H225.2ZM222.4 52.4001V51.0001H223.8V52.4001H222.4ZM219.6 52.4001V51.0001H221V52.4001H219.6ZM216.8 53.8001H218.2V55.2001H216.8V53.8001ZM222.4 55.2001V53.8001H223.8V55.2001H222.4ZM219.6 55.2001V53.8001H221V55.2001H219.6Z" fill="#393F4C"/>
<path d="M262 44.0001C258.136 44.0001 255 47.1361 255 51.0001C255 54.8641 258.136 58.0001 262 58.0001C265.864 58.0001 269 54.8641 269 51.0001C269 47.1361 265.864 44.0001 262 44.0001ZM262.7 54.5001H261.3V53.1001H262.7V54.5001ZM262.7 51.7001H261.3V47.5001H262.7V51.7001Z" fill="#393F4C"/>
<path d="M303.3 53.1001H304.7V54.5001H303.3V53.1001ZM303.3 47.5001H304.7V51.7001H303.3V47.5001ZM303.993 44.0001C300.129 44.0001 297 47.1361 297 51.0001C297 54.8641 300.129 58.0001 303.993 58.0001C307.864 58.0001 311 54.8641 311 51.0001C311 47.1361 307.864 44.0001 303.993 44.0001ZM304 56.6001C300.906 56.6001 298.4 54.0941 298.4 51.0001C298.4 47.9061 300.906 45.4001 304 45.4001C307.094 45.4001 309.6 47.9061 309.6 51.0001C309.6 54.0941 307.094 56.6001 304 56.6001Z" fill="#393F4C"/>
<path d="M338 58.0001H354.211L346.106 44.0001L338 58.0001ZM346.843 55.7895H345.369V54.3159H346.843V55.7895ZM346.843 52.8422H345.369V49.8948H346.843V52.8422Z" fill="#393F4C"/>
<path d="M395 45.4101L393.59 44.0001L388 49.5901L382.41 44.0001L381 45.4101L386.59 51.0001L381 56.5901L382.41 58.0001L388 52.4101L393.59 58.0001L395 56.5901L389.41 51.0001L395 45.4101Z" fill="#393F4C"/>
<path d="M430 44.0001C426.129 44.0001 423 47.1291 423 51.0001C423 54.8711 426.129 58.0001 430 58.0001C433.871 58.0001 437 54.8711 437 51.0001C437 47.1291 433.871 44.0001 430 44.0001ZM433.5 53.5131L432.513 54.5001L430 51.9871L427.487 54.5001L426.5 53.5131L429.013 51.0001L426.5 48.4871L427.487 47.5001L430 50.0131L432.513 47.5001L433.5 48.4871L430.987 51.0001L433.5 53.5131Z" fill="#393F4C"/>
<path d="M472 56.6001C468.913 56.6001 466.4 54.0871 466.4 51.0001C466.4 47.9131 468.913 45.4001 472 45.4001C475.087 45.4001 477.6 47.9131 477.6 51.0001C477.6 54.0871 475.087 56.6001 472 56.6001ZM472 44.0001C468.129 44.0001 465 47.1291 465 51.0001C465 54.8711 468.129 58.0001 472 58.0001C475.871 58.0001 479 54.8711 479 51.0001C479 47.1291 475.871 44.0001 472 44.0001ZM473.813 48.2001L472 50.0131L470.187 48.2001L469.2 49.1871L471.013 51.0001L469.2 52.8131L470.187 53.8001L472 51.9871L473.813 53.8001L474.8 52.8131L472.987 51.0001L474.8 49.1871L473.813 48.2001Z" fill="#393F4C"/>
<path d="M521 46.5463L518.454 44.0001L514 48.4538L509.547 44.0001L507 46.5463L511.454 51.0001L507 55.4538L509.547 58.0001L514 53.5463L518.454 58.0001L521 55.4538L516.547 51.0001L521 46.5463Z" fill="#393F4C"/>
<path d="M561.444 44.0001H559.344H552.656H550.556C550.143 44.0001 549.747 44.164 549.456 44.4557C549.164 44.7474 549 45.1431 549 45.5556V47.6556V54.4223V56.4445C549 56.8571 549.164 57.2527 549.456 57.5445C549.747 57.8362 550.143 58.0001 550.556 58.0001H552.656H559.422H561.444C561.857 58.0001 562.253 57.8362 562.544 57.5445C562.836 57.2527 563 56.8571 563 56.4445V54.3445V47.6556V45.5556C563 45.1431 562.836 44.7474 562.544 44.4557C562.253 44.164 561.857 44.0001 561.444 44.0001ZM558.8 54.889L556 52.089L553.2 54.889L552.111 53.8001L554.911 51.0001L552.111 48.2001L553.2 47.1112L556 49.9112L558.8 47.1112L559.889 48.2001L557.089 51.0001L559.889 53.8001L558.8 54.889Z" fill="#393F4C"/>
<path d="M598.811 53.4501C598.161 53.4501 597.538 53.192 597.078 52.7325C596.619 52.2731 596.361 51.6499 596.361 51.0001C596.361 50.3503 596.619 49.7272 597.078 49.2677C597.538 48.8082 598.161 48.5501 598.811 48.5501C599.46 48.5501 600.083 48.8082 600.543 49.2677C601.002 49.7272 601.261 50.3503 601.261 51.0001C601.261 51.6499 601.002 52.2731 600.543 52.7325C600.083 53.192 599.46 53.4501 598.811 53.4501ZM604.012 51.6791C604.04 51.4551 604.061 51.2311 604.061 51.0001C604.061 50.7691 604.04 50.5381 604.012 50.3001L605.489 49.1591C605.622 49.0541 605.657 48.8651 605.573 48.7111L604.173 46.2891C604.089 46.1351 603.9 46.0721 603.746 46.1351L602.003 46.8351C601.639 46.5621 601.261 46.3241 600.82 46.1491L600.561 44.2941C600.533 44.1261 600.386 44.0001 600.211 44.0001H597.411C597.236 44.0001 597.089 44.1261 597.061 44.2941L596.802 46.1491C596.361 46.3241 595.983 46.5621 595.619 46.8351L593.876 46.1351C593.722 46.0721 593.533 46.1351 593.449 46.2891L592.049 48.7111C591.958 48.8651 592 49.0541 592.133 49.1591L593.61 50.3001C593.582 50.5381 593.561 50.7691 593.561 51.0001C593.561 51.2311 593.582 51.4551 593.61 51.6791L592.133 52.8411C592 52.9461 591.958 53.1351 592.049 53.2891L593.449 55.7111C593.533 55.8651 593.722 55.9211 593.876 55.8651L595.619 55.1581C595.983 55.4381 596.361 55.6761 596.802 55.8511L597.061 57.7061C597.089 57.8741 597.236 58.0001 597.411 58.0001H600.211C600.386 58.0001 600.533 57.8741 600.561 57.7061L600.82 55.8511C601.261 55.6691 601.639 55.4381 602.003 55.1581L603.746 55.8651C603.9 55.9211 604.089 55.8651 604.173 55.7111L605.573 53.2891C605.657 53.1351 605.622 52.9461 605.489 52.8411L604.012 51.6791Z" fill="#393F4C"/>
<path d="M639.811 48.2001C640.554 48.2001 641.266 48.4951 641.791 49.0202C642.316 49.5453 642.611 50.2575 642.611 51.0001C642.611 51.7427 642.316 52.4549 641.791 52.98C641.266 53.5051 640.554 53.8001 639.811 53.8001C639.068 53.8001 638.356 53.5051 637.831 52.98C637.306 52.4549 637.011 51.7427 637.011 51.0001C637.011 50.2575 637.306 49.5453 637.831 49.0202C638.356 48.4951 639.068 48.2001 639.811 48.2001ZM639.811 49.6001C639.44 49.6001 639.084 49.7476 638.821 50.0102C638.559 50.2727 638.411 50.6288 638.411 51.0001C638.411 51.3714 638.559 51.7275 638.821 51.9901C639.084 52.2526 639.44 52.4001 639.811 52.4001C640.182 52.4001 640.538 52.2526 640.801 51.9901C641.064 51.7275 641.211 51.3714 641.211 51.0001C641.211 50.6288 641.064 50.2727 640.801 50.0102C640.538 49.7476 640.182 49.6001 639.811 49.6001ZM638.411 58.0001C638.236 58.0001 638.089 57.8741 638.061 57.7061L637.802 55.8511C637.361 55.6761 636.983 55.4381 636.619 55.1581L634.876 55.8651C634.722 55.9211 634.533 55.8651 634.449 55.7111L633.049 53.2891C632.958 53.1351 633 52.9461 633.133 52.8411L634.61 51.6791L634.561 51.0001L634.61 50.3001L633.133 49.1591C633 49.0541 632.958 48.8651 633.049 48.7111L634.449 46.2891C634.533 46.1351 634.722 46.0721 634.876 46.1351L636.619 46.8351C636.983 46.5621 637.361 46.3241 637.802 46.1491L638.061 44.2941C638.089 44.1261 638.236 44.0001 638.411 44.0001H641.211C641.386 44.0001 641.533 44.1261 641.561 44.2941L641.82 46.1491C642.261 46.3241 642.639 46.5621 643.003 46.8351L644.746 46.1351C644.9 46.0721 645.089 46.1351 645.173 46.2891L646.573 48.7111C646.664 48.8651 646.622 49.0541 646.489 49.1591L645.012 50.3001L645.061 51.0001L645.012 51.7001L646.489 52.8411C646.622 52.9461 646.664 53.1351 646.573 53.2891L645.173 55.7111C645.089 55.8651 644.9 55.9281 644.746 55.8651L643.003 55.1651C642.639 55.4381 642.261 55.6761 641.82 55.8511L641.561 57.7061C641.533 57.8741 641.386 58.0001 641.211 58.0001H638.411ZM639.286 45.4001L639.027 47.2271C638.187 47.4021 637.445 47.8501 636.906 48.4731L635.219 47.7451L634.694 48.6551L636.171 49.7401C635.891 50.5591 635.891 51.4481 636.171 52.2601L634.687 53.3521L635.212 54.2621L636.913 53.5341C637.452 54.1501 638.187 54.5981 639.02 54.7661L639.279 56.6001H640.343L640.602 54.7731C641.435 54.5981 642.17 54.1501 642.709 53.5341L644.41 54.2621L644.935 53.3521L643.451 52.2671C643.731 51.4481 643.731 50.5591 643.451 49.7401L644.928 48.6551L644.403 47.7451L642.716 48.4731C642.177 47.8501 641.435 47.4021 640.595 47.2341L640.336 45.4001H639.286Z" fill="#393F4C"/>
<path d="M680.6 56.9001V52.7001H683.4V56.9001H686.9V51.3001H689L682 45.0001L675 51.3001H677.1V56.9001H680.6Z" fill="#393F4C"/>
</g>
<g clip-path="url(#clip4)">
<path d="M9.33382 96.6668C9.68744 96.6668 10.0266 96.5263 10.2766 96.2762C10.5267 96.0262 10.6672 95.687 10.6672 95.3334C10.6672 94.5934 10.0672 94.0001 9.33382 94.0001C8.9802 94.0001 8.64106 94.1406 8.39101 94.3906C8.14096 94.6407 8.00049 94.9798 8.00049 95.3334C8.00049 95.687 8.14096 96.0262 8.39101 96.2762C8.64106 96.5263 8.9802 96.6668 9.33382 96.6668ZM13.3338 90.6668C13.6874 90.6668 14.0266 90.8072 14.2766 91.0573C14.5267 91.3073 14.6672 91.6465 14.6672 92.0001V98.6668C14.6672 99.0204 14.5267 99.3595 14.2766 99.6096C14.0266 99.8596 13.6874 100 13.3338 100H5.33382C4.9802 100 4.64106 99.8596 4.39101 99.6096C4.14096 99.3595 4.00049 99.0204 4.00049 98.6668V92.0001C4.00049 91.2601 4.60049 90.6668 5.33382 90.6668H6.00049V89.3334C6.00049 88.4494 6.35168 87.6015 6.9768 86.9764C7.60192 86.3513 8.44977 86.0001 9.33382 86.0001C9.77156 86.0001 10.205 86.0863 10.6094 86.2538C11.0139 86.4213 11.3813 86.6669 11.6908 86.9764C12.0004 87.2859 12.2459 87.6534 12.4134 88.0578C12.5809 88.4622 12.6672 88.8957 12.6672 89.3334V90.6668H13.3338ZM9.33382 87.3334C8.80339 87.3334 8.29468 87.5441 7.91961 87.9192C7.54453 88.2943 7.33382 88.803 7.33382 89.3334V90.6668H11.3338V89.3334C11.3338 88.803 11.1231 88.2943 10.748 87.9192C10.373 87.5441 9.86425 87.3334 9.33382 87.3334Z" fill="#393F4C"/>
<path d="M55.3338 98.6668V92.0001H47.3338V98.6668H55.3338ZM55.3338 90.6668C55.6874 90.6668 56.0266 90.8072 56.2766 91.0573C56.5267 91.3073 56.6672 91.6465 56.6672 92.0001V98.6668C56.6672 99.0204 56.5267 99.3595 56.2766 99.6096C56.0266 99.8596 55.6874 100 55.3338 100H47.3338C46.5938 100 46.0005 99.4001 46.0005 98.6668V92.0001C46.0005 91.6465 46.141 91.3073 46.391 91.0573C46.6411 90.8072 46.9802 90.6668 47.3338 90.6668H53.3338V89.3334C53.3338 88.803 53.1231 88.2943 52.748 87.9192C52.373 87.5441 51.8643 87.3334 51.3338 87.3334C50.8034 87.3334 50.2947 87.5441 49.9196 87.9192C49.5445 88.2943 49.3338 88.803 49.3338 89.3334H48.0005C48.0005 88.4494 48.3517 87.6015 48.9768 86.9764C49.6019 86.3513 50.4498 86.0001 51.3338 86.0001C51.7716 86.0001 52.205 86.0863 52.6094 86.2538C53.0139 86.4213 53.3813 86.6669 53.6908 86.9764C54.0004 87.2859 54.2459 87.6534 54.4134 88.0578C54.5809 88.4622 54.6672 88.8957 54.6672 89.3334V90.6668H55.3338ZM51.3338 96.6668C50.9802 96.6668 50.6411 96.5263 50.391 96.2762C50.141 96.0262 50.0005 95.687 50.0005 95.3334C50.0005 94.9798 50.141 94.6407 50.391 94.3906C50.6411 94.1406 50.9802 94.0001 51.3338 94.0001C51.6874 94.0001 52.0266 94.1406 52.2766 94.3906C52.5267 94.6407 52.6672 94.9798 52.6672 95.3334C52.6672 95.687 52.5267 96.0262 52.2766 96.2762C52.0266 96.5263 51.6874 96.6668 51.3338 96.6668Z" fill="#393F4C"/>
<path d="M96.6662 86.0001C94.8262 86.0001 93.3328 87.4934 93.3328 89.3334V90.6668H87.3328C86.5995 90.6668 85.9995 91.2601 85.9995 92.0001V98.6668C85.9995 99.4068 86.5995 100 87.3328 100H95.3328C96.0728 100 96.6662 99.4068 96.6662 98.6668V92.0001C96.6662 91.2668 96.0728 90.6668 95.3328 90.6668H94.6662V89.3334C94.6662 88.2268 95.5595 87.3334 96.6662 87.3334C97.7728 87.3334 98.6662 88.2268 98.6662 89.3334V90.6668H99.9995V89.3334C99.9995 87.4934 98.5062 86.0001 96.6662 86.0001ZM91.3328 94.0001C92.0662 94.0001 92.6662 94.5934 92.6662 95.3334C92.6662 96.0734 92.0728 96.6668 91.3328 96.6668C90.5995 96.6668 89.9995 96.0734 89.9995 95.3334C89.9995 94.6001 90.5995 94.0001 91.3328 94.0001Z" fill="#393F4C"/>
<path d="M133.333 94.0001C134.066 94.0001 134.666 94.5934 134.666 95.3334C134.666 96.0734 134.073 96.6668 133.333 96.6668C132.593 96.6668 132 96.0734 132 95.3334C132 94.5934 132.6 94.0001 133.333 94.0001ZM138.666 86.0001C136.826 86.0001 135.333 87.4934 135.333 89.3334V90.6668H129.333C128.6 90.6668 128 91.2668 128 92.0001V98.6668C128 99.4001 128.6 100 129.333 100H137.333C138.066 100 138.666 99.4001 138.666 98.6668V92.0001C138.666 91.2668 138.066 90.6668 137.333 90.6668H136.666V89.3334C136.666 88.2268 137.56 87.3334 138.666 87.3334C139.773 87.3334 140.666 88.2268 140.666 89.3334V90.6668H142V89.3334C142 87.4934 140.506 86.0001 138.666 86.0001ZM137.333 92.0001V98.6668H129.333V92.0001H137.333Z" fill="#393F4C"/>
<path d="M177.334 96.6668C176.594 96.6668 176 96.0668 176 95.3334C176 94.5934 176.594 94.0001 177.334 94.0001C177.687 94.0001 178.027 94.1406 178.277 94.3906C178.527 94.6407 178.667 94.9798 178.667 95.3334C178.667 95.687 178.527 96.0262 178.277 96.2762C178.027 96.5263 177.687 96.6668 177.334 96.6668ZM181.334 98.6668V92.0001H173.334V98.6668H181.334ZM181.334 90.6668C181.687 90.6668 182.027 90.8072 182.277 91.0573C182.527 91.3073 182.667 91.6465 182.667 92.0001V98.6668C182.667 99.0204 182.527 99.3595 182.277 99.6096C182.027 99.8596 181.687 100 181.334 100H173.334C172.594 100 172 99.4001 172 98.6668V92.0001C172 91.2601 172.594 90.6668 173.334 90.6668H174V89.3334C174 88.4494 174.352 87.6015 174.977 86.9764C175.602 86.3513 176.45 86.0001 177.334 86.0001C177.772 86.0001 178.205 86.0863 178.609 86.2538C179.014 86.4213 179.381 86.6669 179.691 86.9764C180 87.2859 180.246 87.6534 180.413 88.0578C180.581 88.4622 180.667 88.8957 180.667 89.3334V90.6668H181.334ZM177.334 87.3334C176.803 87.3334 176.295 87.5441 175.92 87.9192C175.545 88.2943 175.334 88.803 175.334 89.3334V90.6668H179.334V89.3334C179.334 88.803 179.123 88.2943 178.748 87.9192C178.373 87.5441 177.864 87.3334 177.334 87.3334Z" fill="#393F4C"/>
<path d="M223.334 90.6668C223.687 90.6668 224.027 90.8072 224.277 91.0573C224.527 91.3073 224.667 91.6465 224.667 92.0001V98.6668C224.667 99.0204 224.527 99.3595 224.277 99.6096C224.027 99.8596 223.687 100 223.334 100H215.334C214.594 100 214 99.4001 214 98.6668V92.0001C214 91.6465 214.141 91.3073 214.391 91.0573C214.641 90.8072 214.98 90.6668 215.334 90.6668H221.334V89.3334C221.334 88.803 221.123 88.2943 220.748 87.9192C220.373 87.5441 219.864 87.3334 219.334 87.3334C218.803 87.3334 218.295 87.5441 217.92 87.9192C217.545 88.2943 217.334 88.803 217.334 89.3334H216C216 88.4494 216.352 87.6015 216.977 86.9764C217.602 86.3513 218.45 86.0001 219.334 86.0001C219.772 86.0001 220.205 86.0863 220.609 86.2538C221.014 86.4213 221.381 86.6669 221.691 86.9764C222 87.2859 222.246 87.6534 222.413 88.0578C222.581 88.4622 222.667 88.8957 222.667 89.3334V90.6668H223.334ZM219.334 96.6668C219.687 96.6668 220.027 96.5263 220.277 96.2762C220.527 96.0262 220.667 95.687 220.667 95.3334C220.667 94.9798 220.527 94.6407 220.277 94.3906C220.027 94.1406 219.687 94.0001 219.334 94.0001C218.98 94.0001 218.641 94.1406 218.391 94.3906C218.141 94.6407 218 94.9798 218 95.3334C218 95.687 218.141 96.0262 218.391 96.2762C218.641 96.5263 218.98 96.6668 219.334 96.6668Z" fill="#393F4C"/>
<path d="M263.149 92.4751L262.519 93.1191C262.015 93.6231 261.7 94.0501 261.7 95.1001H260.3V94.7501C260.3 93.9731 260.615 93.2731 261.119 92.7691L261.987 91.8871C262.246 91.6351 262.4 91.2851 262.4 90.9001C262.4 90.1231 261.77 89.5001 261 89.5001C260.628 89.5001 260.272 89.6476 260.01 89.9101C259.747 90.1727 259.6 90.5288 259.6 90.9001H258.2C258.2 90.1575 258.495 89.4453 259.02 88.9202C259.545 88.3951 260.257 88.1001 261 88.1001C261.742 88.1001 262.454 88.3951 262.979 88.9202C263.505 89.4453 263.8 90.1575 263.8 90.9001C263.8 91.5161 263.548 92.0691 263.149 92.4751ZM261.7 97.9001H260.3V96.5001H261.7V97.9001ZM261 86.0001C260.08 86.0001 259.17 86.1811 258.321 86.5329C257.471 86.8847 256.7 87.4003 256.05 88.0503C254.737 89.3631 254 91.1435 254 93.0001C254 94.8566 254.737 96.6371 256.05 97.9498C256.7 98.5998 257.471 99.1154 258.321 99.4672C259.17 99.819 260.08 100 261 100C262.856 100 264.637 99.2626 265.949 97.9498C267.262 96.6371 268 94.8566 268 93.0001C268 89.1291 264.85 86.0001 261 86.0001Z" fill="#393F4C"/>
<path d="M302.3 97.2001H303.7V95.8001H302.3V97.2001ZM303 86.0001C302.08 86.0001 301.17 86.1811 300.321 86.5329C299.471 86.8847 298.7 87.4003 298.05 88.0503C296.737 89.3631 296 91.1435 296 93.0001C296 94.8566 296.737 96.6371 298.05 97.9498C298.7 98.5998 299.471 99.1154 300.321 99.4672C301.17 99.819 302.08 100 303 100C304.856 100 306.637 99.2626 307.949 97.9498C309.262 96.6371 310 94.8566 310 93.0001C310 92.0808 309.818 91.1706 309.467 90.3213C309.115 89.472 308.599 88.7003 307.949 88.0503C307.299 87.4003 306.528 86.8847 305.678 86.5329C304.829 86.1811 303.919 86.0001 303 86.0001ZM303 98.6001C299.913 98.6001 297.4 96.0871 297.4 93.0001C297.4 89.9131 299.913 87.4001 303 87.4001C306.087 87.4001 308.6 89.9131 308.6 93.0001C308.6 96.0871 306.087 98.6001 303 98.6001ZM303 88.8001C302.257 88.8001 301.545 89.0951 301.02 89.6202C300.495 90.1453 300.2 90.8575 300.2 91.6001H301.6C301.6 91.2288 301.747 90.8727 302.01 90.6101C302.272 90.3476 302.628 90.2001 303 90.2001C303.371 90.2001 303.727 90.3476 303.989 90.6101C304.252 90.8727 304.4 91.2288 304.4 91.6001C304.4 93.0001 302.3 92.8251 302.3 95.1001H303.7C303.7 93.5251 305.8 93.3501 305.8 91.6001C305.8 90.8575 305.505 90.1453 304.979 89.6202C304.454 89.0951 303.742 88.8001 303 88.8001Z" fill="#393F4C"/>
<path d="M344.3 90.9001H345.7V89.5001H344.3V90.9001ZM345 98.6001C341.913 98.6001 339.4 96.0871 339.4 93.0001C339.4 89.9131 341.913 87.4001 345 87.4001C348.087 87.4001 350.6 89.9131 350.6 93.0001C350.6 96.0871 348.087 98.6001 345 98.6001ZM345 86.0001C344.081 86.0001 343.17 86.1811 342.321 86.5329C341.472 86.8847 340.7 87.4003 340.05 88.0503C338.737 89.3631 338 91.1436 338 93.0001C338 94.8566 338.737 96.6371 340.05 97.9498C340.7 98.5998 341.472 99.1155 342.321 99.4672C343.17 99.819 344.081 100 345 100C346.857 100 348.637 99.2626 349.95 97.9498C351.263 96.6371 352 94.8566 352 93.0001C352 92.0808 351.819 91.1706 351.467 90.3213C351.115 89.472 350.6 88.7003 349.95 88.0503C349.3 87.4003 348.528 86.8847 347.679 86.5329C346.83 86.1811 345.919 86.0001 345 86.0001ZM344.3 96.5001H345.7V92.3001H344.3V96.5001Z" fill="black"/>
<path d="M384.294 96.706H389.235V91.7648H392.529L386.764 86.0001L381 91.7648H384.294V96.706ZM381 98.353H392.529V100H381V98.353Z" fill="#393F4C"/>
<path d="M423 86.0001V87.7501H435.25V86.0001H423ZM423 94.7501H426.5V100H431.75V94.7501H435.25L429.125 88.6251L423 94.7501Z" fill="#393F4C"/>
<path d="M476.529 90.9413H473.235V86.0001H468.294V90.9413H465L470.764 96.706L476.529 90.9413ZM465 98.353V100H476.529V98.353H465Z" fill="#393F4C"/>
<path d="M517.353 90.0844L515.166 87.8972L509.333 93.7299V95.9172H511.52L517.353 90.0844ZM519.079 88.358C519.307 88.1305 519.307 87.763 519.079 87.5355L517.715 86.1707C517.487 85.9432 517.12 85.9432 516.892 86.1707L515.749 87.3139L517.936 89.5012L519.079 88.358Z" fill="#393F4C"/>
<path d="M507 97.667H520.999V100H507V97.667Z" fill="#393F4C" fill-opacity="0.36"/>
<path d="M555.262 92.1445C553.497 91.6856 552.929 91.2112 552.929 90.4723C552.929 89.6245 553.714 89.0334 555.029 89.0334C556.413 89.0334 556.927 89.6945 556.973 90.6667H558.692C558.638 89.329 557.821 88.1001 556.196 87.7034V86.0001H553.862V87.6801C552.353 88.0067 551.14 88.9867 551.14 90.4879C551.14 92.2845 552.626 93.179 554.796 93.7001C556.74 94.1667 557.129 94.8512 557.129 95.5745C557.129 96.1112 556.748 96.9667 555.029 96.9667C553.427 96.9667 552.797 96.2512 552.711 95.3334H551C551.093 97.0367 552.369 97.9934 553.862 98.3123V100H556.196V98.3279C557.712 98.0401 558.918 97.1612 558.918 95.5667C558.918 93.3579 557.028 92.6034 555.262 92.1445Z" fill="#393F4C"/>
<path d="M604 94.0001H598V100H596V94.0001H590V92.0001H596V86.0001H598V92.0001H604V94.0001Z" fill="#393F4C"/>
<path d="M646 94.7501H640.75V100H637.25V94.7501H632V91.2501H637.25V86.0001H640.75V91.2501H646V94.7501Z" fill="#393F4C"/>
<path d="M681 98.6001C677.913 98.6001 675.4 96.0871 675.4 93.0001C675.4 89.9131 677.913 87.4001 681 87.4001C684.087 87.4001 686.6 89.9131 686.6 93.0001C686.6 96.0871 684.087 98.6001 681 98.6001ZM681 86.0001C680.081 86.0001 679.17 86.1811 678.321 86.5329C677.472 86.8847 676.7 87.4003 676.05 88.0503C674.737 89.3631 674 91.1436 674 93.0001C674 94.8566 674.737 96.6371 676.05 97.9498C676.7 98.5998 677.472 99.1155 678.321 99.4672C679.17 99.819 680.081 100 681 100C682.857 100 684.637 99.2626 685.95 97.9498C687.263 96.6371 688 94.8566 688 93.0001C688 92.0808 687.819 91.1706 687.467 90.3213C687.115 89.472 686.6 88.7003 685.95 88.0503C685.3 87.4003 684.528 86.8847 683.679 86.5329C682.83 86.1811 681.919 86.0001 681 86.0001ZM681.7 89.5001H680.3V92.3001H677.5V93.7001H680.3V96.5001H681.7V93.7001H684.5V92.3001H681.7V89.5001Z" fill="#393F4C"/>
</g>
<g clip-path="url(#clip5)">
<path d="M10.3005 132.9V129.05L14.1505 132.9H10.3005ZM5.40049 128C4.62349 128 4.00049 128.623 4.00049 129.4V140.6C4.00049 140.971 4.14799 141.327 4.41054 141.59C4.67309 141.853 5.02919 142 5.40049 142H13.8005C14.1718 142 14.5279 141.853 14.7904 141.59C15.053 141.327 15.2005 140.971 15.2005 140.6V132.2L11.0005 128H5.40049Z" fill="#393F4C"/>
<path d="M53.0005 128H47.4005C47.0292 128 46.6731 128.148 46.4105 128.41C46.148 128.673 46.0005 129.029 46.0005 129.4V140.6C46.0005 140.971 46.148 141.327 46.4105 141.59C46.6731 141.853 47.0292 142 47.4005 142H55.8005C56.1718 142 56.5279 141.853 56.7904 141.59C57.053 141.327 57.2005 140.971 57.2005 140.6V132.2L53.0005 128ZM55.8005 140.6H47.4005V129.4H52.3005V132.9H55.8005V140.6Z" fill="#393F4C"/>
<path d="M91.0005 140H88.3338V129.333H93.0005V132.667H96.3338V134.733L97.6672 133.4V132L93.6672 128H88.3338C87.6005 128 87.0005 128.6 87.0005 129.333V140C87.0005 140.733 87.6005 141.333 88.3338 141.333H91.0005V140ZM97.8005 135.333C97.8672 135.333 98.0005 135.4 98.0672 135.467L98.9338 136.333C99.0672 136.467 99.0672 136.733 98.9338 136.867L98.2672 137.533L96.8672 136.133L97.5338 135.467C97.6005 135.4 97.6672 135.333 97.8005 135.333ZM97.8005 137.933L93.7338 142H92.3338V140.6L96.4005 136.533L97.8005 137.933Z" fill="#393F4C"/>
<path d="M134.546 128H129.31C128.962 128 128.629 128.138 128.384 128.383C128.138 128.629 128 128.962 128 129.309V139.781C128 140.128 128.138 140.461 128.384 140.707C128.629 140.952 128.962 141.09 129.31 141.09H133.891C133.623 140.927 133.367 140.724 133.145 140.501C132.929 140.285 132.746 140.043 132.582 139.781H129.31V129.309H133.891V132.582H137.164V133.354C137.628 133.459 138.073 133.635 138.473 133.891V131.927L134.546 128ZM138.676 139.061C139.546 137.68 139.127 135.854 137.759 134.99C136.378 134.12 134.546 134.545 133.688 135.907C132.811 137.288 133.237 139.107 134.605 139.978C135.56 140.586 136.777 140.586 137.74 139.991L139.782 142L140.691 141.09L138.676 139.061ZM136.182 139.127C135.748 139.127 135.332 138.954 135.025 138.648C134.718 138.341 134.546 137.924 134.546 137.49C134.546 137.057 134.718 136.64 135.025 136.333C135.332 136.027 135.748 135.854 136.182 135.854C136.616 135.854 137.032 136.027 137.339 136.333C137.646 136.64 137.818 137.057 137.818 137.49C137.818 137.924 137.646 138.341 137.339 138.648C137.032 138.954 136.616 139.127 136.182 139.127Z" fill="#393F4C"/>
<path d="M175.6 129H171.4C170.623 129 170 129.623 170 130.4V138.8C170 139.171 170.147 139.527 170.41 139.79C170.672 140.053 171.028 140.2 171.4 140.2H182.6C182.971 140.2 183.327 140.053 183.589 139.79C183.852 139.527 184 139.171 184 138.8V131.8C184 131.023 183.37 130.4 182.6 130.4H177L175.6 129Z" fill="#393F4C"/>
<path d="M224.6 138.8H213.4V131.8H224.6V138.8ZM224.6 130.4H219L217.6 129H213.4C212.623 129 212 129.623 212 130.4V138.8C212 139.171 212.147 139.527 212.41 139.79C212.672 140.053 213.028 140.2 213.4 140.2H224.6C224.971 140.2 225.327 140.053 225.589 139.79C225.852 139.527 226 139.171 226 138.8V131.8C226 131.023 225.37 130.4 224.6 130.4Z" fill="#393F4C"/>
<path d="M266.833 130.167C267.143 130.167 267.439 130.29 267.658 130.508C267.877 130.727 268 131.024 268 131.333V137.167C268 137.476 267.877 137.773 267.658 137.992C267.439 138.21 267.143 138.333 266.833 138.333H257.5C257.191 138.333 256.894 138.21 256.675 137.992C256.456 137.773 256.333 137.476 256.333 137.167V130.167C256.333 129.857 256.456 129.561 256.675 129.342C256.894 129.123 257.191 129 257.5 129H261L262.167 130.167H266.833ZM255.167 131.333V139.5H265.667V140.667H255.167C254.857 140.667 254.561 140.544 254.342 140.325C254.123 140.106 254 139.809 254 139.5V134.25V131.333H255.167ZM257.5 131.333V137.167H266.833V131.333H257.5Z" fill="#393F4C"/>
<path d="M308.833 130.167H304.167L303 129H299.5C299.191 129 298.894 129.123 298.675 129.342C298.456 129.561 298.333 129.857 298.333 130.167V137.167C298.333 137.476 298.456 137.773 298.675 137.992C298.894 138.21 299.191 138.333 299.5 138.333H308.833C309.143 138.333 309.439 138.21 309.658 137.992C309.877 137.773 310 137.476 310 137.167V131.333C310 131.024 309.877 130.727 309.658 130.508C309.439 130.29 309.143 130.167 308.833 130.167ZM297.167 131.333H296V134.25V139.5C296 139.809 296.123 140.106 296.342 140.325C296.561 140.544 296.857 140.667 297.167 140.667H307.667V139.5H297.167V131.333Z" fill="#393F4C"/>
<path d="M339.4 133.152L345 136.652L350.6 133.152L345 129.652L339.4 133.152ZM352 133.152V140.152C352 140.523 351.852 140.879 351.589 141.142C351.327 141.405 350.971 141.552 350.6 141.552H339.4C339.028 141.552 338.672 141.405 338.41 141.142C338.147 140.879 338 140.523 338 140.152V133.152C338 132.641 338.273 132.2 338.679 131.955L345 128L351.321 131.955C351.727 132.2 352 132.641 352 133.152Z" fill="#393F4C"/>
<path d="M393.321 131.955L387 128L380.679 131.955C380.273 132.2 380 132.641 380 133.152V140.152C380 140.922 380.63 141.552 381.4 141.552H392.6C393.37 141.552 394 140.922 394 140.152V133.152C394 132.641 393.727 132.2 393.321 131.955ZM392.6 140.152H381.4V134.552L387 138.052L392.6 134.552V140.152ZM387 136.652L381.4 133.152L387 129.652L392.6 133.152L387 136.652Z" fill="#393F4C"/>
<path d="M436 130.4C436 129.63 435.37 129 434.6 129H423.4C422.63 129 422 129.63 422 130.4V138.8C422 139.57 422.63 140.2 423.4 140.2H434.6C435.37 140.2 436 139.57 436 138.8V130.4ZM434.6 130.4L429 133.9L423.4 130.4H434.6ZM434.6 138.8H423.4V131.8L429 135.3L434.6 131.8V138.8Z" fill="#393F4C"/>
<path d="M476.6 131.8L471 135.3L465.4 131.8V130.4L471 133.9L476.6 130.4V131.8ZM476.6 129H465.4C464.623 129 464 129.623 464 130.4V138.8C464 139.171 464.147 139.527 464.41 139.79C464.672 140.053 465.028 140.2 465.4 140.2H476.6C476.971 140.2 477.327 140.053 477.589 139.79C477.852 139.527 478 139.171 478 138.8V130.4C478 129.623 477.37 129 476.6 129Z" fill="#393F4C"/>
<path d="M517.818 140.727H510.818V131.818H517.818V140.727ZM517.818 130.546H510.818C510.481 130.546 510.157 130.68 509.918 130.918C509.68 131.157 509.545 131.481 509.545 131.818V140.727C509.545 141.065 509.68 141.389 509.918 141.627C510.157 141.866 510.481 142 510.818 142H517.818C518.156 142 518.479 141.866 518.718 141.627C518.957 141.389 519.091 141.065 519.091 140.727V131.818C519.091 131.481 518.957 131.157 518.718 130.918C518.479 130.68 518.156 130.546 517.818 130.546ZM515.909 128H508.273C507.935 128 507.611 128.134 507.373 128.373C507.134 128.612 507 128.935 507 129.273V138.182H508.273V129.273H515.909V128Z" fill="#393F4C"/>
<path d="M561.353 137.059L556.412 142L555.243 140.831L558.199 137.882H549V128H550.648V136.235H558.199L555.243 133.287L556.412 132.118L561.353 137.059Z" fill="#393F4C"/>
<path d="M601.942 130.058C600.673 128.788 598.931 128 596.996 128C593.126 128 590 131.135 590 135.004C590 138.874 593.126 142.009 596.996 142.009C600.261 142.009 602.984 139.776 603.764 136.756H601.942C601.225 138.796 599.281 140.258 596.996 140.258C594.098 140.258 591.742 137.903 591.742 135.004C591.742 132.106 594.098 129.751 596.996 129.751C598.449 129.751 599.745 130.355 600.69 131.31L597.871 134.129H604V128L601.942 130.058Z" fill="#393F4C"/>
<path d="M640.556 128V129.556H643.348L635.702 137.201L636.799 138.298L644.444 130.652V133.445H646V128H640.556ZM644.444 140.445H633.556V129.556H639V128H633.556C632.692 128 632 128.7 632 129.556V140.445C632 140.857 632.164 141.253 632.456 141.544C632.747 141.836 633.143 142 633.556 142H644.444C644.857 142 645.253 141.836 645.544 141.544C645.836 141.253 646 140.857 646 140.445V135H644.444V140.445Z" fill="#393F4C"/>
<path d="M679.818 138.818H677.273V137.546H679.818V138.818ZM679.818 136.273H677.273V135H679.818V136.273ZM679.818 128V128.636H677.273C676.566 128.636 676 129.203 676 129.909V140.091C676 140.429 676.134 140.752 676.373 140.991C676.611 141.23 676.935 141.364 677.273 141.364H679.818V142H681.091V128H679.818ZM686.182 132.455V140.091C686.182 140.797 685.615 141.364 684.909 141.364H682.364V140.091H684.909V134.364H682.364V133.091H685.227L682.364 130.227V128.636L686.182 132.455ZM683.636 136.273H682.364V135H683.636V136.273ZM683.636 138.818H682.364V137.546H683.636V138.818Z" fill="#393F4C"/>
</g>
<g clip-path="url(#clip6)">
<path d="M15.9995 175.068L10.9665 174.634L8.99951 170L7.03251 174.641L1.99951 175.068L5.82151 178.379L4.67351 183.3L8.99951 180.689L13.3255 183.3L12.1845 178.379L15.9995 175.068ZM8.99951 179.38V172.87L10.1965 175.698L13.2625 175.964L10.9385 177.98L11.6385 180.976L8.99951 179.38Z" fill="#393F4C"/>
<path d="M57.9995 175.068L52.9665 174.634L50.9995 170L49.0325 174.641L43.9995 175.068L47.8215 178.379L46.6735 183.3L50.9995 180.689L55.3255 183.3L54.1845 178.379L57.9995 175.068ZM50.9995 179.38L48.3675 180.969L49.0675 177.973L46.7435 175.957L49.8095 175.691L50.9995 172.87L52.1965 175.698L55.2625 175.964L52.9385 177.98L53.6385 180.976L50.9995 179.38Z" fill="#393F4C"/>
<path d="M92.9995 180.689L97.3255 183.3L96.1775 178.379L99.9995 175.068L94.9665 174.641L92.9995 170L91.0325 174.641L85.9995 175.068L89.8215 178.379L88.6735 183.3L92.9995 180.689Z" fill="#393F4C"/>
<path d="M135 170C131.136 170 128 173.136 128 177C128 180.864 131.136 184 135 184C138.864 184 142 180.864 142 177C142 173.136 138.864 170 135 170ZM135 182.6C131.906 182.6 129.4 180.094 129.4 177C129.4 173.906 131.906 171.4 135 171.4C138.094 171.4 140.6 173.906 140.6 177C140.6 180.094 138.094 182.6 135 182.6Z" fill="#393F4C"/>
<path d="M177 173.5C175.068 173.5 173.5 175.068 173.5 177C173.5 178.932 175.068 180.5 177 180.5C178.932 180.5 180.5 178.932 180.5 177C180.5 175.068 178.932 173.5 177 173.5ZM177 170C173.136 170 170 173.136 170 177C170 180.864 173.136 184 177 184C180.864 184 184 180.864 184 177C184 173.136 180.864 170 177 170ZM177 182.6C173.906 182.6 171.4 180.094 171.4 177C171.4 173.906 173.906 171.4 177 171.4C180.094 171.4 182.6 173.906 182.6 177C182.6 180.094 180.094 182.6 177 182.6Z" fill="#393F4C"/>
<path d="M226 173.128L216.4 182.728L212 178.328L213.128 177.2L216.4 180.464L224.872 172L226 173.128Z" fill="#393F4C"/>
<path d="M266.444 170H255.556C254.692 170 254 170.692 254 171.556V182.445C254 182.857 254.164 183.253 254.456 183.544C254.747 183.836 255.143 184 255.556 184H266.444C266.857 184 267.253 183.836 267.544 183.544C267.836 183.253 268 182.857 268 182.445V171.556C268 170.692 267.3 170 266.444 170ZM266.444 171.556V182.445H255.556V171.556H266.444Z" fill="#393F4C"/>
<path d="M301.444 180.889L297.556 177L298.652 175.896L301.444 178.688L307.348 172.785L308.444 173.889L301.444 180.889ZM308.444 170H297.556C296.692 170 296 170.692 296 171.556V182.445C296 182.857 296.164 183.253 296.456 183.544C296.747 183.836 297.143 184 297.556 184H308.444C308.857 184 309.253 183.836 309.544 183.544C309.836 183.253 310 182.857 310 182.445V171.556C310 170.692 309.3 170 308.444 170Z" fill="#393F4C"/>
<path d="M342.596 182.499L338 177.904L340.095 175.81L342.596 178.318L349.906 171L352 173.094L342.596 182.499Z" fill="#393F4C"/>
<path d="M392.444 170H381.556C381.143 170 380.747 170.164 380.456 170.456C380.164 170.747 380 171.143 380 171.556V182.445C380 182.857 380.164 183.253 380.456 183.544C380.747 183.836 381.143 184 381.556 184H392.444C392.857 184 393.253 183.836 393.544 183.544C393.836 183.253 394 182.857 394 182.445V171.556C394 171.143 393.836 170.747 393.544 170.456C393.253 170.164 392.857 170 392.444 170ZM392.444 171.556V182.445H381.556V171.556H392.444ZM385.444 180.889L382.333 177.778L383.43 176.673L385.444 178.688L390.57 173.562L391.667 174.667" fill="#393F4C"/>
<path d="M429 170C425.15 170 422 173.15 422 177C422 180.85 425.15 184 429 184C432.85 184 436 180.85 436 177C436 173.15 432.85 170 429 170ZM427.6 180.5L424.1 177L425.087 176.013L427.6 178.519L432.913 173.206L433.9 174.2L427.6 180.5Z" fill="#393F4C"/>
<path d="M471 170C467.15 170 464 173.15 464 177C464 180.85 467.15 184 471 184C474.85 184 478 180.85 478 177C478 173.15 474.85 170 471 170ZM471 182.6C467.913 182.6 465.4 180.087 465.4 177C465.4 173.913 467.913 171.4 471 171.4C474.087 171.4 476.6 173.913 476.6 177C476.6 180.087 474.087 182.6 471 182.6ZM474.213 173.906L469.6 178.519L467.787 176.713L466.8 177.7L469.6 180.5L475.2 174.9L474.213 173.906Z" fill="#393F4C"/>
<path d="M516.046 173.182V180.5C516.046 181.906 514.907 183.046 513.5 183.046C512.094 183.046 510.955 181.906 510.955 180.5V172.546C510.955 171.667 511.668 170.955 512.546 170.955C513.424 170.955 514.137 171.667 514.137 172.546V179.227C514.137 179.577 513.85 179.864 513.5 179.864C513.15 179.864 512.864 179.577 512.864 179.227V173.182H511.91V179.227C511.91 180.106 512.622 180.818 513.5 180.818C514.379 180.818 515.091 180.106 515.091 179.227V172.546C515.091 171.139 513.952 170 512.546 170C511.14 170 510 171.139 510 172.546V180.5C510 182.435 511.566 184 513.5 184C515.435 184 517 182.435 517 180.5V173.182H516.046Z" fill="#393F4C"/>
<path d="M548 176.85C548 174.722 549.722 173 551.85 173H559.2C560.747 173 562 174.253 562 175.8C562 177.347 560.747 178.6 559.2 178.6H553.25C552.284 178.6 551.5 177.816 551.5 176.85C551.5 175.884 552.284 175.1 553.25 175.1H558.5V176.5H553.187C552.802 176.5 552.802 177.2 553.187 177.2H559.2C559.97 177.2 560.6 176.57 560.6 175.8C560.6 175.03 559.97 174.4 559.2 174.4H551.85C550.499 174.4 549.4 175.499 549.4 176.85C549.4 178.201 550.499 179.3 551.85 179.3H558.5V180.7H551.85C549.722 180.7 548 178.978 548 176.85Z" fill="#393F4C"/>
<path d="M597 184C596.831 184 596.669 183.933 596.55 183.814C596.431 183.694 596.364 183.532 596.364 183.364V181.455H593.818C593.481 181.455 593.157 181.321 592.918 181.082C592.68 180.843 592.545 180.519 592.545 180.182V173.818C592.545 173.481 592.68 173.157 592.918 172.918C593.157 172.68 593.481 172.546 593.818 172.546H602.727C603.065 172.546 603.389 172.68 603.627 172.918C603.866 173.157 604 173.481 604 173.818V180.182C604 180.519 603.866 180.843 603.627 181.082C603.389 181.321 603.065 181.455 602.727 181.455H600.118L597.764 183.816C597.636 183.93 597.484 184 597.318 184H597ZM597.636 180.182V182.142L599.596 180.182H602.727V173.818H593.818V180.182H597.636ZM591.273 178.909H590V171.273C590 170.935 590.134 170.612 590.373 170.373C590.611 170.134 590.935 170 591.273 170H601.455V171.273H591.273V178.909ZM595.091 175.091H601.455V176.364H595.091V175.091ZM595.091 177.636H600.182V178.909H595.091V177.636Z" fill="#393F4C"/>
<path d="M645.222 184H632.778V175.445H634.333V182.445H643.667V175.445H645.222V184ZM632 170H646V174.667H632V170ZM637.056 176.222H640.944C641.162 176.222 641.333 176.393 641.333 176.611V177.778H636.667V176.611C636.667 176.393 636.838 176.222 637.056 176.222ZM633.556 171.556V173.111H644.444V171.556H633.556Z" fill="#5D616C"/>
<path d="M674 170H688V173.111H674V170ZM674.778 173.889H687.222V184H674.778V173.889ZM679.056 176.222C678.952 176.222 678.854 176.263 678.781 176.336C678.708 176.409 678.667 176.508 678.667 176.611V177.778H683.333V176.611C683.333 176.508 683.292 176.409 683.219 176.336C683.146 176.263 683.048 176.222 682.944 176.222H679.056Z" fill="#393F4C"/>
</g>
<g clip-path="url(#clip7)">
<path d="M2.00049 223L9.00049 216L16.0005 223H2.00049Z" fill="#393F4C"/>
<path d="M50.9995 212C47.1355 212 43.9995 215.136 43.9995 219C43.9995 222.864 47.1355 226 50.9995 226C54.8635 226 57.9995 222.864 57.9995 219C57.9995 215.136 54.8635 212 50.9995 212ZM50.9995 220.4L48.1995 217.6H53.7995L50.9995 220.4Z" fill="#393F4C"/>
<path d="M86.0005 216L93.0005 223L100 216H86.0005Z" fill="#393F4C"/>
<path d="M135.57 214.201L138.036 216.667L139.132 215.57L135.57 212L132 215.57L133.104 216.667L135.57 214.201ZM135.57 223.799L133.104 221.333L132.008 222.43L135.57 226L139.14 222.43L138.036 221.333L135.57 223.799Z" fill="#393F4C"/>
<path d="M173 224.766L174.243 226L177.016 223.226L179.79 226L181.024 224.766L177.016 220.75L173 224.766ZM181.033 213.234L179.79 212L177.016 214.774L174.243 212L173 213.234L177.016 217.25L181.033 213.234Z" fill="#393F4C"/>
<path d="M218.75 215.5C219.713 215.5 220.5 214.713 220.5 213.75C220.5 212.788 219.713 212 218.75 212C217.788 212 217 212.788 217 213.75C217 214.713 217.788 215.5 218.75 215.5ZM218.75 217.25C217.788 217.25 217 218.038 217 219C217 219.963 217.788 220.75 218.75 220.75C219.713 220.75 220.5 219.963 220.5 219C220.5 218.038 219.713 217.25 218.75 217.25ZM218.75 222.5C217.788 222.5 217 223.288 217 224.25C217 225.213 217.788 226 218.75 226C219.713 226 220.5 225.213 220.5 224.25C220.5 223.288 219.713 222.5 218.75 222.5Z" fill="#393F4C"/>
<path d="M255.75 217C254.788 217 254 217.788 254 218.75C254 219.713 254.788 220.5 255.75 220.5C256.713 220.5 257.5 219.713 257.5 218.75C257.5 217.788 256.713 217 255.75 217ZM266.25 217C265.288 217 264.5 217.788 264.5 218.75C264.5 219.713 265.288 220.5 266.25 220.5C267.213 220.5 268 219.713 268 218.75C268 217.788 267.213 217 266.25 217ZM261 217C260.038 217 259.25 217.788 259.25 218.75C259.25 219.713 260.038 220.5 261 220.5C261.963 220.5 262.75 219.713 262.75 218.75C262.75 217.788 261.963 217 261 217Z" fill="#393F4C"/>
<path d="M296 215.5H299.5V212H296V215.5ZM301.25 226H304.75V222.5H301.25V226ZM296 226H299.5V222.5H296V226ZM296 220.75H299.5V217.25H296V220.75ZM301.25 220.75H304.75V217.25H301.25V220.75ZM306.5 212V215.5H310V212H306.5ZM301.25 215.5H304.75V212H301.25V215.5ZM306.5 220.75H310V217.25H306.5V220.75ZM306.5 226H310V222.5H306.5V226Z" fill="#393F4C"/>
<path d="M338 223.333H352V221.778H338V223.333ZM338 219.445H352V217.889H338V219.445ZM338 214V215.556H352V214H338Z" fill="#393F4C"/>
<path d="M391.287 217.523C390.891 215.511 389.123 214 387 214C385.314 214 383.85 214.957 383.121 216.357C381.365 216.543 380 218.031 380 219.833C380 221.764 381.569 223.333 383.5 223.333H391.083C392.693 223.333 394 222.027 394 220.417C394 218.877 392.804 217.628 391.287 217.523ZM388.167 219.25V221.583H385.833V219.25H384.083L387 216.333L389.917 219.25H388.167Z" fill="#393F4C"/>
<path d="M433.287 217.523C432.891 215.511 431.123 214 429 214C427.314 214 425.85 214.957 425.121 216.357C423.365 216.543 422 218.031 422 219.833C422 221.764 423.569 223.333 425.5 223.333H433.083C434.693 223.333 436 222.027 436 220.417C436 218.877 434.804 217.628 433.287 217.523ZM433.083 222.167H425.5C424.211 222.167 423.167 221.123 423.167 219.833C423.167 218.544 424.211 217.5 425.5 217.5H425.914C426.299 216.153 427.53 215.167 429 215.167C430.773 215.167 432.208 216.602 432.208 218.375V218.667H433.083C434.052 218.667 434.833 219.448 434.833 220.417C434.833 221.385 434.052 222.167 433.083 222.167Z" fill="#393F4C"/>
<path d="M475.287 217.523C474.891 215.511 473.123 214 471 214C469.314 214 467.85 214.957 467.121 216.357C465.365 216.543 464 218.031 464 219.833C464 221.764 465.569 223.333 467.5 223.333H475.083C476.693 223.333 478 222.027 478 220.417C478 218.877 476.804 217.628 475.287 217.523ZM473.917 219.25L471 222.167L468.083 219.25H469.833V216.917H472.167V219.25H473.917Z" fill="#393F4C"/>
<path d="M517.287 217.523C516.891 215.511 515.123 214 513 214C511.314 214 509.85 214.957 509.121 216.357C507.365 216.543 506 218.031 506 219.833C506 221.764 507.569 223.333 509.5 223.333H517.083C518.693 223.333 520 222.027 520 220.417C520 218.877 518.804 217.628 517.287 217.523ZM511.833 221.583L509.792 219.542L510.614 218.719L511.833 219.933L514.855 216.917L515.677 217.739L511.833 221.583Z" fill="#393F4C"/>
<path d="M559.287 217.523C558.891 215.511 557.123 214 555 214C553.314 214 551.85 214.957 551.121 216.357C549.365 216.543 548 218.031 548 219.833C548 221.764 549.569 223.333 551.5 223.333H559.083C560.693 223.333 562 222.027 562 220.417C562 218.877 560.804 217.628 559.287 217.523Z" fill="#393F4C"/>
<path d="M590 219L591.234 220.234L596.125 215.351V226H597.875V215.351L602.758 220.243L604 219L597 212L590 219Z" fill="#393F4C"/>
<path d="M639 212L637.767 213.234L642.649 218.125H632V219.875H642.649L637.767 224.766L639 226L646 219L639 212Z" fill="#393F4C"/>
<path d="M688 219L686.767 217.766L681.875 222.649V212H680.125V222.649L675.243 217.758L674 219L681 226L688 219Z" fill="#393F4C"/>
</g>
<g clip-path="url(#clip8)">
<path d="M16.0005 260.125H5.35174L10.243 255.234L9.00049 254L2.00049 261L9.00049 268L10.2342 266.766L5.35174 261.875H16.0005V260.125Z" fill="#393F4C"/>
<path d="M56.355 257L51 262.343L45.645 257L44 258.645L51 265.645L58 258.645L56.355 257Z" fill="#393F4C"/>
<path d="M93 256L86 263L87.645 264.645L93 259.302L98.355 264.645L100 263L93 256Z" fill="#393F4C"/>
<path d="M132.645 254L131 255.645L136.343 261L131 266.355L132.645 268L139.645 261L132.645 254Z" fill="#393F4C"/>
<path d="M181.645 255.645L180 254L173 261L180 268L181.645 266.355L176.301 261L181.645 255.645Z" fill="#393F4C"/>
<path d="M226 265.947L220.822 260.769L226 255.591L224.409 254L217.641 260.769L224.409 267.538L226 265.947ZM212 254H214.256V267.538H212V254Z" fill="#393F4C"/>
<path d="M254 255.591L259.178 260.769L254 265.947L255.591 267.538L262.359 260.769L255.591 254L254 255.591ZM265.744 254H268V267.538H265.744V254Z" fill="#393F4C"/>
<path d="M301 254H302.556V255.556H301V254ZM304.111 254H305.667V255.556H304.111V254ZM301 257.111H302.556V258.667H301V257.111ZM304.111 257.111H305.667V258.667H304.111V257.111ZM301 260.222H302.556V261.778H301V260.222ZM304.111 260.222H305.667V261.778H304.111V260.222ZM301 263.333H302.556V264.889H301V263.333ZM304.111 263.333H305.667V264.889H304.111V263.333ZM301 266.445H302.556V268H301V266.445ZM304.111 266.445H305.667V268H304.111V266.445Z" fill="#393F4C"/>
<path d="M340 268V266H342V268H340ZM344 268V266H346V268H344ZM348 268V266H350V268H348ZM340 264V262H342V264H340ZM344 264V262H346V264H344ZM348 264V262H350V264H348ZM340 260V258H342V260H340ZM344 260V258H346V260H344ZM348 260V258H350V260H348ZM340 256V254H342V256H340ZM344 256V254H346V256H344ZM348 256V254H350V256H348Z" fill="#393F4C"/>
<path d="M387 256.883L390.5 260.033V265.5H389.1V261.3H384.9V265.5H383.5V260.033L387 256.883ZM387 255L380 261.3H382.1V266.9H386.3V262.7H387.7V266.9H391.9V261.3H394L387 255Z" fill="#393F4C"/>
</g>
</g>
<defs>
<clipPath id="clip0">
<rect width="691" height="270" fill="white"/>
</clipPath>
<clipPath id="clip1">
<rect width="690" height="18" fill="white"/>
</clipPath>
<clipPath id="clip2">
<rect width="18" height="18" fill="white" transform="translate(84)"/>
</clipPath>
<clipPath id="clip3">
<rect width="691" height="18" fill="white" transform="translate(0 42.0001)"/>
</clipPath>
<clipPath id="clip4">
<rect width="690" height="18" fill="white" transform="translate(0 84.0001)"/>
</clipPath>
<clipPath id="clip5">
<rect width="690" height="18" fill="white" transform="translate(0 126)"/>
</clipPath>
<clipPath id="clip6">
<rect width="690" height="18" fill="white" transform="translate(0 168)"/>
</clipPath>
<clipPath id="clip7">
<rect width="690" height="18" fill="white" transform="translate(0 210)"/>
</clipPath>
<clipPath id="clip8">
<rect width="396" height="18" fill="white" transform="translate(0 252)"/>
</clipPath>
</defs>
</svg>
