<svg width="200" height="57" viewBox="0 0 200 57" fill="none" xmlns="http://www.w3.org/2000/svg">
<path d="M198.899 15.5326C196.347 10.0971 190.138 7.40252 184.65 9.26083C191.823 12.6987 196.54 19.5745 196.54 27.8904C196.54 28.0763 196.54 28.2621 196.54 28.4479C199.909 25.2423 201.065 20.0855 198.899 15.5326Z" fill="#31B6B7"/>
<path d="M3.89905 20.1783C3.89905 19.2492 3.36955 18.831 2.50309 18.831H0L0 12.234H7.41301C10.2531 12.234 11.649 13.5349 11.649 15.7184V16.6475C11.649 17.2979 11.6009 17.9948 11.6009 17.9948H11.7453C13.2857 14.9286 17.1366 11.5372 22.1909 11.5372C27.0527 11.5372 30.2297 13.7207 31.6256 17.9483H31.77C33.4067 14.5569 37.5945 11.4907 42.697 11.4907C49.388 11.4907 53.287 15.1609 53.287 23.3375V35.5094C53.287 36.3456 53.7684 36.8567 54.683 36.8567H55.8864V43.3608H49.5805C46.5479 43.3608 45.2964 42.1529 45.2964 39.226V24.8241C45.2964 21.2933 44.6225 18.5988 40.8678 18.5988C36.8725 18.5988 34.0325 21.8508 33.166 25.7533C32.7809 26.9612 32.6365 28.262 32.6365 29.7022V43.3608H24.5496V24.7776C24.5496 21.4327 24.0201 18.5523 20.1692 18.5523C16.1257 18.5523 13.3819 21.8043 12.3711 25.7533C12.0341 26.9612 11.8416 28.262 11.8416 29.6557L11.8416 43.3608H3.89905L3.89905 20.1783Z" fill="#31B6B7"/>
<path d="M72.4935 11.4907C82.3614 11.4907 90.2077 18.2736 90.2077 27.7974C90.2077 37.3677 82.3614 44.1041 72.4935 44.1041C62.6736 44.1041 54.8274 37.3677 54.8274 27.7974C54.8274 18.2736 62.6736 11.4907 72.4935 11.4907ZM72.4935 37.5071C77.7403 37.5071 82.1208 33.6046 82.1208 27.7974C82.1208 22.0366 77.7403 18.0877 72.4935 18.0877C67.2947 18.0877 62.9143 22.0366 62.9143 27.7974C62.9143 33.6046 67.2947 37.5071 72.4935 37.5071Z" fill="#31B6B7"/>
<path d="M106.863 11.4907C113.891 11.4907 116.153 15.3003 116.153 15.3003H116.298C116.298 15.3003 116.249 14.5105 116.249 13.4884V7.95991C116.249 7.03076 115.72 6.61264 114.854 6.61264H114.035V0.015625L120.004 0.015625C122.989 0.015625 124.288 1.31644 124.288 4.15037V35.5094C124.288 36.3456 124.818 36.8567 125.684 36.8567H126.888V43.3608H120.774C117.838 43.3608 116.779 42.0135 116.779 40.2016C116.779 39.5512 116.779 39.0402 116.779 39.0402H116.635C116.635 39.0402 113.987 44.1041 106.574 44.1041C97.8614 44.1041 92.2294 37.4606 92.2294 27.7974C92.1813 17.9019 98.3427 11.4907 106.863 11.4907ZM116.442 27.751C116.442 22.9193 113.843 18.1806 108.451 18.1806C104.023 18.1806 100.364 21.665 100.364 27.8439C100.364 33.7905 103.59 37.6 108.355 37.6C112.495 37.5536 116.442 34.6267 116.442 27.751Z" fill="#31B6B7"/>
<path d="M133.145 49.6791C135.36 49.6791 137.333 48.3782 138.44 45.7301L139.499 43.3608L128.717 19.946C128.332 19.0169 127.898 18.831 126.984 18.831H126.021V12.234H131.316C133.579 12.234 134.734 13.0238 135.552 15.1609L141.858 30.7243C142.484 32.3038 143.013 33.6511 143.013 33.6511H143.158C143.158 33.6511 143.687 32.3038 144.217 30.7243L149.704 15.1609C150.474 13.0238 151.774 12.234 153.988 12.234H159.428L145.757 47.9601C143.495 53.5815 138.2 56.2296 133.386 56.2296C128.332 56.2296 125.203 53.0705 125.203 53.0705L128.284 47.5884C128.476 47.542 130.45 49.6791 133.145 49.6791Z" fill="#31B6B7"/>
<path d="M173.869 11.4907C183.737 11.4907 191.583 18.2736 191.583 27.7974C191.583 37.3677 183.737 44.1041 173.869 44.1041C164.049 44.1041 156.203 37.3677 156.203 27.7974C156.203 18.2736 164.049 11.4907 173.869 11.4907ZM173.869 37.5071C179.116 37.5071 183.496 33.6046 183.496 27.7974C183.496 22.0366 179.116 18.0877 173.869 18.0877C168.67 18.0877 164.29 22.0366 164.29 27.7974C164.29 33.6046 168.67 37.5071 173.869 37.5071Z" fill="#31B6B7"/>
</svg>
