<svg width="200" height="57" viewBox="0 0 200 57" fill="none" xmlns="http://www.w3.org/2000/svg">
<path fill-rule="evenodd" clip-rule="evenodd" d="M197.993 16.6345L197.993 16.6345C196.041 12.4746 191.763 10.0819 187.504 10.3778C193.064 13.9068 196.799 19.6337 197.441 26.4545C199.217 23.6263 199.575 19.9584 197.996 16.6393L197.993 16.6345ZM197.534 28.0447C197.39 28.2232 197.241 28.3976 197.086 28.5674C196.911 28.7591 196.729 28.9451 196.54 29.1249V28.5674C196.54 28.2752 196.534 27.9848 196.523 27.6962C196.226 20.2767 192.143 14.0901 185.943 10.6095C185.522 10.373 185.091 10.1489 184.65 9.93783C185.129 9.77574 185.613 9.64828 186.1 9.55426C191.193 8.57046 196.57 11.2482 198.899 16.2096C200.836 20.2807 200.117 24.8347 197.534 28.0447Z" fill="#0EBD74"/>
<path fill-rule="evenodd" clip-rule="evenodd" d="M11.649 16.3954C11.649 14.2119 10.2531 12.911 7.41301 12.911H0L0 19.508H2.50309C3.36955 19.508 3.89905 19.9262 3.89905 20.8553L3.89905 44.0378H11.8416L11.8416 30.3327C11.8416 28.939 12.0341 27.6382 12.3711 26.4303C13.3819 22.4813 16.1257 19.2293 20.1692 19.2293C24.0201 19.2293 24.5496 22.1097 24.5496 25.4547V44.0378H32.6365V30.3792C32.6365 28.939 32.7809 27.6382 33.166 26.4303C34.0325 22.5278 36.8725 19.2758 40.8678 19.2758C44.6225 19.2758 45.2964 21.9703 45.2964 25.5011V39.903C45.2964 42.8299 46.5479 44.0378 49.5805 44.0378H55.8864V37.5337H54.683C53.7684 37.5337 53.287 37.0227 53.287 36.1864V24.0145C53.287 15.8379 49.388 12.1677 42.697 12.1677C38.0997 12.1677 34.2448 14.6569 32.3295 17.6304C32.1309 17.9387 31.9532 18.2521 31.7977 18.5685C31.7884 18.5875 31.7792 18.6064 31.77 18.6253H31.6256C31.6165 18.5976 31.6072 18.5699 31.5979 18.5423C31.4809 18.196 31.3518 17.8637 31.2107 17.5453C29.6508 14.0263 26.62 12.2142 22.1909 12.2142C17.9388 12.2142 14.5385 14.6144 12.649 17.202C12.6192 17.2428 12.5898 17.2836 12.5608 17.3245C12.2423 17.7729 11.9694 18.2258 11.7453 18.6718H11.6009C11.6009 18.6718 11.6026 18.6467 11.6054 18.6015C11.6148 18.4512 11.6361 18.0786 11.645 17.6718C11.6475 17.5574 11.649 17.4402 11.649 17.3245V16.3954ZM10.6033 18.6029L10.6033 18.6019L10.6037 18.597L10.605 18.576L10.6102 18.4931C10.6145 18.4211 10.6203 18.3179 10.6261 18.195C10.6377 17.9474 10.649 17.6278 10.649 17.3245V16.3954C10.649 15.527 10.3805 14.9635 9.94854 14.5965C9.49021 14.207 8.69774 13.911 7.41301 13.911H1V18.508H2.50309C3.08174 18.508 3.71175 18.6469 4.2018 19.0962C4.70745 19.5598 4.89905 20.2009 4.89905 20.8553V43.0378H10.8416L10.8416 30.3327C10.8416 28.8496 11.0461 27.4619 11.405 26.1718C12.4769 21.9975 15.4849 18.2293 20.1692 18.2293C21.2547 18.2293 22.1843 18.4324 22.9569 18.8536C23.738 19.2795 24.2962 19.8945 24.6837 20.613C25.4283 21.994 25.5496 23.781 25.5496 25.4547V43.0378H31.6365V30.3792C31.6365 28.8911 31.7836 27.4943 32.1996 26.1697C33.1392 22.0094 36.2558 18.2758 40.8678 18.2758C41.9238 18.2758 42.8377 18.4652 43.6056 18.865C44.3828 19.2696 44.9534 19.8604 45.3581 20.5679C46.1373 21.93 46.2964 23.7225 46.2964 25.5011V39.903C46.2964 41.2522 46.5887 41.9557 46.9957 42.3484C47.4112 42.7495 48.163 43.0378 49.5805 43.0378H54.8864V38.5337H54.683C54.0429 38.5337 53.4109 38.3519 52.9385 37.8843C52.4654 37.416 52.287 36.7941 52.287 36.1864V24.0145C52.287 20.0692 51.3455 17.3944 49.7702 15.7074C48.2063 14.0325 45.8639 13.1677 42.697 13.1677C37.981 13.1677 34.1416 16.0119 32.6707 19.06L32.3978 19.6253H30.9027L30.6761 18.9389C30.035 16.9975 29.0104 15.5913 27.6448 14.6607C26.2729 13.7258 24.4733 13.2142 22.1909 13.2142C17.5907 13.2142 14.0465 16.3186 12.6389 19.1207L12.362 19.6718H10.5294L10.6033 18.6029ZM115.297 16.4942L115.296 16.4918L115.29 16.4826C115.28 16.4675 115.261 16.4397 115.233 16.4009C115.177 16.3233 115.083 16.2021 114.947 16.0515C114.676 15.7505 114.237 15.3319 113.593 14.9073C112.315 14.0644 110.184 13.1677 106.863 13.1677C102.865 13.1677 99.4687 14.6657 97.0707 17.2854C94.6678 19.9105 93.2063 23.731 93.2294 28.4695L93.2294 28.4744C93.2294 33.1165 94.5811 36.9438 96.8887 39.5949C99.1849 42.2328 102.49 43.7811 106.574 43.7811C110.032 43.7811 112.331 42.6064 113.761 41.4671C114.481 40.8929 114.988 40.3212 115.312 39.8999C115.473 39.6896 115.587 39.5177 115.659 39.4033C115.695 39.3462 115.72 39.3036 115.735 39.2778C115.742 39.2649 115.747 39.2563 115.749 39.2522L115.751 39.2495L116.029 38.7172H117.779V40.8787C117.779 41.5886 117.981 42.0699 118.341 42.3913C118.721 42.7302 119.441 43.0378 120.774 43.0378H125.888V38.5337H125.684C125.056 38.5337 124.435 38.3453 123.967 37.8932C123.494 37.4369 123.288 36.8201 123.288 36.1864V4.82737C123.288 3.54267 122.992 2.82686 122.568 2.41383C122.137 1.99491 121.376 1.69263 120.004 1.69263L115.035 1.69263V6.29432C115.561 6.32181 116.113 6.4751 116.552 6.87777C117.058 7.34138 117.249 7.98254 117.249 8.63692V14.1654C117.249 14.6613 117.261 15.1016 117.273 15.4176C117.279 15.5754 117.285 15.7017 117.289 15.7878C117.291 15.8308 117.293 15.8638 117.294 15.8856L117.296 15.9154L117.296 15.9164L117.36 16.9773H115.584L115.298 16.4955L115.297 16.4942ZM116.251 14.5183C116.25 14.4045 116.249 14.2866 116.249 14.1654V8.63692C116.249 7.70776 115.72 7.28964 114.854 7.28964H114.035V0.692627L120.004 0.692627C122.989 0.692627 124.288 1.99345 124.288 4.82737V36.1864C124.288 37.0227 124.818 37.5337 125.684 37.5337H126.888V44.0378H120.774C118.042 44.0378 116.936 42.8716 116.795 41.2501C116.784 41.1288 116.779 41.0048 116.779 40.8787V39.7172H116.635C116.635 39.7172 116.379 40.2054 115.805 40.8787C115.797 40.8889 115.788 40.8991 115.779 40.9095C114.492 42.4065 111.65 44.7811 106.574 44.7811C97.8614 44.7811 92.2294 38.1376 92.2294 28.4744C92.1813 18.5789 98.3427 12.1677 106.863 12.1677C111.486 12.1677 114.047 13.8161 115.258 14.9443C115.888 15.5312 116.153 15.9773 116.153 15.9773H116.298C116.298 15.9773 116.296 15.9483 116.293 15.8942C116.285 15.7474 116.269 15.4155 116.259 14.9773C116.256 14.8346 116.253 14.6807 116.251 14.5183ZM143.613 33.1208C143.405 33.6871 143.244 34.105 143.184 34.2611C143.167 34.3049 143.158 34.3281 143.158 34.3281H143.013C143.013 34.3281 143.004 34.3049 142.987 34.261C142.926 34.1059 142.763 33.6927 142.542 33.1326C142.349 32.643 142.112 32.0412 141.858 31.4013L135.552 15.8379C134.734 13.7008 133.579 12.911 131.316 12.911H126.021V19.508H126.984C127.898 19.508 128.332 19.6939 128.717 20.623L139.499 44.0378L138.44 46.4071C137.333 49.0552 135.36 50.3561 133.145 50.3561C131.401 50.3561 129.959 49.4613 129.106 48.8423C128.951 48.7291 128.814 48.6252 128.7 48.5376C128.624 48.4798 128.557 48.429 128.501 48.3875C128.387 48.3044 128.314 48.2582 128.284 48.2654L125.203 53.7475C125.203 53.7475 128.332 56.9066 133.386 56.9066C138.2 56.9066 143.495 54.2585 145.757 48.6371L159.428 12.911H153.988C151.774 12.911 150.474 13.7008 149.704 15.8379L144.217 31.4013C144.004 32.0361 143.791 32.6334 143.613 33.1208ZM145.165 31.7191C145.164 31.7216 145.163 31.7241 145.162 31.7266C144.894 32.5267 144.626 33.2661 144.426 33.8054C144.325 34.0762 144.241 34.2972 144.182 34.451C144.153 34.528 144.13 34.5881 144.114 34.6293L144.095 34.6766L144.09 34.6891L144.089 34.6925L144.089 34.6934L143.839 35.3281H142.332L142.083 34.6939L142.082 34.6929L141.74 33.8237C141.53 33.2907 141.242 32.5611 140.93 31.7735C140.929 31.7722 140.929 31.7709 140.928 31.7696L134.622 16.2045L134.618 16.1955C134.247 15.2268 133.852 14.7021 133.408 14.3964C132.965 14.091 132.34 13.911 131.316 13.911H127.021V18.5081C127.506 18.5103 128.061 18.5579 128.564 18.8598C129.093 19.1779 129.405 19.677 129.633 20.2211L140.597 44.0316L139.358 46.8046C138.118 49.7593 135.819 51.3561 133.145 51.3561C131.536 51.3561 130.182 50.7203 129.25 50.1438C129.014 49.9978 128.8 49.8528 128.614 49.7195L126.476 53.5234C126.81 53.7837 127.286 54.1183 127.887 54.454C129.193 55.1834 131.071 55.9066 133.386 55.9066C137.856 55.9066 142.738 53.4503 144.826 48.2716C144.827 48.269 144.828 48.2664 144.829 48.2637L157.974 13.911H153.988C152.992 13.911 152.333 14.0899 151.859 14.4055C151.393 14.7155 150.984 15.2389 150.646 16.1743C150.646 16.1752 150.645 16.1761 150.645 16.1769L145.165 31.7191ZM108.366 39.277L108.355 39.2771C105.684 39.277 103.4 38.199 101.802 36.2661C100.218 34.3503 99.3644 31.6676 99.3644 28.5209C99.3644 25.2341 100.34 22.5659 102.001 20.706C103.667 18.8417 105.964 17.8576 108.451 17.8576C111.481 17.8576 113.77 19.2069 115.272 21.236C116.751 23.2339 117.442 25.8491 117.442 28.428C117.442 32.0588 116.396 34.776 114.679 36.5991C112.963 38.4205 110.669 39.2511 108.366 39.277ZM89.2077 28.4744C89.2077 19.5961 81.9072 13.1677 72.4935 13.1677C63.1297 13.1677 55.8274 19.5944 55.8274 28.4744C55.8274 37.3991 63.1277 43.7811 72.4935 43.7811C81.9092 43.7811 89.2077 37.3974 89.2077 28.4744ZM83.1208 28.4744C83.1208 34.8607 78.2654 39.1841 72.4935 39.1841C66.7663 39.1841 61.9143 34.8575 61.9143 28.4744C61.9143 22.1409 66.7631 17.7647 72.4935 17.7647C78.2687 17.7647 83.1208 22.1377 83.1208 28.4744ZM108.355 38.277C103.59 38.277 100.364 34.4675 100.364 28.5209C100.364 22.342 104.023 18.8576 108.451 18.8576C113.843 18.8576 116.442 23.5963 116.442 28.428C116.442 35.3037 112.495 38.2306 108.355 38.277ZM190.583 28.4744C190.583 19.5961 183.283 13.1677 173.869 13.1677C164.505 13.1677 157.203 19.5944 157.203 28.4744C157.203 37.3991 164.503 43.7811 173.869 43.7811C183.285 43.7811 190.583 37.3974 190.583 28.4744ZM184.496 28.4744C184.496 34.8607 179.641 39.1841 173.869 39.1841C168.142 39.1841 163.29 34.8575 163.29 28.4744C163.29 22.1409 168.138 17.7647 173.869 17.7647C179.644 17.7647 184.496 22.1377 184.496 28.4744ZM72.4935 12.1677C82.3614 12.1677 90.2077 18.9506 90.2077 28.4744C90.2077 38.0447 82.3614 44.7811 72.4935 44.7811C62.6736 44.7811 54.8274 38.0447 54.8274 28.4744C54.8274 18.9506 62.6736 12.1677 72.4935 12.1677ZM72.4935 38.1841C77.7403 38.1841 82.1208 34.2816 82.1208 28.4744C82.1208 22.7136 77.7403 18.7647 72.4935 18.7647C67.2947 18.7647 62.9143 22.7136 62.9143 28.4744C62.9143 34.2816 67.2947 38.1841 72.4935 38.1841ZM191.583 28.4744C191.583 18.9506 183.737 12.1677 173.869 12.1677C164.049 12.1677 156.203 18.9506 156.203 28.4744C156.203 38.0447 164.049 44.7811 173.869 44.7811C183.737 44.7811 191.583 38.0447 191.583 28.4744ZM183.496 28.4744C183.496 34.2816 179.116 38.1841 173.869 38.1841C168.67 38.1841 164.29 34.2816 164.29 28.4744C164.29 22.7136 168.67 18.7647 173.869 18.7647C179.116 18.7647 183.496 22.7136 183.496 28.4744Z" fill="#151F38"/>
</svg>
