<svg width="200" height="60" viewBox="0 0 200 60" fill="none" xmlns="http://www.w3.org/2000/svg">
<path d="M4.07035 21.7951C4.07035 20.8251 3.51759 20.3886 2.61307 20.3886H0V13.5018H7.73869C10.7035 13.5018 12.1608 14.8598 12.1608 17.1392V18.1092C12.1608 18.7882 12.1106 19.5157 12.1106 19.5157H12.2613C13.8693 16.3147 17.8894 12.7743 23.1658 12.7743C28.2412 12.7743 31.5578 15.0538 33.0151 19.4672H33.1658C34.8744 15.9267 39.2462 12.7258 44.5729 12.7258C51.5578 12.7258 55.6281 16.5572 55.6281 25.093V37.7998C55.6281 38.6727 56.1306 39.2062 57.0854 39.2062H58.3417V45.9961H51.7588C48.593 45.9961 47.2864 44.7351 47.2864 41.6797V26.645C47.2864 22.9591 46.5829 20.1462 42.6633 20.1462C38.4925 20.1462 35.5276 23.5411 34.6231 27.615C34.2211 28.876 34.0704 30.2339 34.0704 31.7374V45.9961H25.6281V26.5965C25.6281 23.1046 25.0754 20.0977 21.0553 20.0977C16.8342 20.0977 13.9698 23.4926 12.9146 27.615C12.5628 28.876 12.3618 30.2339 12.3618 31.6889V45.9961H4.07035V21.7951Z" fill="#151F38"/>
<path d="M75.6784 12.7258C85.9799 12.7258 94.1709 19.8067 94.1709 29.7489C94.1709 39.7397 85.9799 46.7721 75.6784 46.7721C65.4271 46.7721 57.2362 39.7397 57.2362 29.7489C57.2362 19.8067 65.4271 12.7258 75.6784 12.7258ZM75.6784 39.8852C81.1558 39.8852 85.7286 35.8113 85.7286 29.7489C85.7286 23.7351 81.1558 19.6127 75.6784 19.6127C70.2513 19.6127 65.6784 23.7351 65.6784 29.7489C65.6784 35.8113 70.2513 39.8852 75.6784 39.8852Z" fill="#151F38"/>
<path d="M111.558 12.7258C118.894 12.7258 121.256 16.7027 121.256 16.7027H121.407C121.407 16.7027 121.357 15.8782 121.357 14.8113V9.0399C121.357 8.06992 120.804 7.63343 119.899 7.63343H119.045V0.746582H125.276C128.392 0.746582 129.749 2.10455 129.749 5.06299V37.7998C129.749 38.6727 130.301 39.2062 131.206 39.2062H132.462V45.9961H126.08C123.015 45.9961 121.91 44.5896 121.91 42.6982C121.91 42.0192 121.91 41.4857 121.91 41.4857H121.759C121.759 41.4857 118.995 46.7721 111.256 46.7721C102.161 46.7721 96.2814 39.8367 96.2814 29.7489C96.2312 19.4187 102.663 12.7258 111.558 12.7258ZM121.558 29.7004C121.558 24.6566 118.844 19.7097 113.216 19.7097C108.593 19.7097 104.774 23.3471 104.774 29.7974C104.774 36.0053 108.141 39.9822 113.116 39.9822C117.437 39.9337 121.558 36.8783 121.558 29.7004Z" fill="#151F38"/>
<path d="M138.995 52.5919C141.307 52.5919 143.367 51.234 144.523 48.4695L145.628 45.9961L134.372 21.5526C133.97 20.5826 133.518 20.3886 132.563 20.3886H131.558V13.5018H137.085C139.447 13.5018 140.653 14.3263 141.508 16.5572L148.09 32.8044C148.744 34.4533 149.296 35.8598 149.296 35.8598H149.447C149.447 35.8598 150 34.4533 150.553 32.8044L156.281 16.5572C157.085 14.3263 158.442 13.5018 160.754 13.5018H166.432L152.161 50.7975C149.799 56.6658 144.271 59.4303 139.246 59.4303C133.97 59.4303 130.704 56.1324 130.704 56.1324L133.92 50.4095C134.121 50.361 136.181 52.5919 138.995 52.5919Z" fill="#151F38"/>
<path d="M181.508 12.7258C191.809 12.7258 200 19.8067 200 29.7489C200 39.7397 191.809 46.7721 181.508 46.7721C171.256 46.7721 163.065 39.7397 163.065 29.7489C163.065 19.8067 171.256 12.7258 181.508 12.7258ZM181.508 39.8852C186.985 39.8852 191.558 35.8113 191.558 29.7489C191.558 23.7351 186.985 19.6127 181.508 19.6127C176.08 19.6127 171.508 23.7351 171.508 29.7489C171.508 35.8113 176.08 39.8852 181.508 39.8852Z" fill="#151F38"/>
</svg>
