<svg width="208" height="104" viewBox="0 0 208 104" fill="none" xmlns="http://www.w3.org/2000/svg">
<path d="M196.599 15.4413C192.788 10.8009 186.106 9.7177 181.245 12.8695C189.043 14.4363 195.308 19.9394 197.354 27.9995C197.4 28.1796 197.446 28.3597 197.492 28.5398C199.968 24.6035 199.819 19.3209 196.599 15.4413Z" fill="#0EBD74"/>
<path d="M8.74191 67.9411C8.51321 67.0405 7.89708 66.7656 7.05728 66.9789L4.63119 67.595L3.00742 61.2009L10.1924 59.3763C12.945 58.6772 14.6182 59.5944 15.1557 61.7108L15.3844 62.6113C15.5445 63.2417 15.6693 63.929 15.6693 63.929L15.8093 63.8935C16.5476 60.5425 19.4452 56.3075 24.3441 55.0635C29.0563 53.8668 32.673 55.2011 35.0666 58.9551L35.2066 58.9196C35.9581 55.2297 39.2624 51.227 44.2079 49.9711C50.693 48.3242 55.3755 50.9217 57.388 58.8468L60.384 70.6442C60.5898 71.4547 61.1822 71.8316 62.0686 71.6065L63.235 71.3103L64.8359 77.6143L58.7241 79.1664C55.7848 79.9128 54.2744 79.0501 53.554 76.2133L50.0091 62.2545C49.1401 58.8323 47.8237 56.3865 44.1845 57.3107C40.3121 58.2941 38.3599 62.1451 38.4807 66.1408C38.4047 67.4063 38.5849 68.7027 38.9394 70.0986L42.3013 83.3369L34.4632 85.3274L29.8892 67.316C29.0659 64.074 27.8437 61.4125 24.1112 62.3604C20.1922 63.3556 18.3333 67.183 18.3255 71.2592C18.2962 72.5129 18.4298 73.8211 18.7728 75.1719L22.1462 88.4554L14.448 90.4103L8.74191 67.9411Z" fill="#151F38"/>
<path d="M73.0876 42.637C82.652 40.2082 91.9264 44.8511 94.2706 54.0819C96.6262 63.3578 90.6794 71.8182 81.115 74.2471C71.5973 76.6641 62.3344 72.0662 59.9788 62.7904C57.6346 53.5595 63.5699 45.0541 73.0876 42.637ZM79.4913 67.853C84.5767 66.5616 87.8618 61.701 86.4324 56.0724C85.0145 50.4889 79.7969 47.7396 74.7114 49.0311C69.6726 50.3107 66.3989 55.2163 67.8169 60.7999C69.2463 66.4284 74.4525 69.1326 79.4913 67.853Z" fill="#151F38"/>
<path d="M106.4 34.1774C113.211 32.4476 116.342 35.5831 116.342 35.5831L116.482 35.5475C116.482 35.5475 116.241 34.7939 115.989 33.8032L114.628 28.4448C114.4 27.5443 113.784 27.2693 112.944 27.4826L112.151 27.684L110.527 21.29L116.312 19.8208C119.205 19.0862 120.785 20.0271 121.482 22.7739L129.201 53.1681C129.407 53.9786 130.046 54.3436 130.885 54.1304L132.052 53.8341L133.653 60.1381L127.728 61.6429C124.882 62.3656 123.524 61.3204 123.078 59.5643C122.917 58.9339 122.792 58.4386 122.792 58.4386L122.652 58.4742C122.652 58.4742 121.332 64.0339 114.147 65.8585C105.702 68.0031 98.6086 62.9502 96.2301 53.5843C93.7478 44.0051 98.1416 36.2746 106.4 34.1774ZM119.686 47.5796C118.497 42.8966 114.811 38.9435 109.586 40.2705C105.294 41.3606 102.605 45.6382 104.126 51.627C105.59 57.3906 109.654 60.2891 114.272 59.1162C118.273 58.0522 121.379 54.2438 119.686 47.5796Z" fill="#151F38"/>
<path d="M141.273 64.7218C143.419 64.1767 145.012 62.4302 145.433 59.591L145.877 57.0339L129.662 36.9935C129.06 36.1877 128.595 36.1143 127.708 36.3394L126.775 36.5763L125.151 30.1823L130.284 28.879C132.476 28.3221 133.791 28.8032 135.11 30.6731L145.052 44.2056C146.048 45.5825 146.892 46.758 146.892 46.758L147.032 46.7225C147.032 46.7225 147.214 45.2863 147.338 43.625L148.826 27.1898C149.047 24.9289 150.112 23.8435 152.258 23.2985L157.53 21.9596L153.074 59.9515C152.265 65.9568 147.784 69.8267 143.119 71.0115C138.22 72.2556 134.41 69.9638 134.41 69.9638L136.046 63.8921C136.222 63.7997 138.66 65.3853 141.273 64.7218Z" fill="#151F38"/>
<path d="M171.344 17.6847C180.908 15.2558 190.183 19.8987 192.527 29.1296C194.883 38.4055 188.936 46.8659 179.372 49.2947C169.854 51.7118 160.591 47.1139 158.235 37.838C155.891 28.6072 161.826 20.1017 171.344 17.6847ZM177.748 42.9007C182.833 41.6092 186.118 36.7486 184.689 31.1201C183.271 25.5365 178.053 22.7873 172.968 24.0788C167.929 25.3584 164.655 30.264 166.073 35.8475C167.503 41.4761 172.709 44.1803 177.748 42.9007Z" fill="#151F38"/>
</svg>
