<svg width="200" height="57" viewBox="0 0 200 57" fill="none" xmlns="http://www.w3.org/2000/svg">
<path d="M198.899 15.5229C196.347 10.0873 190.138 7.39275 184.65 9.25107C191.823 12.6889 196.54 19.5647 196.54 27.8807C196.54 28.0665 196.54 28.2523 196.54 28.4382C199.909 25.2326 201.065 20.0757 198.899 15.5229Z" fill="url(#paint0_linear)"/>
<path d="M3.89905 20.1686C3.89905 19.2394 3.36955 18.8213 2.50309 18.8213H0V12.2243H7.41301C10.2531 12.2243 11.649 13.5251 11.649 15.7086V16.6378C11.649 17.2882 11.6009 17.985 11.6009 17.985H11.7453C13.2857 14.9188 17.1366 11.5274 22.1909 11.5274C27.0527 11.5274 30.2297 13.7109 31.6256 17.9386H31.77C33.4067 14.5472 37.5945 11.4809 42.697 11.4809C49.388 11.4809 53.287 15.1511 53.287 23.3277V35.4996C53.287 36.3359 53.7684 36.8469 54.683 36.8469H55.8864V43.351H49.5805C46.5479 43.351 45.2964 42.1431 45.2964 39.2163V24.8143C45.2964 21.2835 44.6225 18.589 40.8678 18.589C36.8725 18.589 34.0325 21.841 33.166 25.7435C32.7809 26.9514 32.6365 28.2522 32.6365 29.6924V43.351H24.5496V24.7679C24.5496 21.4229 24.0201 18.5425 20.1692 18.5425C16.1257 18.5425 13.3819 21.7946 12.3711 25.7435C12.0341 26.9514 11.8416 28.2522 11.8416 29.646V43.351H3.89905V20.1686Z" fill="url(#paint1_linear)"/>
<path d="M72.4935 11.4809C82.3614 11.4809 90.2077 18.2638 90.2077 27.7876C90.2077 37.358 82.3614 44.0943 72.4935 44.0943C62.6736 44.0943 54.8274 37.358 54.8274 27.7876C54.8274 18.2638 62.6736 11.4809 72.4935 11.4809ZM72.4935 37.4973C77.7403 37.4973 82.1208 33.5949 82.1208 27.7876C82.1208 22.0269 77.7403 18.078 72.4935 18.078C67.2947 18.078 62.9143 22.0269 62.9143 27.7876C62.9143 33.5949 67.2947 37.4973 72.4935 37.4973Z" fill="url(#paint2_linear)"/>
<path d="M106.863 11.4809C113.891 11.4809 116.153 15.2905 116.153 15.2905H116.298C116.298 15.2905 116.249 14.5007 116.249 13.4786V7.95015C116.249 7.02099 115.72 6.60287 114.854 6.60287H114.035V0.00585938H120.004C122.989 0.00585938 124.288 1.30668 124.288 4.14061V35.4996C124.288 36.3359 124.818 36.8469 125.684 36.8469H126.888V43.351H120.774C117.838 43.351 116.779 42.0037 116.779 40.1919C116.779 39.5415 116.779 39.0304 116.779 39.0304H116.635C116.635 39.0304 113.987 44.0943 106.574 44.0943C97.8614 44.0943 92.2294 37.4509 92.2294 27.7876C92.1813 17.8921 98.3427 11.4809 106.863 11.4809ZM116.442 27.7412C116.442 22.9096 113.843 18.1709 108.451 18.1709C104.023 18.1709 100.364 21.6552 100.364 27.8341C100.364 33.7807 103.59 37.5902 108.355 37.5902C112.495 37.5438 116.442 34.6169 116.442 27.7412Z" fill="url(#paint3_linear)"/>
<path d="M133.145 49.6693C135.36 49.6693 137.333 48.3685 138.44 45.7204L139.499 43.351L128.717 19.9363C128.332 19.0071 127.898 18.8213 126.984 18.8213H126.021V12.2243H131.316C133.579 12.2243 134.734 13.0141 135.552 15.1511L141.858 30.7145C142.484 32.2941 143.013 33.6413 143.013 33.6413H143.158C143.158 33.6413 143.687 32.2941 144.217 30.7145L149.704 15.1511C150.474 13.0141 151.774 12.2243 153.988 12.2243H159.428L145.757 47.9503C143.495 53.5717 138.2 56.2198 133.386 56.2198C128.332 56.2198 125.203 53.0607 125.203 53.0607L128.284 47.5787C128.476 47.5322 130.45 49.6693 133.145 49.6693Z" fill="url(#paint4_linear)"/>
<path d="M173.869 11.4809C183.737 11.4809 191.583 18.2638 191.583 27.7876C191.583 37.358 183.737 44.0943 173.869 44.0943C164.049 44.0943 156.203 37.358 156.203 27.7876C156.203 18.2638 164.049 11.4809 173.869 11.4809ZM173.869 37.4973C179.116 37.4973 183.496 33.5949 183.496 27.7876C183.496 22.0269 179.116 18.078 173.869 18.078C168.67 18.078 164.29 22.0269 164.29 27.7876C164.29 33.5949 168.67 37.4973 173.869 37.4973Z" fill="url(#paint5_linear)"/>
<defs>
<linearGradient id="paint0_linear" x1="192.325" y1="8.66577" x2="192.325" y2="28.4382" gradientUnits="userSpaceOnUse">
<stop stop-color="#61A60E"/>
<stop offset="1" stop-color="#61A60E" stop-opacity="0"/>
</linearGradient>
<linearGradient id="paint1_linear" x1="95.7915" y1="0.00585937" x2="95.7915" y2="56.2198" gradientUnits="userSpaceOnUse">
<stop stop-color="#393F4C"/>
<stop offset="1" stop-color="#393F4C" stop-opacity="0"/>
</linearGradient>
<linearGradient id="paint2_linear" x1="95.7915" y1="0.00585937" x2="95.7915" y2="56.2198" gradientUnits="userSpaceOnUse">
<stop stop-color="#393F4C"/>
<stop offset="1" stop-color="#393F4C" stop-opacity="0"/>
</linearGradient>
<linearGradient id="paint3_linear" x1="95.7915" y1="0.00585937" x2="95.7915" y2="56.2198" gradientUnits="userSpaceOnUse">
<stop stop-color="#393F4C"/>
<stop offset="1" stop-color="#393F4C" stop-opacity="0"/>
</linearGradient>
<linearGradient id="paint4_linear" x1="95.7915" y1="0.00585937" x2="95.7915" y2="56.2198" gradientUnits="userSpaceOnUse">
<stop stop-color="#393F4C"/>
<stop offset="1" stop-color="#393F4C" stop-opacity="0"/>
</linearGradient>
<linearGradient id="paint5_linear" x1="95.7915" y1="0.00585937" x2="95.7915" y2="56.2198" gradientUnits="userSpaceOnUse">
<stop stop-color="#393F4C"/>
<stop offset="1" stop-color="#393F4C" stop-opacity="0"/>
</linearGradient>
</defs>
</svg>
