<svg width="160" height="56" viewBox="0 0 160 56" fill="none" xmlns="http://www.w3.org/2000/svg">
<path d="M158.442 12.9013C155.508 6.65039 148.367 3.55165 142.057 5.68871C150.305 9.64228 155.73 17.5494 155.73 27.1127C155.73 27.3265 155.73 27.5402 155.73 27.7539C159.605 24.0674 160.933 18.1371 158.442 12.9013Z" fill="#0EBD74"/>
<path d="M27.6 12.6156C28.6133 12.6156 29.44 12.949 30.08 13.6156C30.72 14.2823 31.04 15.149 31.04 16.2156V37.9756C31.04 38.989 30.7467 39.789 30.16 40.3756C29.5733 40.9623 28.8 41.2556 27.84 41.2556C26.9067 41.2556 26.1333 40.9623 25.52 40.3756C24.9333 39.789 24.64 38.989 24.64 37.9756V26.2156L20.08 34.6156C19.6267 35.469 19.1467 36.0823 18.64 36.4556C18.1333 36.8023 17.5333 36.9756 16.84 36.9756C16.1467 36.9756 15.5467 36.8023 15.04 36.4556C14.5333 36.0823 14.0533 35.469 13.6 34.6156L9.08 26.4556V37.9756C9.08 38.9623 8.77333 39.7623 8.16 40.3756C7.57333 40.9623 6.8 41.2556 5.84 41.2556C4.90667 41.2556 4.13333 40.9623 3.52 40.3756C2.93333 39.789 2.64 38.989 2.64 37.9756V16.2156C2.64 15.149 2.96 14.2823 3.6 13.6156C4.26667 12.949 5.10667 12.6156 6.12 12.6156C6.84 12.6156 7.49333 12.829 8.08 13.2556C8.66667 13.6556 9.16 14.2423 9.56 15.0156L16.92 28.8556L24.24 15.0156C25.0667 13.4156 26.1867 12.6156 27.6 12.6156ZM49.6319 41.3756C46.7519 41.3756 44.2452 40.789 42.1119 39.6156C40.0052 38.4156 38.3785 36.7356 37.2319 34.5756C36.0852 32.389 35.5119 29.829 35.5119 26.8956C35.5119 23.9623 36.0852 21.4156 37.2319 19.2556C38.3785 17.069 40.0052 15.389 42.1119 14.2156C44.2452 13.0423 46.7519 12.4556 49.6319 12.4556C52.5119 12.4556 55.0052 13.0423 57.1119 14.2156C59.2452 15.389 60.8719 17.069 61.9919 19.2556C63.1385 21.4156 63.7119 23.9623 63.7119 26.8956C63.7119 29.829 63.1385 32.389 61.9919 34.5756C60.8452 36.7356 59.2052 38.4156 57.0719 39.6156C54.9652 40.789 52.4852 41.3756 49.6319 41.3756ZM49.6319 35.7356C51.7652 35.7356 53.4319 34.989 54.6319 33.4956C55.8319 31.9756 56.4319 29.7756 56.4319 26.8956C56.4319 24.0156 55.8185 21.829 54.5919 20.3356C53.3919 18.8423 51.7385 18.0956 49.6319 18.0956C47.4985 18.0956 45.8319 18.8423 44.6319 20.3356C43.4319 21.8023 42.8319 23.989 42.8319 26.8956C42.8319 29.8023 43.4319 32.0023 44.6319 33.4956C45.8319 34.989 47.4985 35.7356 49.6319 35.7356ZM71.4678 41.0156C70.3745 41.0156 69.5345 40.7223 68.9478 40.1356C68.3611 39.549 68.0678 38.709 68.0678 37.6156V16.2156C68.0678 15.1223 68.3611 14.2823 68.9478 13.6956C69.5345 13.109 70.3745 12.8156 71.4678 12.8156H79.5478C82.6678 12.8156 85.3478 13.389 87.5878 14.5356C89.8545 15.6556 91.5878 17.269 92.7878 19.3756C93.9878 21.4823 94.5878 23.989 94.5878 26.8956C94.5878 29.829 93.9878 32.3623 92.7878 34.4956C91.6145 36.6023 89.8945 38.2156 87.6278 39.3356C85.3878 40.4556 82.6945 41.0156 79.5478 41.0156H71.4678ZM79.0278 35.0956C81.7745 35.0956 83.8278 34.429 85.1878 33.0956C86.5745 31.7356 87.2678 29.669 87.2678 26.8956C87.2678 24.1223 86.5745 22.069 85.1878 20.7356C83.8278 19.4023 81.7745 18.7356 79.0278 18.7356H75.4278V35.0956H79.0278ZM114.963 13.7756C115.656 12.9756 116.469 12.5756 117.403 12.5756C118.283 12.5756 119.069 12.9223 119.763 13.6156C120.483 14.2823 120.843 15.0556 120.843 15.9356C120.843 16.709 120.549 17.4423 119.963 18.1356L111.563 27.8556V37.6156C111.563 38.789 111.216 39.6956 110.523 40.3356C109.856 40.949 108.989 41.2556 107.923 41.2556C106.829 41.2556 105.936 40.949 105.243 40.3356C104.549 39.6956 104.203 38.789 104.203 37.6156V27.8556L95.8828 18.1356C95.2695 17.4423 94.9628 16.6956 94.9628 15.8956C94.9628 15.0156 95.3095 14.2423 96.0028 13.5756C96.6961 12.909 97.4828 12.5756 98.3628 12.5756C99.2961 12.5756 100.109 12.9756 100.803 13.7756L107.883 22.1756L114.963 13.7756ZM135.296 41.3756C132.416 41.3756 129.909 40.789 127.776 39.6156C125.669 38.4156 124.043 36.7356 122.896 34.5756C121.749 32.389 121.176 29.829 121.176 26.8956C121.176 23.9623 121.749 21.4156 122.896 19.2556C124.043 17.069 125.669 15.389 127.776 14.2156C129.909 13.0423 132.416 12.4556 135.296 12.4556C138.176 12.4556 140.669 13.0423 142.776 14.2156C144.909 15.389 146.536 17.069 147.656 19.2556C148.803 21.4156 149.376 23.9623 149.376 26.8956C149.376 29.829 148.803 32.389 147.656 34.5756C146.509 36.7356 144.869 38.4156 142.736 39.6156C140.629 40.789 138.149 41.3756 135.296 41.3756ZM135.296 35.7356C137.429 35.7356 139.096 34.989 140.296 33.4956C141.496 31.9756 142.096 29.7756 142.096 26.8956C142.096 24.0156 141.483 21.829 140.256 20.3356C139.056 18.8423 137.403 18.0956 135.296 18.0956C133.163 18.0956 131.496 18.8423 130.296 20.3356C129.096 21.8023 128.496 23.989 128.496 26.8956C128.496 29.8023 129.096 32.0023 130.296 33.4956C131.496 34.989 133.163 35.7356 135.296 35.7356Z" fill="#151F38"/>
</svg>
