<svg width="160" height="56" viewBox="0 0 160 56" fill="none" xmlns="http://www.w3.org/2000/svg">
<path d="M158.442 13.1606C155.508 6.90967 148.367 3.81093 142.057 5.94799C150.305 9.90155 155.73 17.8087 155.73 27.372C155.73 27.5857 155.73 27.7994 155.73 28.0131C159.605 24.3267 160.933 18.3964 158.442 13.1606Z" fill="#61A60E"/>
<path d="M27.6 12.8749C28.6133 12.8749 29.44 13.2082 30.08 13.8749C30.72 14.5416 31.04 15.4082 31.04 16.4749V38.2349C31.04 39.2482 30.7467 40.0482 30.16 40.6349C29.5733 41.2216 28.8 41.5149 27.84 41.5149C26.9067 41.5149 26.1333 41.2216 25.52 40.6349C24.9333 40.0482 24.64 39.2482 24.64 38.2349V26.4749L20.08 34.8749C19.6267 35.7282 19.1467 36.3416 18.64 36.7149C18.1333 37.0616 17.5333 37.2349 16.84 37.2349C16.1467 37.2349 15.5467 37.0616 15.04 36.7149C14.5333 36.3416 14.0533 35.7282 13.6 34.8749L9.08 26.7149V38.2349C9.08 39.2216 8.77333 40.0216 8.16 40.6349C7.57333 41.2216 6.8 41.5149 5.84 41.5149C4.90667 41.5149 4.13333 41.2216 3.52 40.6349C2.93333 40.0482 2.64 39.2482 2.64 38.2349V16.4749C2.64 15.4082 2.96 14.5416 3.6 13.8749C4.26667 13.2082 5.10667 12.8749 6.12 12.8749C6.84 12.8749 7.49333 13.0882 8.08 13.5149C8.66667 13.9149 9.16 14.5016 9.56 15.2749L16.92 29.1149L24.24 15.2749C25.0667 13.6749 26.1867 12.8749 27.6 12.8749ZM49.6319 41.6349C46.7519 41.6349 44.2452 41.0482 42.1119 39.8749C40.0052 38.6749 38.3785 36.9949 37.2319 34.8349C36.0852 32.6482 35.5119 30.0882 35.5119 27.1549C35.5119 24.2216 36.0852 21.6749 37.2319 19.5149C38.3785 17.3282 40.0052 15.6482 42.1119 14.4749C44.2452 13.3016 46.7519 12.7149 49.6319 12.7149C52.5119 12.7149 55.0052 13.3016 57.1119 14.4749C59.2452 15.6482 60.8719 17.3282 61.9919 19.5149C63.1385 21.6749 63.7119 24.2216 63.7119 27.1549C63.7119 30.0882 63.1385 32.6482 61.9919 34.8349C60.8452 36.9949 59.2052 38.6749 57.0719 39.8749C54.9652 41.0482 52.4852 41.6349 49.6319 41.6349ZM49.6319 35.9949C51.7652 35.9949 53.4319 35.2482 54.6319 33.7549C55.8319 32.2349 56.4319 30.0349 56.4319 27.1549C56.4319 24.2749 55.8185 22.0882 54.5919 20.5949C53.3919 19.1016 51.7385 18.3549 49.6319 18.3549C47.4985 18.3549 45.8319 19.1016 44.6319 20.5949C43.4319 22.0616 42.8319 24.2482 42.8319 27.1549C42.8319 30.0616 43.4319 32.2616 44.6319 33.7549C45.8319 35.2482 47.4985 35.9949 49.6319 35.9949ZM71.4678 41.2749C70.3745 41.2749 69.5345 40.9816 68.9478 40.3949C68.3611 39.8082 68.0678 38.9682 68.0678 37.8749V16.4749C68.0678 15.3816 68.3611 14.5416 68.9478 13.9549C69.5345 13.3682 70.3745 13.0749 71.4678 13.0749H79.5478C82.6678 13.0749 85.3478 13.6482 87.5878 14.7949C89.8545 15.9149 91.5878 17.5282 92.7878 19.6349C93.9878 21.7416 94.5878 24.2482 94.5878 27.1549C94.5878 30.0882 93.9878 32.6216 92.7878 34.7549C91.6145 36.8616 89.8945 38.4749 87.6278 39.5949C85.3878 40.7149 82.6945 41.2749 79.5478 41.2749H71.4678ZM79.0278 35.3549C81.7745 35.3549 83.8278 34.6882 85.1878 33.3549C86.5745 31.9949 87.2678 29.9282 87.2678 27.1549C87.2678 24.3816 86.5745 22.3282 85.1878 20.9949C83.8278 19.6616 81.7745 18.9949 79.0278 18.9949H75.4278V35.3549H79.0278ZM114.963 14.0349C115.656 13.2349 116.469 12.8349 117.403 12.8349C118.283 12.8349 119.069 13.1816 119.763 13.8749C120.483 14.5416 120.843 15.3149 120.843 16.1949C120.843 16.9682 120.549 17.7016 119.963 18.3949L111.563 28.1149V37.8749C111.563 39.0482 111.216 39.9549 110.523 40.5949C109.856 41.2082 108.989 41.5149 107.923 41.5149C106.829 41.5149 105.936 41.2082 105.243 40.5949C104.549 39.9549 104.203 39.0482 104.203 37.8749V28.1149L95.8828 18.3949C95.2695 17.7016 94.9628 16.9549 94.9628 16.1549C94.9628 15.2749 95.3095 14.5016 96.0028 13.8349C96.6961 13.1682 97.4828 12.8349 98.3628 12.8349C99.2961 12.8349 100.109 13.2349 100.803 14.0349L107.883 22.4349L114.963 14.0349ZM135.296 41.6349C132.416 41.6349 129.909 41.0482 127.776 39.8749C125.669 38.6749 124.043 36.9949 122.896 34.8349C121.749 32.6482 121.176 30.0882 121.176 27.1549C121.176 24.2216 121.749 21.6749 122.896 19.5149C124.043 17.3282 125.669 15.6482 127.776 14.4749C129.909 13.3016 132.416 12.7149 135.296 12.7149C138.176 12.7149 140.669 13.3016 142.776 14.4749C144.909 15.6482 146.536 17.3282 147.656 19.5149C148.803 21.6749 149.376 24.2216 149.376 27.1549C149.376 30.0882 148.803 32.6482 147.656 34.8349C146.509 36.9949 144.869 38.6749 142.736 39.8749C140.629 41.0482 138.149 41.6349 135.296 41.6349ZM135.296 35.9949C137.429 35.9949 139.096 35.2482 140.296 33.7549C141.496 32.2349 142.096 30.0349 142.096 27.1549C142.096 24.2749 141.483 22.0882 140.256 20.5949C139.056 19.1016 137.403 18.3549 135.296 18.3549C133.163 18.3549 131.496 19.1016 130.296 20.5949C129.096 22.0616 128.496 24.2482 128.496 27.1549C128.496 30.0616 129.096 32.2616 130.296 33.7549C131.496 35.2482 133.163 35.9949 135.296 35.9949Z" fill="black"/>
</svg>
