<svg width="200" height="57" viewBox="0 0 200 57" fill="none" xmlns="http://www.w3.org/2000/svg">
<path d="M198.899 15.7919C196.347 10.3564 190.138 7.6618 184.65 9.52011C191.823 12.958 196.54 19.8337 196.54 28.1497C196.54 28.3355 196.54 28.5214 196.54 28.7072C199.909 25.5016 201.065 20.3448 198.899 15.7919Z" fill="#31B6B7"/>
<path d="M3.89905 20.4376C3.89905 19.5084 3.36955 19.0903 2.50309 19.0903H0L0 12.4933H7.41301C10.2531 12.4933 11.649 13.7941 11.649 15.9776V16.9068C11.649 17.5572 11.6009 18.2541 11.6009 18.2541H11.7453C13.2857 15.1879 17.1366 11.7964 22.1909 11.7964C27.0527 11.7964 30.2297 13.98 31.6256 18.2076H31.77C33.4067 14.8162 37.5945 11.75 42.697 11.75C49.388 11.75 53.287 15.4202 53.287 23.5967V35.7687C53.287 36.6049 53.7684 37.116 54.683 37.116H55.8864V43.6201H49.5805C46.5479 43.6201 45.2964 42.4122 45.2964 39.4853V25.0834C45.2964 21.5526 44.6225 18.858 40.8678 18.858C36.8725 18.858 34.0325 22.1101 33.166 26.0125C32.7809 27.2204 32.6365 28.5213 32.6365 29.9615V43.6201H24.5496V25.0369C24.5496 21.692 24.0201 18.8116 20.1692 18.8116C16.1257 18.8116 13.3819 22.0636 12.3711 26.0125C12.0341 27.2204 11.8416 28.5213 11.8416 29.915L11.8416 43.6201H3.89905L3.89905 20.4376Z" fill="#31B6B7"/>
<path d="M72.4935 11.75C82.3614 11.75 90.2077 18.5328 90.2077 28.0567C90.2077 37.627 82.3614 44.3634 72.4935 44.3634C62.6736 44.3634 54.8274 37.627 54.8274 28.0567C54.8274 18.5328 62.6736 11.75 72.4935 11.75ZM72.4935 37.7664C77.7403 37.7664 82.1208 33.8639 82.1208 28.0567C82.1208 22.2959 77.7403 18.347 72.4935 18.347C67.2947 18.347 62.9143 22.2959 62.9143 28.0567C62.9143 33.8639 67.2947 37.7664 72.4935 37.7664Z" fill="#31B6B7"/>
<path d="M106.863 11.75C113.891 11.75 116.153 15.5595 116.153 15.5595H116.298C116.298 15.5595 116.249 14.7697 116.249 13.7477V8.21919C116.249 7.29003 115.72 6.87191 114.854 6.87191H114.035V0.274902L120.004 0.274902C122.989 0.274902 124.288 1.57572 124.288 4.40965V35.7687C124.288 36.6049 124.818 37.116 125.684 37.116H126.888V43.6201H120.774C117.838 43.6201 116.779 42.2728 116.779 40.4609C116.779 39.8105 116.779 39.2995 116.779 39.2995H116.635C116.635 39.2995 113.987 44.3634 106.574 44.3634C97.8614 44.3634 92.2294 37.7199 92.2294 28.0567C92.1813 18.1612 98.3427 11.75 106.863 11.75ZM116.442 28.0102C116.442 23.1786 113.843 18.4399 108.451 18.4399C104.023 18.4399 100.364 21.9243 100.364 28.1031C100.364 34.0497 103.59 37.8593 108.355 37.8593C112.495 37.8128 116.442 34.886 116.442 28.0102Z" fill="#31B6B7"/>
<path d="M133.145 49.9383C135.36 49.9383 137.333 48.6375 138.44 45.9894L139.499 43.6201L128.717 20.2053C128.332 19.2762 127.898 19.0903 126.984 19.0903H126.021V12.4933H131.316C133.579 12.4933 134.734 13.2831 135.552 15.4202L141.858 30.9835C142.484 32.5631 143.013 33.9104 143.013 33.9104H143.158C143.158 33.9104 143.687 32.5631 144.217 30.9835L149.704 15.4202C150.474 13.2831 151.774 12.4933 153.988 12.4933H159.428L145.757 48.2194C143.495 53.8408 138.2 56.4889 133.386 56.4889C128.332 56.4889 125.203 53.3297 125.203 53.3297L128.284 47.8477C128.476 47.8013 130.45 49.9383 133.145 49.9383Z" fill="#31B6B7"/>
<path d="M173.869 11.75C183.737 11.75 191.583 18.5328 191.583 28.0567C191.583 37.627 183.737 44.3634 173.869 44.3634C164.049 44.3634 156.203 37.627 156.203 28.0567C156.203 18.5328 164.049 11.75 173.869 11.75ZM173.869 37.7664C179.116 37.7664 183.496 33.8639 183.496 28.0567C183.496 22.2959 179.116 18.347 173.869 18.347C168.67 18.347 164.29 22.2959 164.29 28.0567C164.29 33.8639 168.67 37.7664 173.869 37.7664Z" fill="#31B6B7"/>
</svg>
