<svg width="200" height="59" viewBox="0 0 200 59" fill="none" xmlns="http://www.w3.org/2000/svg">
<path d="M4.07035 21.0544C4.07035 20.0844 3.51759 19.6479 2.61307 19.6479H0V12.7611H7.73869C10.7035 12.7611 12.1608 14.119 12.1608 16.3985V17.3685C12.1608 18.0475 12.1106 18.7749 12.1106 18.7749H12.2613C13.8693 15.574 17.8894 12.0336 23.1658 12.0336C28.2412 12.0336 31.5578 14.313 33.0151 18.7264H33.1658C34.8744 15.186 39.2462 11.9851 44.5729 11.9851C51.5578 11.9851 55.6281 15.8165 55.6281 24.3523V37.059C55.6281 37.932 56.1306 38.4655 57.0854 38.4655H58.3417V45.2554H51.7588C48.593 45.2554 47.2864 43.9944 47.2864 40.939V25.9043C47.2864 22.2184 46.5829 19.4054 42.6633 19.4054C38.4925 19.4054 35.5276 22.8004 34.6231 26.8743C34.2211 28.1352 34.0704 29.4932 34.0704 30.9967V45.2554H25.6281V25.8558C25.6281 22.3639 25.0754 19.3569 21.0553 19.3569C16.8342 19.3569 13.9698 22.7519 12.9146 26.8743C12.5628 28.1352 12.3618 29.4932 12.3618 30.9482V45.2554H4.07035V21.0544Z" fill="#393F4C"/>
<path d="M75.6784 11.9851C85.9799 11.9851 94.1709 19.0659 94.1709 29.0082C94.1709 38.999 85.9799 46.0313 75.6784 46.0313C65.4271 46.0313 57.2362 38.999 57.2362 29.0082C57.2362 19.0659 65.4271 11.9851 75.6784 11.9851ZM75.6784 39.1445C81.1558 39.1445 85.7286 35.0706 85.7286 29.0082C85.7286 22.9943 81.1558 18.8719 75.6784 18.8719C70.2513 18.8719 65.6784 22.9943 65.6784 29.0082C65.6784 35.0706 70.2513 39.1445 75.6784 39.1445Z" fill="#393F4C"/>
<path d="M111.558 11.9851C118.894 11.9851 121.256 15.962 121.256 15.962H121.407C121.407 15.962 121.357 15.1375 121.357 14.0705V8.29918C121.357 7.3292 120.804 6.89271 119.899 6.89271H119.045V0.00585938H125.276C128.392 0.00585938 129.749 1.36383 129.749 4.32226V37.059C129.749 37.932 130.301 38.4655 131.206 38.4655H132.462V45.2554H126.08C123.015 45.2554 121.91 43.8489 121.91 41.9574C121.91 41.2784 121.91 40.745 121.91 40.745H121.759C121.759 40.745 118.995 46.0313 111.256 46.0313C102.161 46.0313 96.2814 39.096 96.2814 29.0082C96.2312 18.6779 102.663 11.9851 111.558 11.9851ZM121.558 28.9597C121.558 23.9158 118.844 18.9689 113.216 18.9689C108.593 18.9689 104.774 22.6064 104.774 29.0567C104.774 35.2646 108.141 39.2415 113.116 39.2415C117.437 39.193 121.558 36.1376 121.558 28.9597Z" fill="#393F4C"/>
<path d="M138.995 51.8512C141.307 51.8512 143.367 50.4932 144.523 47.7288L145.628 45.2554L134.372 20.8119C133.97 19.8419 133.518 19.6479 132.563 19.6479H131.558V12.7611H137.085C139.447 12.7611 140.653 13.5856 141.508 15.8165L148.09 32.0636C148.744 33.7126 149.296 35.1191 149.296 35.1191H149.447C149.447 35.1191 150 33.7126 150.553 32.0636L156.281 15.8165C157.085 13.5856 158.442 12.7611 160.754 12.7611H166.432L152.161 50.0567C149.799 55.9251 144.271 58.6896 139.246 58.6896C133.97 58.6896 130.704 55.3916 130.704 55.3916L133.92 49.6688C134.121 49.6203 136.181 51.8512 138.995 51.8512Z" fill="#393F4C"/>
<path d="M181.508 11.9851C191.809 11.9851 200 19.0659 200 29.0082C200 38.999 191.809 46.0313 181.508 46.0313C171.256 46.0313 163.065 38.999 163.065 29.0082C163.065 19.0659 171.256 11.9851 181.508 11.9851ZM181.508 39.1445C186.985 39.1445 191.558 35.0706 191.558 29.0082C191.558 22.9943 186.985 18.8719 181.508 18.8719C176.08 18.8719 171.508 22.9943 171.508 29.0082C171.508 35.0706 176.08 39.1445 181.508 39.1445Z" fill="#393F4C"/>
</svg>
