<svg width="200" height="58" viewBox="0 0 200 58" fill="none" xmlns="http://www.w3.org/2000/svg">
<path d="M198.446 16.6814L198.446 16.6814L198.447 16.6837C200.327 20.6344 199.59 25.0587 197.029 28.1314C196.788 20.3749 192.511 13.9128 186.02 10.3397C190.936 9.30474 196.186 11.8656 198.446 16.6814Z" stroke="#61A60E"/>
<path d="M55.3864 38.293H54.683C54.1343 38.293 53.6438 38.1382 53.2903 37.7883C52.9364 37.4379 52.787 36.9586 52.787 36.4457V24.2737C52.787 20.257 51.8289 17.4387 50.1357 15.6254C48.4482 13.8182 45.9532 12.927 42.697 12.927C37.7878 12.927 33.7742 15.8822 32.2203 19.1019L32.0839 19.3846H31.77H31.6256H31.2642L31.1508 19.0414C30.4813 17.0138 29.3974 15.5093 27.9264 14.5068C26.4522 13.5022 24.5475 12.9734 22.1909 12.9734C17.3636 12.9734 13.6661 16.2214 12.1921 19.1555L12.0537 19.4311H11.7453H11.6009H11.0651L55.3864 38.293ZM55.3864 38.293V43.7971H49.5805C48.1136 43.7971 47.2022 43.5019 46.6484 42.9675C46.099 42.4372 45.7964 41.5686 45.7964 40.1623V25.7604C45.7964 23.9884 45.6326 22.314 44.9241 21.0754C44.5623 20.4429 44.0589 19.924 43.3747 19.5677C42.6951 19.2139 41.8651 19.035 40.8678 19.035C36.5639 19.035 33.5857 22.5283 32.6828 26.5592C32.2822 27.8256 32.1365 29.1745 32.1365 30.6385V43.7971H25.0496V25.7139C25.0496 24.0409 24.9227 22.3692 24.2436 21.1096C23.8964 20.4658 23.4037 19.926 22.7175 19.5519C22.0356 19.1801 21.1933 18.9886 20.1692 18.9886C15.8052 18.9886 12.9294 22.4988 11.888 26.5604C11.5401 27.8093 11.3416 29.1536 11.3416 30.592L11.3416 43.7971H4.39905V21.1146C4.39905 20.5551 4.23706 20.0661 3.8639 19.724C3.49853 19.389 3.00903 19.2673 2.50309 19.2673H0.5L0.5 13.6703L55.3864 38.293ZM115.723 16.4918L115.724 16.4924L116.797 16.2058L116.797 16.2044L116.796 16.1982L116.795 16.1727L116.793 16.143C116.792 16.1236 116.791 16.0999 116.789 16.0721C116.785 15.9841 116.779 15.8556 116.773 15.6954C116.761 15.3748 116.749 14.9282 116.749 14.4247V8.89619C116.749 8.33671 116.587 7.84773 116.214 7.50558C115.849 7.17059 115.359 7.04892 114.854 7.04892H114.535V1.4519L120.004 1.4519C121.436 1.4519 122.352 1.76565 122.917 2.31483C123.478 2.86107 123.788 3.73582 123.788 5.08665V36.4457C123.788 36.9716 123.957 37.4484 124.314 37.7927C124.669 38.1349 125.153 38.293 125.684 38.293H126.388V43.7971H120.774C119.374 43.7971 118.514 43.4749 118.008 43.0237C117.512 42.5814 117.279 41.9459 117.279 41.1379V41.1341V41.1303V41.1265V41.1227V41.1189V41.1151V41.1113V41.1075V41.1038V41.1V41.0962V41.0924V41.0887V41.0849V41.0811V41.0774V41.0736V41.0699V41.0661V41.0624V41.0586V41.0549V41.0512V41.0474V41.0437V41.04V41.0362V41.0325V41.0288V41.0251V41.0214V41.0177V41.014V41.0103V41.0066V41.0029V40.9992V40.9956V40.9919V40.9882V40.9846V40.9809V40.9772V40.9736V40.9699V40.9663V40.9626V40.959V40.9553V40.9517V40.9481V40.9445V40.9408V40.9372V40.9336V40.93V40.9264V40.9228V40.9192V40.9156V40.912V40.9084V40.9049V40.9013V40.8977V40.8941V40.8906V40.887V40.8835V40.8799V40.8764V40.8728V40.8693V40.8658V40.8622V40.8587V40.8552V40.8517V40.8482V40.8447V40.8412V40.8377V40.8342V40.8307V40.8272V40.8237V40.8203V40.8168V40.8133V40.8099V40.8064V40.803V40.7995V40.7961V40.7927V40.7892V40.7858V40.7824V40.779V40.7755V40.7721V40.7687V40.7653V40.762V40.7586V40.7552V40.7518V40.7484V40.7451V40.7417V40.7383V40.735V40.7316V40.7283V40.725V40.7216V40.7183V40.715V40.7117V40.7084V40.7051V40.7018V40.6985V40.6952V40.6919V40.6886V40.6853V40.6821V40.6788V40.6755V40.6723V40.669V40.6658V40.6626V40.6593V40.6561V40.6529V40.6497V40.6465V40.6432V40.64V40.6369V40.6337V40.6305V40.6273V40.6241V40.621V40.6178V40.6147V40.6115V40.6084V40.6052V40.6021V40.599V40.5959V40.5927V40.5896V40.5865V40.5834V40.5803V40.5773V40.5742V40.5711V40.568V40.565V40.5619V40.5589V40.5558V40.5528V40.5498V40.5467V40.5437V40.5407V40.5377V40.5347V40.5317V40.5287V40.5257V40.5227V40.5198V40.5168V40.5139V40.5109V40.508V40.505V40.5021V40.4992V40.4962V40.4933V40.4904V40.4875V40.4846V40.4817V40.4788V40.476V40.4731V40.4702V40.4674V40.4645V40.4617V40.4588V40.456V40.4532V40.4504V40.4476V40.4448V40.442V40.4392V40.4364V40.4336V40.4308V40.4281V40.4253V40.4226V40.4198V40.4171V40.4143V40.4116V40.4089V40.4062V40.4035V40.4008V40.3981V40.3954V40.3927V40.3901V40.3874V40.3848V40.3821V40.3795V40.3768V40.3742V40.3716V40.369V40.3664V40.3638V40.3612V40.3586V40.356V40.3534V40.3509V40.3483V40.3458V40.3432V40.3407V40.3382V40.3357V40.3331V40.3306V40.3281V40.3256V40.3232V40.3207V40.3182V40.3158V40.3133V40.3109V40.3084V40.306V40.3036V40.3011V40.2987V40.2963V40.2939V40.2916V40.2892V40.2868V40.2844V40.2821V40.2797V40.2774V40.2751V40.2727V40.2704V40.2681V40.2658V40.2635V40.2612V40.259V40.2567V40.2544V40.2522V40.2499V40.2477V40.2455V40.2432V40.241V40.2388V40.2366V40.2344V40.2322V40.2301V40.2279V40.2257V40.2236V40.2214V40.2193V40.2172V40.2151V40.2129V40.2108V40.2087V40.2067V40.2046V40.2025V40.2005V40.1984V40.1964V40.1943V40.1923V40.1903V40.1883V40.1863V40.1843V40.1823V40.1803V40.1783V40.1764V40.1744V40.1725V40.1705V40.1686V40.1667V40.1648V40.1629V40.161V40.1591V40.1572V40.1554V40.1535V40.1517V40.1498V40.148V40.1462V40.1443V40.1425V40.1407V40.139V40.1372V40.1354V40.1336V40.1319V40.1301V40.1284V40.1267V40.125V40.1233V40.1216V40.1199V40.1182V40.1165V40.1149V40.1132V40.1116V40.1099V40.1083V40.1067V40.1051V40.1035V40.1019V40.1003V40.0987V40.0972V40.0956V40.0941V40.0925V40.091V40.0895V40.088V40.0865V40.085V40.0835V40.082V40.0806V40.0791V40.0777V40.0763V40.0748V40.0734V40.072V40.0706V40.0692V40.0679V40.0665V40.0651V40.0638V40.0625V40.0611V40.0598V40.0585V40.0572V40.0559V40.0546V40.0534V40.0521V40.0509V40.0496V40.0484V40.0472V40.046V40.0448V40.0436V40.0424V40.0412V40.04V40.0389V40.0378V40.0366V40.0355V40.0344V40.0333V40.0322V40.0311V40.03V40.029V40.0279V40.0269V40.0259V40.0248V40.0238V40.0228V40.0218V40.0209V40.0199V40.0189V40.018V40.017V40.0161V40.0152V40.0143V40.0134V40.0125V40.0116V40.0107V40.0099V40.009V40.0082V40.0074V40.0066V40.0058V40.005V40.0042V40.0034V40.0027V40.0019V40.0012V40.0004V39.9997V39.999V39.9983V39.9976V39.9969V39.9963V39.9956V39.995V39.9943V39.9937V39.9931V39.9925V39.9919V39.9913V39.9908V39.9902V39.9897V39.9891V39.9886V39.9881V39.9876V39.9871V39.9866V39.9861V39.9857V39.9852V39.9848V39.9843V39.9839V39.9835V39.9831V39.9827V39.9824V39.982V39.9817V39.9813V39.981V39.9807V39.9804V39.9801V39.9798V39.9795V39.9793V39.979V39.9788V39.9786V39.9784V39.9782V39.978V39.9778V39.9776V39.9775V39.9773V39.9772V39.9771V39.977V39.9769V39.9768V39.9767V39.9766V39.9765V39.4765H116.779H116.635H116.332L116.192 39.7437L116.192 39.7441L116.192 39.7444L116.192 39.7445L116.191 39.7448L116.188 39.7513C116.186 39.7546 116.184 39.7591 116.181 39.7646C116.177 39.7704 116.173 39.7772 116.169 39.7852C116.151 39.8166 116.122 39.8652 116.083 39.9283C116.003 40.0548 115.88 40.2396 115.708 40.4635C115.365 40.9115 114.83 41.5138 114.073 42.1174C112.564 43.32 110.156 44.5404 106.574 44.5404C102.354 44.5404 98.9082 42.9358 96.5116 40.1825C94.1092 37.4225 92.7294 33.4705 92.7294 28.7337L92.7294 28.7313C92.7058 23.8881 94.2007 19.9395 96.7018 17.2071C99.2005 14.4774 102.734 12.927 106.863 12.927C110.281 12.927 112.507 13.8515 113.868 14.7492C114.551 15.1996 115.022 15.647 115.318 15.9761C115.467 16.1406 115.572 16.2756 115.638 16.3665C115.671 16.4119 115.694 16.4463 115.708 16.4678C115.715 16.4786 115.72 16.4861 115.722 16.4902L115.723 16.4918ZM108.355 39.0363L108.361 39.0363C110.547 39.0117 112.705 38.2247 114.315 36.5156C115.926 34.8055 116.942 32.2216 116.942 28.6872C116.942 26.1899 116.271 23.686 114.87 21.7928C113.458 19.8839 111.314 18.6169 108.451 18.6169C106.1 18.6169 103.941 19.5445 102.374 21.2983C100.809 23.05 99.8644 25.592 99.8644 28.7801C99.8644 31.8402 100.694 34.401 102.187 36.2068C103.687 38.0211 105.828 39.0363 108.355 39.0363ZM142.548 34.7702L143.013 34.5874L142.548 34.7703L142.673 35.0874H143.013H143.158H143.498L143.623 34.7703L143.623 34.7699L143.624 34.7691L143.625 34.7659L143.63 34.7539L143.648 34.7075C143.663 34.6669 143.686 34.6075 143.716 34.5312C143.774 34.3788 143.857 34.1594 143.957 33.8905C144.157 33.3536 144.423 32.6179 144.69 31.8228C144.69 31.8217 144.69 31.8206 144.691 31.8194L150.175 16.2667C150.175 16.2662 150.175 16.2658 150.175 16.2654C150.536 15.2634 151 14.6358 151.582 14.2486C152.168 13.8585 152.937 13.6703 153.988 13.6703H158.701L145.293 48.7097C145.293 48.7112 145.292 48.7126 145.292 48.714C143.116 54.1138 138.028 56.6659 133.386 56.6659C130.965 56.6659 129.003 55.9094 127.643 55.1498C126.963 54.7702 126.437 54.3912 126.082 54.1091C125.987 54.0332 125.904 53.9644 125.834 53.9046L128.455 49.2395C128.711 49.4345 129.072 49.7049 129.513 49.9778C130.406 50.5303 131.667 51.1153 133.145 51.1153C135.589 51.1153 137.726 49.6664 138.899 46.8651C138.9 46.8632 138.901 46.8612 138.902 46.8593L139.956 44.5011L140.048 44.294L139.954 44.0879L129.175 20.6816C128.965 20.178 128.707 19.7885 128.306 19.5477C127.913 19.3116 127.459 19.2673 126.984 19.2673H126.521V13.6703H131.316C132.393 13.6703 133.133 13.859 133.692 14.244C134.251 14.6292 134.695 15.2574 135.085 16.276L135.089 16.2849L141.393 31.8447C141.394 31.8457 141.394 31.8466 141.394 31.8476C141.707 32.6359 141.995 33.3662 142.205 33.8997L142.456 34.5353L142.524 34.7094L142.542 34.7548L142.546 34.7664L142.548 34.7693L142.548 34.77L142.548 34.7702ZM72.4935 12.927C82.1343 12.927 89.7077 19.5326 89.7077 28.7337C89.7077 37.9804 82.1353 44.5404 72.4935 44.5404C62.9007 44.5404 55.3274 37.9812 55.3274 28.7337C55.3274 19.5317 62.9017 12.927 72.4935 12.927ZM72.4935 38.9434C78.0029 38.9434 82.6208 34.8305 82.6208 28.7337C82.6208 22.685 78.0045 18.524 72.4935 18.524C67.0289 18.524 62.4143 22.6866 62.4143 28.7337C62.4143 34.8289 67.0305 38.9434 72.4935 38.9434ZM173.869 12.927C183.51 12.927 191.083 19.5326 191.083 28.7337C191.083 37.9804 183.511 44.5404 173.869 44.5404C164.276 44.5404 156.703 37.9812 156.703 28.7337C156.703 19.5317 164.277 12.927 173.869 12.927ZM173.869 38.9434C179.378 38.9434 183.996 34.8305 183.996 28.7337C183.996 22.685 179.38 18.524 173.869 18.524C168.404 18.524 163.79 22.6866 163.79 28.7337C163.79 34.8289 168.406 38.9434 173.869 38.9434Z" stroke="#252931"/>
</svg>
