<svg width="200" height="57" viewBox="0 0 200 57" fill="none" xmlns="http://www.w3.org/2000/svg">
<path d="M198.899 16.2636C196.347 10.828 190.138 8.13347 184.65 9.99179C191.823 13.4297 196.54 20.3054 196.54 28.6214C196.54 28.8072 196.54 28.993 196.54 29.1789C199.909 25.9733 201.065 20.8165 198.899 16.2636Z" fill="url(#paint0_linear)"/>
<path d="M3.89905 20.9093C3.89905 19.9801 3.36955 19.562 2.50309 19.562H0V12.965H7.41301C10.2531 12.965 11.649 14.2658 11.649 16.4493V17.3785C11.649 18.0289 11.6009 18.7258 11.6009 18.7258H11.7453C13.2857 15.6595 17.1366 12.2681 22.1909 12.2681C27.0527 12.2681 30.2297 14.4516 31.6256 18.6793H31.77C33.4067 15.2879 37.5945 12.2217 42.697 12.2217C49.388 12.2217 53.287 15.8918 53.287 24.0684V36.2404C53.287 37.0766 53.7684 37.5876 54.683 37.5876H55.8864V44.0917H49.5805C46.5479 44.0917 45.2964 42.8838 45.2964 39.957V25.5551C45.2964 22.0243 44.6225 19.3297 40.8678 19.3297C36.8725 19.3297 34.0325 22.5818 33.166 26.4842C32.7809 27.6921 32.6365 28.9929 32.6365 30.4331V44.0917H24.5496V25.5086C24.5496 22.1636 24.0201 19.2833 20.1692 19.2833C16.1257 19.2833 13.3819 22.5353 12.3711 26.4842C12.0341 27.6921 11.8416 28.9929 11.8416 30.3867V44.0917H3.89905V20.9093Z" fill="url(#paint1_linear)"/>
<path d="M72.4935 12.2217C82.3614 12.2217 90.2077 19.0045 90.2077 28.5284C90.2077 38.0987 82.3614 44.8351 72.4935 44.8351C62.6736 44.8351 54.8274 38.0987 54.8274 28.5284C54.8274 19.0045 62.6736 12.2217 72.4935 12.2217ZM72.4935 38.238C77.7403 38.238 82.1208 34.3356 82.1208 28.5284C82.1208 22.7676 77.7403 18.8187 72.4935 18.8187C67.2947 18.8187 62.9143 22.7676 62.9143 28.5284C62.9143 34.3356 67.2947 38.238 72.4935 38.238Z" fill="url(#paint2_linear)"/>
<path d="M106.863 12.2217C113.891 12.2217 116.153 16.0312 116.153 16.0312H116.298C116.298 16.0312 116.249 15.2414 116.249 14.2194V8.69087C116.249 7.76171 115.72 7.34359 114.854 7.34359H114.035V0.746582H120.004C122.989 0.746582 124.288 2.0474 124.288 4.88133V36.2404C124.288 37.0766 124.818 37.5876 125.684 37.5876H126.888V44.0917H120.774C117.838 44.0917 116.779 42.7445 116.779 40.9326C116.779 40.2822 116.779 39.7712 116.779 39.7712H116.635C116.635 39.7712 113.987 44.8351 106.574 44.8351C97.8614 44.8351 92.2294 38.1916 92.2294 28.5284C92.1813 18.6328 98.3427 12.2217 106.863 12.2217ZM116.442 28.4819C116.442 23.6503 113.843 18.9116 108.451 18.9116C104.023 18.9116 100.364 22.3959 100.364 28.5748C100.364 34.5214 103.59 38.331 108.355 38.331C112.495 38.2845 116.442 35.3577 116.442 28.4819Z" fill="url(#paint3_linear)"/>
<path d="M133.145 50.41C135.36 50.41 137.333 49.1092 138.44 46.4611L139.499 44.0917L128.717 20.677C128.332 19.7478 127.898 19.562 126.984 19.562H126.021V12.965H131.316C133.579 12.965 134.734 13.7548 135.552 15.8918L141.858 31.4552C142.484 33.0348 143.013 34.3821 143.013 34.3821H143.158C143.158 34.3821 143.687 33.0348 144.217 31.4552L149.704 15.8918C150.474 13.7548 151.774 12.965 153.988 12.965H159.428L145.757 48.6911C143.495 54.3125 138.2 56.9606 133.386 56.9606C128.332 56.9606 125.203 53.8014 125.203 53.8014L128.284 48.3194C128.476 48.2729 130.45 50.41 133.145 50.41Z" fill="url(#paint4_linear)"/>
<path d="M173.869 12.2217C183.737 12.2217 191.583 19.0045 191.583 28.5284C191.583 38.0987 183.737 44.8351 173.869 44.8351C164.049 44.8351 156.203 38.0987 156.203 28.5284C156.203 19.0045 164.049 12.2217 173.869 12.2217ZM173.869 38.238C179.116 38.238 183.496 34.3356 183.496 28.5284C183.496 22.7676 179.116 18.8187 173.869 18.8187C168.67 18.8187 164.29 22.7676 164.29 28.5284C164.29 34.3356 168.67 38.238 173.869 38.238Z" fill="url(#paint5_linear)"/>
<defs>
<linearGradient id="paint0_linear" x1="192.325" y1="9.40649" x2="192.325" y2="29.1789" gradientUnits="userSpaceOnUse">
<stop stop-color="#0EBD74"/>
<stop offset="1" stop-color="#3ECA90" stop-opacity="0"/>
</linearGradient>
<linearGradient id="paint1_linear" x1="95.7915" y1="0.746582" x2="95.7915" y2="56.9606" gradientUnits="userSpaceOnUse">
<stop stop-color="#393F4C"/>
<stop offset="0.0001" stop-color="#151F38"/>
<stop offset="1" stop-color="#393F4C" stop-opacity="0"/>
</linearGradient>
<linearGradient id="paint2_linear" x1="95.7915" y1="0.746582" x2="95.7915" y2="56.9606" gradientUnits="userSpaceOnUse">
<stop stop-color="#393F4C"/>
<stop offset="0.0001" stop-color="#151F38"/>
<stop offset="1" stop-color="#393F4C" stop-opacity="0"/>
</linearGradient>
<linearGradient id="paint3_linear" x1="95.7915" y1="0.746582" x2="95.7915" y2="56.9606" gradientUnits="userSpaceOnUse">
<stop stop-color="#393F4C"/>
<stop offset="0.0001" stop-color="#151F38"/>
<stop offset="1" stop-color="#393F4C" stop-opacity="0"/>
</linearGradient>
<linearGradient id="paint4_linear" x1="95.7915" y1="0.746582" x2="95.7915" y2="56.9606" gradientUnits="userSpaceOnUse">
<stop stop-color="#393F4C"/>
<stop offset="0.0001" stop-color="#151F38"/>
<stop offset="1" stop-color="#393F4C" stop-opacity="0"/>
</linearGradient>
<linearGradient id="paint5_linear" x1="95.7915" y1="0.746582" x2="95.7915" y2="56.9606" gradientUnits="userSpaceOnUse">
<stop stop-color="#393F4C"/>
<stop offset="0.0001" stop-color="#151F38"/>
<stop offset="1" stop-color="#393F4C" stop-opacity="0"/>
</linearGradient>
</defs>
</svg>
