<svg width="171" height="65" viewBox="0 0 171 65" fill="none" xmlns="http://www.w3.org/2000/svg">
<path d="M169.643 18.1193C167.467 11.8684 162.17 8.76967 157.49 10.9067C163.607 14.8603 167.631 22.7674 167.631 32.3308C167.631 32.5445 167.631 32.7582 167.631 32.9719C170.505 29.2855 171.49 23.3551 169.643 18.1193Z" fill="#61A60E"/>
<path d="M3.32554 23.462C3.32554 22.3935 2.87392 21.9126 2.13491 21.9126H0L0 14.3261H6.32263C8.74494 14.3261 9.93556 15.822 9.93556 18.3331V19.4016C9.93556 20.1496 9.89451 20.951 9.89451 20.951H10.0177C11.3315 17.4248 14.616 13.5247 18.9268 13.5247C23.0735 13.5247 25.7832 16.0357 26.9738 20.8975H27.097C28.4929 16.9974 32.0648 13.4713 36.4167 13.4713C42.1235 13.4713 45.449 17.6919 45.449 27.095V41.0928C45.449 42.0544 45.8596 42.6421 46.6397 42.6421H47.6661V50.1218H42.2877C39.7012 50.1218 38.6337 48.7327 38.6337 45.3669V28.8047C38.6337 24.7442 38.059 21.6455 34.8566 21.6455C31.4489 21.6455 29.0266 25.3854 28.2876 29.8732C27.9592 31.2623 27.836 32.7582 27.836 34.4144V50.1218H20.9386V28.7512C20.9386 24.9045 20.487 21.5921 17.2025 21.5921C13.7538 21.5921 11.4136 25.3319 10.5514 29.8732C10.264 31.2623 10.0998 32.7582 10.0998 34.361V50.1218H3.32554L3.32554 23.462Z" fill="#393F4C"/>
<path d="M61.8304 13.4713C70.2469 13.4713 76.939 21.2715 76.939 32.224C76.939 43.2298 70.2469 50.9767 61.8304 50.9767C53.455 50.9767 46.7628 43.2298 46.7628 32.224C46.7628 21.2715 53.455 13.4713 61.8304 13.4713ZM61.8304 43.3901C66.3055 43.3901 70.0416 38.9023 70.0416 32.224C70.0416 25.5991 66.3055 21.0578 61.8304 21.0578C57.3964 21.0578 53.6603 25.5991 53.6603 32.224C53.6603 38.9023 57.3964 43.3901 61.8304 43.3901Z" fill="#393F4C"/>
<path d="M91.1444 13.4713C97.1386 13.4713 99.0682 17.8522 99.0682 17.8522H99.1914C99.1914 17.8522 99.1504 16.944 99.1504 15.7686V9.41084C99.1504 8.34231 98.6987 7.86147 97.9597 7.86147H97.2618V0.274902L102.353 0.274902C104.898 0.274902 106.007 1.77084 106.007 5.02986V41.0928C106.007 42.0544 106.458 42.6421 107.197 42.6421H108.224V50.1218H103.01C100.505 50.1218 99.602 48.5725 99.602 46.4888C99.602 45.7409 99.602 45.1532 99.602 45.1532H99.4788C99.4788 45.1532 97.2207 50.9767 90.8981 50.9767C83.4669 50.9767 78.6634 43.3367 78.6634 32.224C78.6223 20.8441 83.8775 13.4713 91.1444 13.4713ZM99.3146 32.1705C99.3146 26.6142 97.0975 21.1647 92.4993 21.1647C88.7221 21.1647 85.6019 25.1717 85.6019 32.2774C85.6019 39.116 88.3526 43.4969 92.4172 43.4969C95.948 43.4435 99.3146 40.0777 99.3146 32.1705Z" fill="#393F4C"/>
<path d="M113.561 57.3878C115.45 57.3878 117.133 55.8919 118.077 52.8466L118.98 50.1218L109.784 23.1949C109.455 22.1263 109.086 21.9126 108.306 21.9126H107.485V14.3261H112.001C113.931 14.3261 114.916 15.2343 115.614 17.6919L120.992 35.5898C121.526 37.4063 121.978 38.9557 121.978 38.9557H122.101C122.101 38.9557 122.552 37.4063 123.004 35.5898L127.684 17.6919C128.341 15.2343 129.45 14.3261 131.338 14.3261H135.978L124.318 55.4111C122.388 61.8757 117.872 64.921 113.766 64.921C109.455 64.921 106.787 61.288 106.787 61.288L109.414 54.9837C109.579 54.9302 111.262 57.3878 113.561 57.3878Z" fill="#393F4C"/>
<path d="M148.294 13.4713C156.711 13.4713 163.403 21.2715 163.403 32.224C163.403 43.2298 156.711 50.9767 148.294 50.9767C139.919 50.9767 133.227 43.2298 133.227 32.224C133.227 21.2715 139.919 13.4713 148.294 13.4713ZM148.294 43.3901C152.77 43.3901 156.506 38.9023 156.506 32.224C156.506 25.5991 152.77 21.0578 148.294 21.0578C143.86 21.0578 140.124 25.5991 140.124 32.224C140.124 38.9023 143.86 43.3901 148.294 43.3901Z" fill="#393F4C"/>
</svg>
