<svg width="171" height="65" viewBox="0 0 171 65" fill="none" xmlns="http://www.w3.org/2000/svg">
<path d="M169.643 17.86C167.467 11.6091 162.17 8.51039 157.49 10.6475C163.607 14.601 167.631 22.5081 167.631 32.0715C167.631 32.2852 167.631 32.4989 167.631 32.7126C170.505 29.0262 171.49 23.0958 169.643 17.86Z" fill="#0EBD74"/>
<path d="M3.32554 23.2027C3.32554 22.1342 2.87392 21.6534 2.13491 21.6534H0L0 14.0668H6.32263C8.74494 14.0668 9.93556 15.5627 9.93556 18.0738V19.1423C9.93556 19.8903 9.89451 20.6917 9.89451 20.6917H10.0177C11.3315 17.1655 14.616 13.2654 18.9268 13.2654C23.0735 13.2654 25.7832 15.7764 26.9738 20.6383H27.097C28.4929 16.7381 32.0648 13.212 36.4167 13.212C42.1235 13.212 45.449 17.4327 45.449 26.8357V40.8335C45.449 41.7952 45.8596 42.3828 46.6397 42.3828H47.6661V49.8626H42.2877C39.7012 49.8626 38.6337 48.4735 38.6337 45.1076V28.5454C38.6337 24.485 38.059 21.3862 34.8566 21.3862C31.4489 21.3862 29.0266 25.1261 28.2876 29.6139C27.9592 31.003 27.836 32.4989 27.836 34.1552V49.8626H20.9386V28.492C20.9386 24.6452 20.487 21.3328 17.2025 21.3328C13.7538 21.3328 11.4136 25.0727 10.5514 29.6139C10.264 31.003 10.0998 32.4989 10.0998 34.1017V49.8626H3.32554L3.32554 23.2027Z" fill="#151F38"/>
<path d="M61.8304 13.212C70.2469 13.212 76.939 21.0122 76.939 31.9647C76.939 42.9705 70.2469 50.7174 61.8304 50.7174C53.455 50.7174 46.7628 42.9705 46.7628 31.9647C46.7628 21.0122 53.455 13.212 61.8304 13.212ZM61.8304 43.1308C66.3055 43.1308 70.0416 38.643 70.0416 31.9647C70.0416 25.3398 66.3055 20.7985 61.8304 20.7985C57.3964 20.7985 53.6603 25.3398 53.6603 31.9647C53.6603 38.643 57.3964 43.1308 61.8304 43.1308Z" fill="#151F38"/>
<path d="M91.1444 13.212C97.1386 13.212 99.0682 17.5929 99.0682 17.5929H99.1914C99.1914 17.5929 99.1504 16.6847 99.1504 15.5093V9.15156C99.1504 8.08303 98.6987 7.60219 97.9597 7.60219H97.2618V0.015625L102.353 0.015625C104.898 0.015625 106.007 1.51157 106.007 4.77058V40.8335C106.007 41.7952 106.458 42.3828 107.197 42.3828H108.224V49.8626H103.01C100.505 49.8626 99.602 48.3132 99.602 46.2296C99.602 45.4816 99.602 44.8939 99.602 44.8939H99.4788C99.4788 44.8939 97.2207 50.7174 90.8981 50.7174C83.4669 50.7174 78.6634 43.0774 78.6634 31.9647C78.6223 20.5848 83.8775 13.212 91.1444 13.212ZM99.3146 31.9113C99.3146 26.3549 97.0975 20.9054 92.4993 20.9054C88.7221 20.9054 85.6019 24.9124 85.6019 32.0181C85.6019 38.8567 88.3526 43.2377 92.4172 43.2377C95.948 43.1842 99.3146 39.8184 99.3146 31.9113Z" fill="#151F38"/>
<path d="M113.561 57.1286C115.45 57.1286 117.133 55.6326 118.077 52.5873L118.98 49.8626L109.784 22.9356C109.455 21.8671 109.086 21.6534 108.306 21.6534H107.485V14.0668H112.001C113.931 14.0668 114.916 14.975 115.614 17.4327L120.992 35.3305C121.526 37.147 121.978 38.6964 121.978 38.6964H122.101C122.101 38.6964 122.552 37.147 123.004 35.3305L127.684 17.4327C128.341 14.975 129.45 14.0668 131.338 14.0668H135.978L124.318 55.1518C122.388 61.6164 117.872 64.6617 113.766 64.6617C109.455 64.6617 106.787 61.0287 106.787 61.0287L109.414 54.7244C109.579 54.6709 111.262 57.1286 113.561 57.1286Z" fill="#151F38"/>
<path d="M148.294 13.212C156.711 13.212 163.403 21.0122 163.403 31.9647C163.403 42.9705 156.711 50.7174 148.294 50.7174C139.919 50.7174 133.227 42.9705 133.227 31.9647C133.227 21.0122 139.919 13.212 148.294 13.212ZM148.294 43.1308C152.77 43.1308 156.506 38.643 156.506 31.9647C156.506 25.3398 152.77 20.7985 148.294 20.7985C143.86 20.7985 140.124 25.3398 140.124 31.9647C140.124 38.643 143.86 43.1308 148.294 43.1308Z" fill="#151F38"/>
</svg>
