<svg width="208" height="105" viewBox="0 0 208 105" fill="none" xmlns="http://www.w3.org/2000/svg">
<path d="M196.599 15.7006C192.788 11.0602 186.106 9.97697 181.245 13.1288C189.043 14.6955 195.308 20.1986 197.354 28.2588C197.4 28.4389 197.446 28.619 197.492 28.7991C199.968 24.8628 199.819 19.5802 196.599 15.7006Z" fill="#61A60E"/>
<path d="M8.74191 68.2004C8.51321 67.2998 7.89708 67.0249 7.05728 67.2381L4.63119 67.8542L3.00742 61.4602L10.1924 59.6356C12.945 58.9365 14.6182 59.8537 15.1557 61.9701L15.3844 62.8706C15.5445 63.501 15.6693 64.1883 15.6693 64.1883L15.8093 64.1528C16.5476 60.8017 19.4452 56.5668 24.3441 55.3227C29.0563 54.1261 32.673 55.4604 35.0666 59.2144L35.2066 59.1789C35.9581 55.4889 39.2624 51.4863 44.2079 50.2304C50.693 48.5835 55.3755 51.181 57.388 59.106L60.384 70.9035C60.5898 71.714 61.1822 72.0909 62.0686 71.8657L63.235 71.5695L64.8359 77.8735L58.7241 79.4257C55.7848 80.1721 54.2744 79.3094 53.554 76.4726L50.0091 62.5138C49.1401 59.0916 47.8237 56.6458 44.1845 57.57C40.3121 58.5534 38.3599 62.4044 38.4807 66.4001C38.4047 67.6656 38.5849 68.9619 38.9394 70.3578L42.3013 83.5962L34.4632 85.5867L29.8892 67.5753C29.0659 64.3332 27.8437 61.6718 24.1112 62.6197C20.1922 63.6149 18.3333 67.4423 18.3255 71.5185C18.2962 72.7722 18.4298 74.0804 18.7728 75.4312L22.1462 88.7146L14.448 90.6696L8.74191 68.2004Z" fill="#393F4C"/>
<path d="M73.0876 42.8963C82.652 40.4674 91.9264 45.1103 94.2706 54.3412C96.6262 63.6171 90.6794 72.0775 81.115 74.5064C71.5973 76.9234 62.3344 72.3255 59.9788 63.0496C57.6346 53.8188 63.5699 45.3134 73.0876 42.8963ZM79.4913 68.1123C84.5767 66.8208 87.8618 61.9603 86.4324 56.3317C85.0145 50.7482 79.7969 47.9989 74.7114 49.2904C69.6726 50.57 66.3989 55.4756 67.8169 61.0591C69.2463 66.6877 74.4525 69.3919 79.4913 68.1123Z" fill="#393F4C"/>
<path d="M106.4 34.4367C113.211 32.7069 116.342 35.8423 116.342 35.8423L116.482 35.8068C116.482 35.8068 116.241 35.0531 115.989 34.0625L114.628 28.7041C114.4 27.8036 113.784 27.5286 112.944 27.7419L112.151 27.9433L110.527 21.5493L116.312 20.0801C119.205 19.3455 120.785 20.2864 121.482 23.0331L129.201 53.4274C129.407 54.2379 130.046 54.6029 130.885 54.3896L132.052 54.0934L133.653 60.3974L127.728 61.9021C124.882 62.6249 123.524 61.5797 123.078 59.8236C122.917 59.1932 122.792 58.6979 122.792 58.6979L122.652 58.7334C122.652 58.7334 121.332 64.2932 114.147 66.1178C105.702 68.2624 98.6086 63.2095 96.2301 53.8436C93.7478 44.2643 98.1416 36.5338 106.4 34.4367ZM119.686 47.8389C118.497 43.1559 114.811 39.2028 109.586 40.5298C105.294 41.6198 102.605 45.8975 104.126 51.8862C105.59 57.6499 109.654 60.5484 114.272 59.3754C118.273 58.3115 121.379 54.5031 119.686 47.8389Z" fill="#393F4C"/>
<path d="M141.273 64.981C143.419 64.436 145.012 62.6894 145.433 59.8503L145.877 57.2932L129.662 37.2528C129.06 36.447 128.595 36.3735 127.708 36.5987L126.775 36.8356L125.151 30.4416L130.284 29.1383C132.476 28.5814 133.791 29.0625 135.11 30.9324L145.052 44.4649C146.048 45.8418 146.892 47.0173 146.892 47.0173L147.032 46.9818C147.032 46.9818 147.214 45.5456 147.338 43.8843L148.826 27.449C149.047 25.1882 150.112 24.1028 152.258 23.5577L157.53 22.2189L153.074 60.2107C152.265 66.2161 147.784 70.086 143.119 71.2708C138.22 72.5149 134.41 70.2231 134.41 70.2231L136.046 64.1514C136.222 64.059 138.66 65.6445 141.273 64.981Z" fill="#393F4C"/>
<path d="M171.344 17.944C180.908 15.5151 190.183 20.158 192.527 29.3889C194.883 38.6647 188.936 47.1251 179.372 49.554C169.854 51.9711 160.591 47.3732 158.235 38.0973C155.891 28.8664 161.826 20.361 171.344 17.944ZM177.748 43.16C182.833 41.8685 186.118 37.0079 184.689 31.3794C183.271 25.7958 178.053 23.0466 172.968 24.338C167.929 25.6176 164.655 30.5233 166.073 36.1068C167.503 41.7354 172.709 44.4396 177.748 43.16Z" fill="#393F4C"/>
</svg>
