<svg width="500" height="360" viewBox="0 0 500 360" fill="none" xmlns="http://www.w3.org/2000/svg">
<path d="M112.04 356.61H109.845L105.374 349.295L100.823 356.61H98.7752L104.304 347.918L99.1507 339.978H101.289L105.419 346.565L109.583 339.978H111.642L106.489 347.85L112.04 356.61Z" fill="#5D616C"/>
<path d="M112.04 37.5312H109.845L105.374 30.2159L100.823 37.5312H98.7752L104.304 28.8394L99.1507 20.8984H101.289L105.419 27.4855L109.583 20.8984H111.642L106.489 28.7711L112.04 37.5312Z" fill="#5D616C"/>
<path d="M410.286 37.5312H408.09L403.619 30.2159L399.069 37.5312H397.021L402.55 28.8394L397.396 20.8984H399.535L403.665 27.4855L407.829 20.8984H409.888L404.734 28.7711L410.286 37.5312Z" fill="#5D616C"/>
<path d="M410.286 353.321H408.09L403.619 346.005L399.069 353.321H397.021L402.55 344.629L397.396 336.688H399.535L403.665 343.275L407.829 336.688H409.888L404.734 344.561L410.286 353.321Z" fill="#5D616C"/>
<path d="M27.6106 283.145H25.4149L20.9439 275.83L16.3932 283.145H14.3454L19.8745 274.454L14.7208 266.513H16.8596L20.9894 273.1L25.1532 266.513H27.2124L22.0588 274.385L27.6106 283.145Z" fill="#5D616C"/>
<path d="M488.137 283.145H485.941L481.47 275.83L476.92 283.145H474.872L480.401 274.454L475.247 266.513H477.386L481.516 273.1L485.68 266.513H487.739L482.585 274.385L488.137 283.145Z" fill="#5D616C"/>
<path d="M27.6106 103.321H25.4149L20.9439 96.0055L16.3932 103.321H14.3454L19.8745 94.6289L14.7208 86.688H16.8596L20.9894 93.2751L25.1532 86.688H27.2124L22.0588 94.5607L27.6106 103.321Z" fill="#5D616C"/>
<path d="M488.137 103.321H485.941L481.47 96.0055L476.92 103.321H474.872L480.401 94.6289L475.247 86.688H477.386L481.516 93.2751L485.68 86.688H487.739L482.585 94.5607L488.137 103.321Z" fill="#5D616C"/>
<rect x="173.246" y="49.1216" width="262.061" height="139.254" transform="rotate(90 173.246 49.1216)" fill="#F5EBEC"/>
<rect x="466.009" y="49.1216" width="262.061" height="139.254" transform="rotate(90 466.009 49.1216)" fill="#F7E3E4" fill-opacity="0.5"/>
<rect x="33.9912" y="49.1216" width="432.018" height="82.2368" fill="#F8E0E3"/>
<rect x="33.9912" y="228.946" width="432.018" height="82.2368" fill="#F8E0E3"/>
<path d="M43.7067 71.5389C43.7067 69.1413 42.3873 68.0624 40.2283 68.0624H33.9912V51.0396H52.4625C59.5392 51.0396 63.0176 54.3962 63.0176 60.0306V62.4281C63.0176 64.1064 62.8976 65.9046 62.8976 65.9046H63.2575C67.0956 57.9926 76.6911 49.2415 89.2852 49.2415C101.399 49.2415 109.316 54.8758 112.794 65.7847H113.154C117.232 57.0336 127.667 49.1216 140.381 49.1216C157.053 49.1216 166.769 58.592 166.769 79.6907V111.099C166.769 113.257 167.968 114.575 170.247 114.575H173.246V131.358H157.533C149.977 131.358 146.858 128.242 146.858 120.689V83.5268C146.858 74.416 145.179 67.463 135.823 67.463C125.868 67.463 118.791 75.8546 116.632 85.9244C115.673 89.0412 115.313 92.3978 115.313 96.1141V131.358H95.1624V83.4069C95.1624 74.7756 93.843 67.3432 84.2476 67.3432C74.1723 67.3432 67.3355 75.7347 64.8167 85.9244C63.9771 89.0412 63.4973 92.3978 63.4973 95.9942V131.358H43.7067V71.5389Z" fill="#FAB5BD"/>
<path d="M336.47 71.5389C336.47 69.1413 335.15 68.0624 332.991 68.0624H326.754V51.0396H345.226C352.302 51.0396 355.781 54.3962 355.781 60.0306V62.4281C355.781 64.1064 355.661 65.9046 355.661 65.9046H356.021C359.859 57.9926 369.454 49.2415 382.048 49.2415C394.163 49.2415 402.079 54.8758 405.557 65.7847H405.917C409.995 57.0336 420.43 49.1216 433.144 49.1216C449.816 49.1216 459.532 58.592 459.532 79.6907V111.099C459.532 113.257 460.731 114.575 463.01 114.575H466.009V131.358H450.296C442.74 131.358 439.621 128.242 439.621 120.689V83.5268C439.621 74.416 437.942 67.463 428.586 67.463C418.631 67.463 411.554 75.8546 409.395 85.9244C408.436 89.0412 408.076 92.3978 408.076 96.1141V131.358H387.926V83.4069C387.926 74.7756 386.606 67.3432 377.011 67.3432C366.935 67.3432 360.099 75.7347 357.58 85.9244C356.74 89.0412 356.26 92.3978 356.26 95.9942V131.358H336.47V71.5389Z" fill="#FAB5BD"/>
<path d="M43.7067 251.364C43.7067 248.966 42.3873 247.887 40.2283 247.887H33.9912V230.864H52.4625C59.5392 230.864 63.0176 234.221 63.0176 239.855V242.253C63.0176 243.931 62.8976 245.729 62.8976 245.729H63.2575C67.0956 237.817 76.6911 229.066 89.2852 229.066C101.399 229.066 109.316 234.7 112.794 245.609H113.154C117.232 236.858 127.667 228.946 140.381 228.946C157.053 228.946 166.769 238.417 166.769 259.515V290.924C166.769 293.081 167.968 294.4 170.247 294.4H173.246V311.183H157.533C149.977 311.183 146.858 308.066 146.858 300.514V263.352C146.858 254.241 145.179 247.288 135.823 247.288C125.868 247.288 118.791 255.679 116.632 265.749C115.673 268.866 115.313 272.223 115.313 275.939V311.183H95.1624V263.232C95.1624 254.6 93.843 247.168 84.2476 247.168C74.1723 247.168 67.3355 255.559 64.8167 265.749C63.9771 268.866 63.4973 272.223 63.4973 275.819V311.183H43.7067V251.364Z" fill="#FAB5BD"/>
<path d="M336.47 251.364C336.47 248.966 335.15 247.887 332.991 247.887H326.754V230.864H345.226C352.302 230.864 355.781 234.221 355.781 239.855V242.253C355.781 243.931 355.661 245.729 355.661 245.729H356.021C359.859 237.817 369.454 229.066 382.048 229.066C394.163 229.066 402.079 234.7 405.557 245.609H405.917C409.995 236.858 420.43 228.946 433.144 228.946C449.816 228.946 459.532 238.417 459.532 259.515V290.924C459.532 293.081 460.731 294.4 463.01 294.4H466.009V311.183H450.296C442.74 311.183 439.621 308.066 439.621 300.514V263.352C439.621 254.241 437.942 247.288 428.586 247.288C418.631 247.288 411.554 255.679 409.395 265.749C408.436 268.866 408.076 272.223 408.076 275.939V311.183H387.926V263.232C387.926 254.6 386.606 247.168 377.011 247.168C366.935 247.168 360.099 255.559 357.58 265.749C356.74 268.866 356.26 272.223 356.26 275.819V311.183H336.47V251.364Z" fill="#FAB5BD"/>
<path d="M324.047 149.42C317.747 135.366 302.239 128.5 288.588 133.266C306.439 142.07 318.07 159.84 318.07 181.244C318.07 181.729 318.07 182.213 318.07 182.617C326.551 174.459 329.378 161.213 324.047 149.42Z" fill="#61A60E"/>
<path d="M183.019 169.694C183.019 167.351 181.727 166.221 179.546 166.221H173.246V149.259H191.662C198.769 149.259 202.162 152.57 202.162 158.224V160.567C202.162 162.263 202 164.04 202 164.04H202.323C206.12 156.205 215.731 147.401 228.251 147.401C240.367 147.401 248.202 153.055 251.675 163.878H251.998C256.279 155.236 266.617 147.401 279.379 147.401C296.018 147.401 305.63 156.851 305.63 177.932V209.191C305.63 211.372 306.922 212.664 309.103 212.664H312.092V229.465H296.422C288.91 229.465 285.76 226.315 285.76 218.803V181.648C285.76 172.521 284.064 165.574 274.775 165.574C264.84 165.574 257.813 173.894 255.552 183.99C254.582 187.14 254.259 190.452 254.259 194.248V229.465H234.309V181.648C234.309 173.005 233.017 165.574 223.485 165.574C213.389 165.574 206.685 173.894 204.181 184.152C203.373 187.302 202.889 190.614 202.889 194.248V229.465H183.019V169.694Z" fill="#393F4C"/>
<path d="M173.246 359.429V0.875977" stroke="#5D616C" stroke-width="0.5" stroke-dasharray="2 2"/>
<path d="M466.009 359.429V0.875977" stroke="#5D616C" stroke-width="0.5" stroke-dasharray="2 2"/>
<path d="M-2.21729e-05 49.1216L173.246 49.1216" stroke="#5D616C" stroke-width="0.5" stroke-dasharray="2 2"/>
<path d="M-2.21729e-05 228.946H173.246" stroke="#5D616C" stroke-width="0.5" stroke-dasharray="2 2"/>
<path d="M326.754 49.1216L500 49.1216" stroke="#5D616C" stroke-width="0.5" stroke-dasharray="2 2"/>
<path d="M326.754 228.946H500" stroke="#5D616C" stroke-width="0.5" stroke-dasharray="2 2"/>
<path d="M-2.21729e-05 131.358H173.246" stroke="#5D616C" stroke-width="0.5" stroke-dasharray="2 2"/>
<path d="M-2.21729e-05 311.183H173.246" stroke="#5D616C" stroke-width="0.5" stroke-dasharray="2 2"/>
<path d="M326.754 131.358H500" stroke="#5D616C" stroke-width="0.5" stroke-dasharray="2 2"/>
<path d="M326.754 311.183H500" stroke="#5D616C" stroke-width="0.5" stroke-dasharray="2 2"/>
<path d="M33.9912 359.429V0.875977" stroke="#5D616C" stroke-width="0.5" stroke-dasharray="2 2"/>
<path d="M326.754 359.429V0.875977" stroke="#5D616C" stroke-width="0.5" stroke-dasharray="2 2"/>
</svg>
