<svg width="779" height="367" viewBox="0 0 779 367" fill="none" xmlns="http://www.w3.org/2000/svg">
<path d="M616.025 154.839C610.193 142.414 595.998 136.255 583.454 140.503C599.85 148.361 610.633 164.079 610.633 183.088C610.633 183.513 610.633 183.938 610.633 184.363C618.336 177.035 620.977 165.247 616.025 154.839Z" fill="#61A60E"/>
<path d="M170.271 165.459C170.271 163.335 169.061 162.38 167.08 162.38H161.359V147.299H178.304C184.796 147.299 187.987 150.273 187.987 155.264V157.388C187.987 158.875 187.877 160.468 187.877 160.468H188.207C191.728 153.459 200.531 145.706 212.085 145.706C223.199 145.706 230.461 150.698 233.652 160.362H233.982C237.724 152.609 247.297 145.6 258.961 145.6C274.256 145.6 283.168 153.99 283.168 172.681V200.505C283.168 202.417 284.269 203.585 286.36 203.585H289.11V218.453H274.696C267.763 218.453 264.902 215.691 264.902 209.001V176.079C264.902 168.008 263.362 161.849 254.779 161.849C245.646 161.849 239.154 169.283 237.173 178.203C236.293 180.964 235.963 183.938 235.963 187.23V218.453H217.477V175.973C217.477 168.327 216.267 161.742 207.464 161.742C198.221 161.742 191.949 169.176 189.638 178.203C188.868 180.964 188.427 183.938 188.427 187.124V218.453H170.271V165.459Z" fill="#393F4C"/>
<path d="M327.073 145.6C349.63 145.6 367.566 161.105 367.566 182.876C367.566 204.753 349.63 220.152 327.073 220.152C304.626 220.152 286.69 204.753 286.69 182.876C286.69 161.105 304.626 145.6 327.073 145.6ZM327.073 205.072C339.067 205.072 349.08 196.151 349.08 182.876C349.08 169.707 339.067 160.68 327.073 160.68C315.189 160.68 305.176 169.707 305.176 182.876C305.176 196.151 315.189 205.072 327.073 205.072Z" fill="#393F4C"/>
<path d="M405.639 145.6C421.704 145.6 426.876 154.308 426.876 154.308H427.206C427.206 154.308 427.096 152.503 427.096 150.167V137.529C427.096 135.405 425.885 134.449 423.905 134.449H422.034V119.369H435.678C442.501 119.369 445.472 122.343 445.472 128.821V200.505C445.472 202.417 446.682 203.585 448.663 203.585H451.414V218.453H437.439C430.727 218.453 428.306 215.373 428.306 211.231C428.306 209.744 428.306 208.576 428.306 208.576H427.976C427.976 208.576 421.924 220.152 404.978 220.152C385.062 220.152 372.188 204.965 372.188 182.876C372.078 160.256 386.162 145.6 405.639 145.6ZM427.536 182.77C427.536 171.725 421.594 160.893 409.27 160.893C399.146 160.893 390.784 168.858 390.784 182.982C390.784 196.576 398.156 205.284 409.05 205.284C418.513 205.178 427.536 198.487 427.536 182.77Z" fill="#393F4C"/>
<path d="M465.718 232.896C470.78 232.896 475.292 229.922 477.822 223.869L480.243 218.453L455.595 164.928C454.715 162.804 453.724 162.38 451.634 162.38H449.433V147.299H461.537C466.709 147.299 469.35 149.105 471.22 153.99L485.635 189.567C487.065 193.177 488.276 196.257 488.276 196.257H488.606C488.606 196.257 489.816 193.177 491.027 189.567L503.571 153.99C505.331 149.105 508.302 147.299 513.364 147.299H525.798L494.548 228.966C489.376 241.816 477.272 247.87 466.269 247.87C454.715 247.87 447.562 240.648 447.562 240.648L454.605 228.117C455.045 228.011 459.556 232.896 465.718 232.896Z" fill="#393F4C"/>
<path d="M558.809 145.6C581.366 145.6 599.302 161.105 599.302 182.876C599.302 204.753 581.366 220.152 558.809 220.152C536.362 220.152 518.426 204.753 518.426 182.876C518.426 161.105 536.362 145.6 558.809 145.6ZM558.809 205.072C570.803 205.072 580.816 196.151 580.816 182.876C580.816 169.707 570.803 160.68 558.809 160.68C546.925 160.68 536.912 169.707 536.912 182.876C536.912 196.151 546.925 205.072 558.809 205.072Z" fill="#393F4C"/>
<path d="M34.1402 45.587H746.14V119.587H34.1402V45.587Z" fill="#F8E0E3"/>
<path d="M34.1402 247.587H746.14V322.587H34.1402V247.587Z" fill="#F8E0E3"/>
<path d="M161.14 45.587L161.14 323.587L34.1402 323.587L34.1402 45.587L161.14 45.587Z" fill="#F9CED2" fill-opacity="0.5"/>
<path d="M746.14 45.587L746.14 323.587L620.14 323.587L620.14 45.587L746.14 45.587Z" fill="#F9CED2" fill-opacity="0.5"/>
<path d="M43.0007 65.759C43.0007 63.6016 41.7974 62.6308 39.8284 62.6308H34.1402V47.313H50.986C57.4399 47.313 60.6122 50.3334 60.6122 55.4034V57.5608C60.6122 59.071 60.5028 60.6891 60.5028 60.6891H60.831C64.3314 53.5695 73.0825 45.6949 84.5683 45.6949C95.6165 45.6949 102.836 50.7649 106.008 60.5812H106.337C110.056 52.7066 119.573 45.587 131.168 45.587C146.373 45.587 155.233 54.1089 155.233 73.0943V101.357C155.233 103.298 156.327 104.485 158.405 104.485H161.14V119.587H146.81C139.919 119.587 137.075 116.782 137.075 109.986V76.5462C137.075 68.348 135.543 62.0914 127.011 62.0914C117.932 62.0914 111.478 69.6424 109.509 78.7037C108.634 81.5083 108.306 84.5287 108.306 87.8727V119.587H89.9283V76.4383C89.9283 68.6716 88.725 61.9835 79.974 61.9835C70.7853 61.9835 64.5502 69.5346 62.253 78.7037C61.4873 81.5083 61.0498 84.5287 61.0498 87.7649V119.587H43.0007V65.759Z" fill="#FAB5BD"/>
<path d="M43.0007 268.032C43.0007 265.845 41.7974 264.861 39.8284 264.861H34.1402V249.336H50.986C57.4399 249.336 60.6122 252.398 60.6122 257.536V259.723C60.6122 261.253 60.5028 262.893 60.5028 262.893H60.831C64.3314 255.677 73.0825 247.696 84.5683 247.696C95.6165 247.696 102.836 252.835 106.008 262.784H106.337C110.056 254.803 119.573 247.587 131.168 247.587C146.373 247.587 155.233 256.224 155.233 275.466V304.11C155.233 306.078 156.327 307.281 158.405 307.281H161.14V322.587H146.81C139.919 322.587 137.075 319.744 137.075 312.857V278.965C137.075 270.656 135.543 264.314 127.011 264.314C117.932 264.314 111.478 271.968 109.509 281.151C108.634 283.994 108.306 287.055 108.306 290.444V322.587H89.9283V278.855C89.9283 270.984 88.725 264.205 79.974 264.205C70.7853 264.205 64.5502 271.858 62.253 281.151C61.4873 283.994 61.0498 287.055 61.0498 290.335V322.587H43.0007V268.032Z" fill="#FAB5BD"/>
<path d="M43.0007 268.032C43.0007 265.845 41.7974 264.861 39.8284 264.861H34.1402V249.336H50.986C57.4399 249.336 60.6122 252.398 60.6122 257.536V259.723C60.6122 261.253 60.5028 262.893 60.5028 262.893H60.831C64.3314 255.677 73.0825 247.696 84.5683 247.696C95.6165 247.696 102.836 252.835 106.008 262.784H106.337C110.056 254.803 119.573 247.587 131.168 247.587C146.373 247.587 155.233 256.224 155.233 275.466V304.11C155.233 306.078 156.327 307.281 158.405 307.281H161.14V322.587H146.81C139.919 322.587 137.075 319.744 137.075 312.857V278.965C137.075 270.656 135.543 264.314 127.011 264.314C117.932 264.314 111.478 271.968 109.509 281.151C108.634 283.994 108.306 287.055 108.306 290.444V322.587H89.9283V278.855C89.9283 270.984 88.725 264.205 79.974 264.205C70.7853 264.205 64.5502 271.858 62.253 281.151C61.4873 283.994 61.0498 287.055 61.0498 290.335V322.587H43.0007V268.032Z" fill="#FAB5BD"/>
<path d="M628.931 65.759C628.931 63.6016 627.737 62.6308 625.784 62.6308H620.14V47.313H636.853C643.256 47.313 646.404 50.3334 646.404 55.4034V57.5608C646.404 59.071 646.295 60.6891 646.295 60.6891H646.621C650.094 53.5695 658.776 45.6949 670.171 45.6949C681.132 45.6949 688.295 50.7649 691.443 60.5812H691.768C695.458 52.7066 704.9 45.587 716.404 45.587C731.489 45.587 740.28 54.1089 740.28 73.0943V101.357C740.28 103.298 741.365 104.485 743.427 104.485H746.14V119.587H731.923C725.086 119.587 722.264 116.782 722.264 109.986V76.5462C722.264 68.348 720.745 62.0914 712.28 62.0914C703.272 62.0914 696.869 69.6424 694.915 78.7037C694.047 81.5083 693.722 84.5287 693.722 87.8727V119.587H675.489V76.4383C675.489 68.6716 674.295 61.9835 665.613 61.9835C656.497 61.9835 650.311 69.5346 648.032 78.7037C647.272 81.5083 646.838 84.5287 646.838 87.7649V119.587H628.931V65.759Z" fill="#FAB5BD"/>
<path d="M628.931 268.032C628.931 265.845 627.737 264.861 625.784 264.861H620.14V249.336H636.853C643.256 249.336 646.404 252.398 646.404 257.536V259.723C646.404 261.253 646.295 262.893 646.295 262.893H646.621C650.094 255.677 658.776 247.696 670.171 247.696C681.132 247.696 688.295 252.835 691.443 262.784H691.768C695.458 254.803 704.9 247.587 716.404 247.587C731.489 247.587 740.28 256.224 740.28 275.466V304.11C740.28 306.078 741.365 307.281 743.427 307.281H746.14V322.587H731.923C725.086 322.587 722.264 319.744 722.264 312.857V278.965C722.264 270.656 720.745 264.314 712.28 264.314C703.272 264.314 696.869 271.968 694.915 281.151C694.047 283.994 693.722 287.055 693.722 290.444V322.587H675.489V278.855C675.489 270.984 674.295 264.205 665.613 264.205C656.497 264.205 650.311 271.858 648.032 281.151C647.272 283.994 646.838 287.055 646.838 290.335V322.587H628.931V268.032Z" fill="#FAB5BD"/>
<path d="M28.0062 88.967H26.3099L22.8558 83.3157L19.3401 88.967H17.7581L22.0296 82.2522L18.0482 76.1174H19.7005L22.8909 81.2063L26.1077 76.1174H27.6985L23.7171 82.1995L28.0062 88.967Z" fill="#5D616C"/>
<path d="M763.82 88.967H762.123L758.669 83.3157L755.154 88.967H753.572L757.843 82.2522L753.862 76.1174H755.514L758.704 81.2063L761.921 76.1174H763.512L759.531 82.1995L763.82 88.967Z" fill="#5D616C"/>
<path d="M763.82 292.824H762.123L758.669 287.172L755.154 292.824H753.572L757.843 286.109L753.862 279.974H755.514L758.704 285.063L761.921 279.974H763.512L759.531 286.056L763.82 292.824Z" fill="#5D616C"/>
<path d="M28.0062 292.824H26.3099L22.8558 287.172L19.3401 292.824H17.7581L22.0296 286.109L18.0482 279.974H19.7005L22.8909 285.063L26.1077 279.974H27.6985L23.7171 286.056L28.0062 292.824Z" fill="#5D616C"/>
<path d="M104.948 348.54H103.252L99.7978 342.889L96.2822 348.54H94.7001L98.9716 341.826L94.9902 335.691H96.6425L99.8329 340.78L103.05 335.691H104.641L100.659 341.773L104.948 348.54Z" fill="#5D616C"/>
<path d="M688.646 348.54H686.95L683.496 342.889L679.98 348.54H678.398L682.67 341.826L678.688 335.691H680.341L683.531 340.78L686.748 335.691H688.339L684.357 341.773L688.646 348.54Z" fill="#5D616C"/>
<path d="M688.646 35.4659H686.95L683.496 29.8146L679.98 35.4659H678.398L682.67 28.7511L678.688 22.6163H680.341L683.531 27.7052L686.748 22.6163H688.339L684.357 28.6984L688.646 35.4659Z" fill="#5D616C"/>
<path d="M104.948 35.4659H103.252L99.7978 29.8146L96.2822 35.4659H94.7001L98.9716 28.7511L94.9902 22.6163H96.6425L99.8329 27.7052L103.05 22.6163H104.641L100.659 28.6984L104.948 35.4659Z" fill="#5D616C"/>
<path fill-rule="evenodd" clip-rule="evenodd" d="M161.109 1.98192V0.989136H161.609V1.98192H161.109ZM161.109 5.95305V3.96748H161.609V5.95305H161.109ZM161.109 9.92418V7.93861H161.609V9.92418H161.109ZM161.109 13.8953V11.9097H161.609V13.8953H161.109ZM161.109 17.8664V15.8809H161.609V17.8664H161.109ZM161.109 21.8376V19.852H161.609V21.8376H161.109ZM161.109 25.8087V23.8231H161.609V25.8087H161.109ZM161.109 29.7798V27.7943H161.609V29.7798H161.109ZM161.109 33.751V31.7654H161.609V33.751H161.109ZM161.109 37.7221V35.7365H161.609V37.7221H161.109ZM161.109 41.6932V39.7076H161.609V41.6932H161.109ZM161.109 45.6643V43.6788H161.609V45.6643H161.109ZM161.109 49.6355V47.6499H161.609V49.6355H161.109ZM161.109 53.6066V51.621H161.609V53.6066H161.109ZM161.109 57.5777V55.5922H161.609V57.5777H161.109ZM161.109 61.5489V59.5633H161.609V61.5489H161.109ZM161.109 65.52V63.5344H161.609V65.52H161.109ZM161.109 69.4911V67.5056H161.609V69.4911H161.109ZM161.109 73.4623V71.4767H161.609V73.4623H161.109ZM161.109 77.4334V75.4478H161.609V77.4334H161.109ZM161.109 81.4045V79.419H161.609V81.4045H161.109ZM161.109 85.3756V83.3901H161.609V85.3756H161.109ZM161.109 89.3468V87.3612H161.609V89.3468H161.109ZM161.109 93.3179V91.3323H161.609V93.3179H161.109ZM161.109 97.289V95.3035H161.609V97.289H161.109ZM161.109 101.26V99.2746H161.609V101.26H161.109ZM161.109 105.231V103.246H161.609V105.231H161.109ZM161.109 109.202V107.217H161.609V109.202H161.109ZM161.109 113.174V111.188H161.609V113.174H161.109ZM161.109 117.145V115.159H161.609V117.145H161.109ZM161.109 120.123V119.13H161.609V120.123H161.109Z" fill="#5D616C"/>
<path fill-rule="evenodd" clip-rule="evenodd" d="M746.222 1.98192V0.989136H746.722V1.98192H746.222ZM746.222 5.95305V3.96748H746.722V5.95305H746.222ZM746.222 9.92418V7.93861H746.722V9.92418H746.222ZM746.222 13.8953V11.9097H746.722V13.8953H746.222ZM746.222 17.8664V15.8809H746.722V17.8664H746.222ZM746.222 21.8376V19.852H746.722V21.8376H746.222ZM746.222 25.8087V23.8231H746.722V25.8087H746.222ZM746.222 29.7798V27.7943H746.722V29.7798H746.222ZM746.222 33.751V31.7654H746.722V33.751H746.222ZM746.222 37.7221V35.7365H746.722V37.7221H746.222ZM746.222 41.6932V39.7076H746.722V41.6932H746.222ZM746.222 45.6643V43.6788H746.722V45.6643H746.222ZM746.222 49.6355V47.6499H746.722V49.6355H746.222ZM746.222 53.6066V51.621H746.722V53.6066H746.222ZM746.222 57.5777V55.5922H746.722V57.5777H746.222ZM746.222 61.5489V59.5633H746.722V61.5489H746.222ZM746.222 65.52V63.5344H746.722V65.52H746.222ZM746.222 69.4911V67.5056H746.722V69.4911H746.222ZM746.222 73.4623V71.4767H746.722V73.4623H746.222ZM746.222 77.4334V75.4478H746.722V77.4334H746.222ZM746.222 81.4045V79.419H746.722V81.4045H746.222ZM746.222 85.3756V83.3901H746.722V85.3756H746.222ZM746.222 89.3468V87.3612H746.722V89.3468H746.222ZM746.222 93.3179V91.3323H746.722V93.3179H746.222ZM746.222 97.289V95.3035H746.722V97.289H746.222ZM746.222 101.26V99.2746H746.722V101.26H746.222ZM746.222 105.231V103.246H746.722V105.231H746.222ZM746.222 109.202V107.217H746.722V109.202H746.222ZM746.222 113.174V111.188H746.722V113.174H746.222ZM746.222 117.145V115.159H746.722V117.145H746.222ZM746.222 120.123V119.13H746.722V120.123H746.222Z" fill="#5D616C"/>
<path fill-rule="evenodd" clip-rule="evenodd" d="M746.222 248.544V247.551H746.722V248.544H746.222ZM746.222 252.515V250.529H746.722V252.515H746.222ZM746.222 256.486V254.501H746.722V256.486H746.222ZM746.222 260.457V258.472H746.722V260.457H746.222ZM746.222 264.428V262.443H746.722V264.428H746.222ZM746.222 268.399V266.414H746.722V268.399H746.222ZM746.222 272.371V270.385H746.722V272.371H746.222ZM746.222 276.342V274.356H746.722V276.342H746.222ZM746.222 280.313V278.327H746.722V280.313H746.222ZM746.222 284.284V282.298H746.722V284.284H746.222ZM746.222 288.255V286.27H746.722V288.255H746.222ZM746.222 292.226V290.241H746.722V292.226H746.222ZM746.222 296.197V294.212H746.722V296.197H746.222ZM746.222 300.168V298.183H746.722V300.168H746.222ZM746.222 304.14V302.154H746.722V304.14H746.222ZM746.222 308.111V306.125H746.722V308.111H746.222ZM746.222 312.082V310.096H746.722V312.082H746.222ZM746.222 316.053V314.067H746.722V316.053H746.222ZM746.222 320.024V318.039H746.722V320.024H746.222ZM746.222 323.995V322.01H746.722V323.995H746.222ZM746.222 327.966V325.981H746.722V327.966H746.222ZM746.222 331.938V329.952H746.722V331.938H746.222ZM746.222 335.909V333.923H746.722V335.909H746.222ZM746.222 339.88V337.894H746.722V339.88H746.222ZM746.222 343.851V341.865H746.722V343.851H746.222ZM746.222 347.822V345.836H746.722V347.822H746.222ZM746.222 351.793V349.808H746.722V351.793H746.222ZM746.222 355.764V353.779H746.722V355.764H746.222ZM746.222 359.735V357.75H746.722V359.735H746.222ZM746.222 363.707V361.721H746.722V363.707H746.222ZM746.222 366.685V365.692H746.722V366.685H746.222Z" fill="#5D616C"/>
<path fill-rule="evenodd" clip-rule="evenodd" d="M161.109 248.544V247.551H161.609V248.544H161.109ZM161.109 252.515V250.529H161.609V252.515H161.109ZM161.109 256.486V254.501H161.609V256.486H161.109ZM161.109 260.457V258.472H161.609V260.457H161.109ZM161.109 264.428V262.443H161.609V264.428H161.109ZM161.109 268.399V266.414H161.609V268.399H161.109ZM161.109 272.371V270.385H161.609V272.371H161.109ZM161.109 276.342V274.356H161.609V276.342H161.109ZM161.109 280.313V278.327H161.609V280.313H161.109ZM161.109 284.284V282.298H161.609V284.284H161.109ZM161.109 288.255V286.27H161.609V288.255H161.109ZM161.109 292.226V290.241H161.609V292.226H161.109ZM161.109 296.197V294.212H161.609V296.197H161.109ZM161.109 300.168V298.183H161.609V300.168H161.109ZM161.109 304.14V302.154H161.609V304.14H161.109ZM161.109 308.111V306.125H161.609V308.111H161.109ZM161.109 312.082V310.096H161.609V312.082H161.109ZM161.109 316.053V314.067H161.609V316.053H161.109ZM161.109 320.024V318.039H161.609V320.024H161.109ZM161.109 323.995V322.01H161.609V323.995H161.109ZM161.109 327.966V325.981H161.609V327.966H161.109ZM161.109 331.938V329.952H161.609V331.938H161.109ZM161.109 335.909V333.923H161.609V335.909H161.109ZM161.109 339.88V337.894H161.609V339.88H161.109ZM161.109 343.851V341.865H161.609V343.851H161.109ZM161.109 347.822V345.836H161.609V347.822H161.109ZM161.109 351.793V349.808H161.609V351.793H161.109ZM161.109 355.764V353.779H161.609V355.764H161.109ZM161.109 359.735V357.75H161.609V359.735H161.109ZM161.109 363.707V361.721H161.609V363.707H161.109ZM161.109 366.685V365.692H161.609V366.685H161.109Z" fill="#5D616C"/>
<path fill-rule="evenodd" clip-rule="evenodd" d="M157.353 120.627L158.342 120.627L158.342 121.127L157.353 121.127L157.353 120.627ZM153.394 120.627L155.374 120.627L155.374 121.127L153.394 121.127L153.394 120.627ZM149.436 120.627L151.415 120.627L151.415 121.127L149.436 121.127L149.436 120.627ZM145.477 120.627L147.456 120.627L147.456 121.127L145.477 121.127L145.477 120.627ZM141.519 120.627L143.498 120.627L143.498 121.127L141.519 121.127L141.519 120.627ZM137.56 120.627L139.539 120.627L139.539 121.127L137.56 121.127L137.56 120.627ZM133.601 120.627L135.581 120.627L135.581 121.127L133.601 121.127L133.601 120.627ZM129.643 120.627L131.622 120.627L131.622 121.127L129.643 121.127L129.643 120.627ZM125.684 120.627L127.664 120.627L127.664 121.127L125.684 121.127L125.684 120.627ZM121.726 120.627L123.705 120.627L123.705 121.127L121.726 121.127L121.726 120.627ZM117.767 120.627L119.746 120.627L119.746 121.127L117.767 121.127L117.767 120.627ZM113.809 120.627L115.788 120.627L115.788 121.127L113.809 121.127L113.809 120.627ZM109.85 120.627L111.829 120.627L111.829 121.127L109.85 121.127L109.85 120.627ZM105.892 120.627L107.871 120.627L107.871 121.127L105.892 121.127L105.892 120.627ZM101.933 120.627L103.912 120.627L103.912 121.127L101.933 121.127L101.933 120.627ZM97.9744 120.627L99.9537 120.627L99.9537 121.127L97.9744 121.127L97.9744 120.627ZM94.0158 120.627L95.9951 120.627L95.9951 121.127L94.0158 121.127L94.0158 120.627ZM90.0573 120.627L92.0365 120.627L92.0365 121.127L90.0573 121.127L90.0573 120.627ZM86.0987 120.627L88.078 120.627L88.078 121.127L86.0987 121.127L86.0987 120.627ZM82.1401 120.627L84.1194 120.627L84.1194 121.127L82.1401 121.127L82.1401 120.627ZM78.1816 120.627L80.1609 120.627L80.1609 121.127L78.1816 121.127L78.1816 120.627ZM74.223 120.627L76.2023 120.627L76.2023 121.127L74.223 121.127L74.223 120.627ZM70.2645 120.627L72.2438 120.627L72.2438 121.127L70.2645 121.127L70.2645 120.627ZM66.3059 120.627L68.2852 120.627L68.2852 121.127L66.3059 121.127L66.3059 120.627ZM62.3474 120.627L64.3266 120.627L64.3266 121.127L62.3474 121.127L62.3474 120.627ZM58.3888 120.627L60.3681 120.627L60.3681 121.127L58.3888 121.127L58.3888 120.627ZM54.4302 120.627L56.4095 120.627L56.4095 121.127L54.4302 121.127L54.4302 120.627ZM50.4717 120.627L52.451 120.627L52.451 121.127L50.4717 121.127L50.4717 120.627ZM46.5131 120.627L48.4924 120.627L48.4924 121.127L46.5131 121.127L46.5131 120.627ZM42.5546 120.627L44.5339 120.627L44.5339 121.127L42.5546 121.127L42.5546 120.627ZM38.596 120.627L40.5753 120.627L40.5753 121.127L38.596 121.127L38.596 120.627ZM34.6375 120.627L36.6167 120.627L36.6167 121.127L34.6375 121.127L34.6375 120.627ZM30.6789 120.627L32.6582 120.627L32.6582 121.127L30.6789 121.127L30.6789 120.627ZM26.7203 120.627L28.6996 120.627L28.6996 121.127L26.7203 121.127L26.7203 120.627ZM22.7618 120.627L24.7411 120.627L24.7411 121.127L22.7618 121.127L22.7618 120.627ZM18.8032 120.627L20.7825 120.627L20.7825 121.127L18.8032 121.127L18.8032 120.627ZM14.8447 120.627L16.824 120.627L16.824 121.127L14.8447 121.127L14.8447 120.627ZM10.8861 120.627L12.8654 120.627L12.8654 121.127L10.8861 121.127L10.8861 120.627ZM6.92755 120.627L8.90683 120.627L8.90683 121.127L6.92755 121.127L6.92755 120.627ZM2.96899 120.627L4.94827 120.627L4.94827 121.127L2.96899 121.127L2.96899 120.627ZM-1.52588e-05 120.627L0.989716 120.627L0.989716 121.127L-1.52806e-05 121.127L-1.52588e-05 120.627Z" fill="#5D616C"/>
<path fill-rule="evenodd" clip-rule="evenodd" d="M777.151 119.743L778.14 119.743L778.14 120.243L777.151 120.243L777.151 119.743ZM773.192 119.743L775.171 119.743L775.171 120.243L773.192 120.243L773.192 119.743ZM769.233 119.743L771.213 119.743L771.213 120.243L769.233 120.243L769.233 119.743ZM765.275 119.743L767.254 119.743L767.254 120.243L765.275 120.243L765.275 119.743ZM761.316 119.743L763.296 119.743L763.296 120.243L761.316 120.243L761.316 119.743ZM757.358 119.743L759.337 119.743L759.337 120.243L757.358 120.243L757.358 119.743ZM753.399 119.743L755.378 119.743L755.378 120.243L753.399 120.243L753.399 119.743ZM749.441 119.743L751.42 119.743L751.42 120.243L749.441 120.243L749.441 119.743ZM745.482 119.743L747.461 119.743L747.461 120.243L745.482 120.243L745.482 119.743ZM741.523 119.743L743.503 119.743L743.503 120.243L741.523 120.243L741.523 119.743ZM737.565 119.743L739.544 119.743L739.544 120.243L737.565 120.243L737.565 119.743ZM733.606 119.743L735.586 119.743L735.586 120.243L733.606 120.243L733.606 119.743ZM729.648 119.743L731.627 119.743L731.627 120.243L729.648 120.243L729.648 119.743ZM725.689 119.743L727.669 119.743L727.669 120.243L725.689 120.243L725.689 119.743ZM721.731 119.743L723.71 119.743L723.71 120.243L721.731 120.243L721.731 119.743ZM717.772 119.743L719.751 119.743L719.751 120.243L717.772 120.243L717.772 119.743ZM713.814 119.743L715.793 119.743L715.793 120.243L713.814 120.243L713.814 119.743ZM709.855 119.743L711.834 119.743L711.834 120.243L709.855 120.243L709.855 119.743ZM705.896 119.743L707.876 119.743L707.876 120.243L705.896 120.243L705.896 119.743ZM701.938 119.743L703.917 119.743L703.917 120.243L701.938 120.243L701.938 119.743ZM697.979 119.743L699.959 119.743L699.959 120.243L697.979 120.243L697.979 119.743ZM694.021 119.743L696 119.743L696 120.243L694.021 120.243L694.021 119.743ZM690.062 119.743L692.041 119.743L692.041 120.243L690.062 120.243L690.062 119.743ZM686.104 119.743L688.083 119.743L688.083 120.243L686.104 120.243L686.104 119.743ZM682.145 119.743L684.124 119.743L684.124 120.243L682.145 120.243L682.145 119.743ZM678.187 119.743L680.166 119.743L680.166 120.243L678.187 120.243L678.187 119.743ZM674.228 119.743L676.207 119.743L676.207 120.243L674.228 120.243L674.228 119.743ZM670.269 119.743L672.249 119.743L672.249 120.243L670.269 120.243L670.269 119.743ZM666.311 119.743L668.29 119.743L668.29 120.243L666.311 120.243L666.311 119.743ZM662.352 119.743L664.332 119.743L664.332 120.243L662.352 120.243L662.352 119.743ZM658.394 119.743L660.373 119.743L660.373 120.243L658.394 120.243L658.394 119.743ZM654.435 119.743L656.414 119.743L656.414 120.243L654.435 120.243L654.435 119.743ZM650.477 119.743L652.456 119.743L652.456 120.243L650.477 120.243L650.477 119.743ZM646.518 119.743L648.497 119.743L648.497 120.243L646.518 120.243L646.518 119.743ZM642.56 119.743L644.539 119.743L644.539 120.243L642.56 120.243L642.56 119.743ZM638.601 119.743L640.58 119.743L640.58 120.243L638.601 120.243L638.601 119.743ZM634.642 119.743L636.622 119.743L636.622 120.243L634.642 120.243L634.642 119.743ZM630.684 119.743L632.663 119.743L632.663 120.243L630.684 120.243L630.684 119.743ZM626.725 119.743L628.705 119.743L628.705 120.243L626.725 120.243L626.725 119.743ZM622.767 119.743L624.746 119.743L624.746 120.243L622.767 120.243L622.767 119.743ZM619.798 119.743L620.787 119.743L620.787 120.243L619.798 120.243L619.798 119.743Z" fill="#5D616C"/>
<path fill-rule="evenodd" clip-rule="evenodd" d="M777.151 322.702L778.14 322.702L778.14 323.202L777.151 323.202L777.151 322.702ZM773.192 322.702L775.171 322.702L775.171 323.202L773.192 323.202L773.192 322.702ZM769.233 322.702L771.213 322.702L771.213 323.202L769.233 323.202L769.233 322.702ZM765.275 322.702L767.254 322.702L767.254 323.202L765.275 323.202L765.275 322.702ZM761.316 322.702L763.296 322.702L763.296 323.202L761.316 323.202L761.316 322.702ZM757.358 322.702L759.337 322.702L759.337 323.202L757.358 323.202L757.358 322.702ZM753.399 322.702L755.378 322.702L755.378 323.202L753.399 323.202L753.399 322.702ZM749.441 322.702L751.42 322.702L751.42 323.202L749.441 323.202L749.441 322.702ZM745.482 322.702L747.461 322.702L747.461 323.202L745.482 323.202L745.482 322.702ZM741.523 322.702L743.503 322.702L743.503 323.202L741.523 323.202L741.523 322.702ZM737.565 322.702L739.544 322.702L739.544 323.202L737.565 323.202L737.565 322.702ZM733.606 322.702L735.586 322.702L735.586 323.202L733.606 323.202L733.606 322.702ZM729.648 322.702L731.627 322.702L731.627 323.202L729.648 323.202L729.648 322.702ZM725.689 322.702L727.669 322.702L727.669 323.202L725.689 323.202L725.689 322.702ZM721.731 322.702L723.71 322.702L723.71 323.202L721.731 323.202L721.731 322.702ZM717.772 322.702L719.751 322.702L719.751 323.202L717.772 323.202L717.772 322.702ZM713.814 322.702L715.793 322.702L715.793 323.202L713.814 323.202L713.814 322.702ZM709.855 322.702L711.834 322.702L711.834 323.202L709.855 323.202L709.855 322.702ZM705.896 322.702L707.876 322.702L707.876 323.202L705.896 323.202L705.896 322.702ZM701.938 322.702L703.917 322.702L703.917 323.202L701.938 323.202L701.938 322.702ZM697.979 322.702L699.959 322.702L699.959 323.202L697.979 323.202L697.979 322.702ZM694.021 322.702L696 322.702L696 323.202L694.021 323.202L694.021 322.702ZM690.062 322.702L692.041 322.702L692.041 323.202L690.062 323.202L690.062 322.702ZM686.104 322.702L688.083 322.702L688.083 323.202L686.104 323.202L686.104 322.702ZM682.145 322.702L684.124 322.702L684.124 323.202L682.145 323.202L682.145 322.702ZM678.187 322.702L680.166 322.702L680.166 323.202L678.187 323.202L678.187 322.702ZM674.228 322.702L676.207 322.702L676.207 323.202L674.228 323.202L674.228 322.702ZM670.269 322.702L672.249 322.702L672.249 323.202L670.269 323.202L670.269 322.702ZM666.311 322.702L668.29 322.702L668.29 323.202L666.311 323.202L666.311 322.702ZM662.352 322.702L664.332 322.702L664.332 323.202L662.352 323.202L662.352 322.702ZM658.394 322.702L660.373 322.702L660.373 323.202L658.394 323.202L658.394 322.702ZM654.435 322.702L656.414 322.702L656.414 323.202L654.435 323.202L654.435 322.702ZM650.477 322.702L652.456 322.702L652.456 323.202L650.477 323.202L650.477 322.702ZM646.518 322.702L648.497 322.702L648.497 323.202L646.518 323.202L646.518 322.702ZM642.56 322.702L644.539 322.702L644.539 323.202L642.56 323.202L642.56 322.702ZM638.601 322.702L640.58 322.702L640.58 323.202L638.601 323.202L638.601 322.702ZM634.642 322.702L636.622 322.702L636.622 323.202L634.642 323.202L634.642 322.702ZM630.684 322.702L632.663 322.702L632.663 323.202L630.684 323.202L630.684 322.702ZM626.725 322.702L628.705 322.702L628.705 323.202L626.725 323.202L626.725 322.702ZM622.767 322.702L624.746 322.702L624.746 323.202L622.767 323.202L622.767 322.702ZM619.798 322.702L620.787 322.702L620.787 323.202L619.798 323.202L619.798 322.702Z" fill="#5D616C"/>
<path fill-rule="evenodd" clip-rule="evenodd" d="M157.353 321.194L158.342 321.194L158.342 321.694L157.353 321.694L157.353 321.194ZM153.394 321.194L155.374 321.194L155.374 321.694L153.394 321.694L153.394 321.194ZM149.436 321.194L151.415 321.194L151.415 321.694L149.436 321.694L149.436 321.194ZM145.477 321.194L147.456 321.194L147.456 321.694L145.477 321.694L145.477 321.194ZM141.519 321.194L143.498 321.194L143.498 321.694L141.519 321.694L141.519 321.194ZM137.56 321.194L139.539 321.194L139.539 321.694L137.56 321.694L137.56 321.194ZM133.601 321.194L135.581 321.194L135.581 321.694L133.601 321.694L133.601 321.194ZM129.643 321.194L131.622 321.194L131.622 321.694L129.643 321.694L129.643 321.194ZM125.684 321.194L127.664 321.194L127.664 321.694L125.684 321.694L125.684 321.194ZM121.726 321.194L123.705 321.194L123.705 321.694L121.726 321.694L121.726 321.194ZM117.767 321.194L119.746 321.194L119.746 321.694L117.767 321.694L117.767 321.194ZM113.809 321.194L115.788 321.194L115.788 321.694L113.809 321.694L113.809 321.194ZM109.85 321.194L111.829 321.194L111.829 321.694L109.85 321.694L109.85 321.194ZM105.892 321.194L107.871 321.194L107.871 321.694L105.892 321.694L105.892 321.194ZM101.933 321.194L103.912 321.194L103.912 321.694L101.933 321.694L101.933 321.194ZM97.9744 321.194L99.9537 321.194L99.9537 321.694L97.9744 321.694L97.9744 321.194ZM94.0158 321.194L95.9951 321.194L95.9951 321.694L94.0158 321.694L94.0158 321.194ZM90.0573 321.194L92.0365 321.194L92.0365 321.694L90.0573 321.694L90.0573 321.194ZM86.0987 321.194L88.078 321.194L88.078 321.694L86.0987 321.694L86.0987 321.194ZM82.1401 321.194L84.1194 321.194L84.1194 321.694L82.1401 321.694L82.1401 321.194ZM78.1816 321.194L80.1609 321.194L80.1609 321.694L78.1816 321.694L78.1816 321.194ZM74.223 321.194L76.2023 321.194L76.2023 321.694L74.223 321.694L74.223 321.194ZM70.2645 321.194L72.2438 321.194L72.2438 321.694L70.2645 321.694L70.2645 321.194ZM66.3059 321.194L68.2852 321.194L68.2852 321.694L66.3059 321.694L66.3059 321.194ZM62.3474 321.194L64.3266 321.194L64.3266 321.694L62.3474 321.694L62.3474 321.194ZM58.3888 321.194L60.3681 321.194L60.3681 321.694L58.3888 321.694L58.3888 321.194ZM54.4302 321.194L56.4095 321.194L56.4095 321.694L54.4302 321.694L54.4302 321.194ZM50.4717 321.194L52.451 321.194L52.451 321.694L50.4717 321.694L50.4717 321.194ZM46.5131 321.194L48.4924 321.194L48.4924 321.694L46.5131 321.694L46.5131 321.194ZM42.5546 321.194L44.5339 321.194L44.5339 321.694L42.5546 321.694L42.5546 321.194ZM38.596 321.194L40.5753 321.194L40.5753 321.694L38.596 321.694L38.596 321.194ZM34.6375 321.194L36.6167 321.194L36.6167 321.694L34.6375 321.694L34.6375 321.194ZM30.6789 321.194L32.6582 321.194L32.6582 321.694L30.6789 321.694L30.6789 321.194ZM26.7203 321.194L28.6996 321.194L28.6996 321.694L26.7203 321.694L26.7203 321.194ZM22.7618 321.194L24.7411 321.194L24.7411 321.694L22.7618 321.694L22.7618 321.194ZM18.8032 321.194L20.7825 321.194L20.7825 321.694L18.8032 321.694L18.8032 321.194ZM14.8447 321.194L16.824 321.194L16.824 321.694L14.8447 321.694L14.8447 321.194ZM10.8861 321.194L12.8654 321.194L12.8654 321.694L10.8861 321.694L10.8861 321.194ZM6.92755 321.194L8.90683 321.194L8.90683 321.694L6.92755 321.694L6.92755 321.194ZM2.96899 321.194L4.94827 321.194L4.94827 321.694L2.96899 321.694L2.96899 321.194ZM-1.52588e-05 321.194L0.989716 321.194L0.989716 321.694L-1.52806e-05 321.694L-1.52588e-05 321.194Z" fill="#5D616C"/>
<path fill-rule="evenodd" clip-rule="evenodd" d="M157.353 45.2258L158.342 45.2258L158.342 45.7258L157.353 45.7258L157.353 45.2258ZM153.394 45.2258L155.374 45.2258L155.374 45.7258L153.394 45.7258L153.394 45.2258ZM149.436 45.2258L151.415 45.2258L151.415 45.7258L149.436 45.7258L149.436 45.2258ZM145.477 45.2258L147.456 45.2258L147.456 45.7258L145.477 45.7258L145.477 45.2258ZM141.519 45.2258L143.498 45.2258L143.498 45.7258L141.519 45.7258L141.519 45.2258ZM137.56 45.2258L139.539 45.2258L139.539 45.7258L137.56 45.7258L137.56 45.2258ZM133.601 45.2258L135.581 45.2258L135.581 45.7258L133.601 45.7258L133.601 45.2258ZM129.643 45.2258L131.622 45.2258L131.622 45.7258L129.643 45.7258L129.643 45.2258ZM125.684 45.2258L127.664 45.2258L127.664 45.7258L125.684 45.7258L125.684 45.2258ZM121.726 45.2258L123.705 45.2258L123.705 45.7258L121.726 45.7258L121.726 45.2258ZM117.767 45.2258L119.746 45.2258L119.746 45.7258L117.767 45.7258L117.767 45.2258ZM113.809 45.2258L115.788 45.2258L115.788 45.7258L113.809 45.7258L113.809 45.2258ZM109.85 45.2258L111.829 45.2258L111.829 45.7258L109.85 45.7258L109.85 45.2258ZM105.892 45.2258L107.871 45.2258L107.871 45.7258L105.892 45.7258L105.892 45.2258ZM101.933 45.2258L103.912 45.2258L103.912 45.7258L101.933 45.7258L101.933 45.2258ZM97.9744 45.2258L99.9537 45.2258L99.9537 45.7258L97.9744 45.7258L97.9744 45.2258ZM94.0158 45.2258L95.9951 45.2258L95.9951 45.7258L94.0158 45.7258L94.0158 45.2258ZM90.0573 45.2258L92.0365 45.2258L92.0365 45.7258L90.0573 45.7258L90.0573 45.2258ZM86.0987 45.2258L88.078 45.2258L88.078 45.7258L86.0987 45.7258L86.0987 45.2258ZM82.1401 45.2258L84.1194 45.2258L84.1194 45.7258L82.1401 45.7258L82.1401 45.2258ZM78.1816 45.2258L80.1609 45.2258L80.1609 45.7258L78.1816 45.7258L78.1816 45.2258ZM74.223 45.2258L76.2023 45.2258L76.2023 45.7258L74.223 45.7258L74.223 45.2258ZM70.2645 45.2258L72.2438 45.2258L72.2438 45.7258L70.2645 45.7258L70.2645 45.2258ZM66.3059 45.2258L68.2852 45.2258L68.2852 45.7258L66.3059 45.7258L66.3059 45.2258ZM62.3474 45.2258L64.3266 45.2258L64.3266 45.7258L62.3474 45.7258L62.3474 45.2258ZM58.3888 45.2258L60.3681 45.2258L60.3681 45.7258L58.3888 45.7258L58.3888 45.2258ZM54.4302 45.2258L56.4095 45.2258L56.4095 45.7258L54.4302 45.7258L54.4302 45.2258ZM50.4717 45.2258L52.451 45.2258L52.451 45.7258L50.4717 45.7258L50.4717 45.2258ZM46.5131 45.2258L48.4924 45.2258L48.4924 45.7258L46.5131 45.7258L46.5131 45.2258ZM42.5546 45.2258L44.5339 45.2258L44.5339 45.7258L42.5546 45.7258L42.5546 45.2258ZM38.596 45.2258L40.5753 45.2258L40.5753 45.7258L38.596 45.7258L38.596 45.2258ZM34.6375 45.2258L36.6167 45.2258L36.6167 45.7258L34.6375 45.7258L34.6375 45.2258ZM30.6789 45.2258L32.6582 45.2258L32.6582 45.7258L30.6789 45.7258L30.6789 45.2258ZM26.7203 45.2258L28.6996 45.2258L28.6996 45.7258L26.7203 45.7258L26.7203 45.2258ZM22.7618 45.2258L24.7411 45.2258L24.7411 45.7258L22.7618 45.7258L22.7618 45.2258ZM18.8032 45.2258L20.7825 45.2258L20.7825 45.7258L18.8032 45.7258L18.8032 45.2258ZM14.8447 45.2258L16.824 45.2258L16.824 45.7258L14.8447 45.7258L14.8447 45.2258ZM10.8861 45.2258L12.8654 45.2258L12.8654 45.7258L10.8861 45.7258L10.8861 45.2258ZM6.92755 45.2258L8.90683 45.2258L8.90683 45.7258L6.92755 45.7258L6.92755 45.2258ZM2.96899 45.2258L4.94827 45.2258L4.94827 45.7258L2.96899 45.7258L2.96899 45.2258ZM-1.52588e-05 45.2258L0.989716 45.2258L0.989716 45.7258L-1.52806e-05 45.7258L-1.52588e-05 45.2258Z" fill="#5D616C"/>
<path fill-rule="evenodd" clip-rule="evenodd" d="M777.151 45.2258L778.14 45.2258L778.14 45.7258L777.151 45.7258L777.151 45.2258ZM773.192 45.2258L775.171 45.2258L775.171 45.7258L773.192 45.7258L773.192 45.2258ZM769.233 45.2258L771.213 45.2258L771.213 45.7258L769.233 45.7258L769.233 45.2258ZM765.275 45.2258L767.254 45.2258L767.254 45.7258L765.275 45.7258L765.275 45.2258ZM761.316 45.2258L763.296 45.2258L763.296 45.7258L761.316 45.7258L761.316 45.2258ZM757.358 45.2258L759.337 45.2258L759.337 45.7258L757.358 45.7258L757.358 45.2258ZM753.399 45.2258L755.378 45.2258L755.378 45.7258L753.399 45.7258L753.399 45.2258ZM749.441 45.2258L751.42 45.2258L751.42 45.7258L749.441 45.7258L749.441 45.2258ZM745.482 45.2258L747.461 45.2258L747.461 45.7258L745.482 45.7258L745.482 45.2258ZM741.523 45.2258L743.503 45.2258L743.503 45.7258L741.523 45.7258L741.523 45.2258ZM737.565 45.2258L739.544 45.2258L739.544 45.7258L737.565 45.7258L737.565 45.2258ZM733.606 45.2258L735.586 45.2258L735.586 45.7258L733.606 45.7258L733.606 45.2258ZM729.648 45.2258L731.627 45.2258L731.627 45.7258L729.648 45.7258L729.648 45.2258ZM725.689 45.2258L727.669 45.2258L727.669 45.7258L725.689 45.7258L725.689 45.2258ZM721.731 45.2258L723.71 45.2258L723.71 45.7258L721.731 45.7258L721.731 45.2258ZM717.772 45.2258L719.751 45.2258L719.751 45.7258L717.772 45.7258L717.772 45.2258ZM713.814 45.2258L715.793 45.2258L715.793 45.7258L713.814 45.7258L713.814 45.2258ZM709.855 45.2258L711.834 45.2258L711.834 45.7258L709.855 45.7258L709.855 45.2258ZM705.896 45.2258L707.876 45.2258L707.876 45.7258L705.896 45.7258L705.896 45.2258ZM701.938 45.2258L703.917 45.2258L703.917 45.7258L701.938 45.7258L701.938 45.2258ZM697.979 45.2258L699.959 45.2258L699.959 45.7258L697.979 45.7258L697.979 45.2258ZM694.021 45.2258L696 45.2258L696 45.7258L694.021 45.7258L694.021 45.2258ZM690.062 45.2258L692.041 45.2258L692.041 45.7258L690.062 45.7258L690.062 45.2258ZM686.104 45.2258L688.083 45.2258L688.083 45.7258L686.104 45.7258L686.104 45.2258ZM682.145 45.2258L684.124 45.2258L684.124 45.7258L682.145 45.7258L682.145 45.2258ZM678.187 45.2258L680.166 45.2258L680.166 45.7258L678.187 45.7258L678.187 45.2258ZM674.228 45.2258L676.207 45.2258L676.207 45.7258L674.228 45.7258L674.228 45.2258ZM670.269 45.2258L672.249 45.2258L672.249 45.7258L670.269 45.7258L670.269 45.2258ZM666.311 45.2258L668.29 45.2258L668.29 45.7258L666.311 45.7258L666.311 45.2258ZM662.352 45.2258L664.332 45.2258L664.332 45.7258L662.352 45.7258L662.352 45.2258ZM658.394 45.2258L660.373 45.2258L660.373 45.7258L658.394 45.7258L658.394 45.2258ZM654.435 45.2258L656.414 45.2258L656.414 45.7258L654.435 45.7258L654.435 45.2258ZM650.477 45.2258L652.456 45.2258L652.456 45.7258L650.477 45.7258L650.477 45.2258ZM646.518 45.2258L648.497 45.2258L648.497 45.7258L646.518 45.7258L646.518 45.2258ZM642.56 45.2258L644.539 45.2258L644.539 45.7258L642.56 45.7258L642.56 45.2258ZM638.601 45.2258L640.58 45.2258L640.58 45.7258L638.601 45.7258L638.601 45.2258ZM634.642 45.2258L636.622 45.2258L636.622 45.7258L634.642 45.7258L634.642 45.2258ZM630.684 45.2258L632.663 45.2258L632.663 45.7258L630.684 45.7258L630.684 45.2258ZM626.725 45.2258L628.705 45.2258L628.705 45.7258L626.725 45.7258L626.725 45.2258ZM622.767 45.2258L624.746 45.2258L624.746 45.7258L622.767 45.7258L622.767 45.2258ZM619.798 45.2258L620.787 45.2258L620.787 45.7258L619.798 45.7258L619.798 45.2258Z" fill="#5D616C"/>
<path fill-rule="evenodd" clip-rule="evenodd" d="M777.151 247.301L778.14 247.301L778.14 247.801L777.151 247.801L777.151 247.301ZM773.192 247.301L775.171 247.301L775.171 247.801L773.192 247.801L773.192 247.301ZM769.233 247.301L771.213 247.301L771.213 247.801L769.233 247.801L769.233 247.301ZM765.275 247.301L767.254 247.301L767.254 247.801L765.275 247.801L765.275 247.301ZM761.316 247.301L763.296 247.301L763.296 247.801L761.316 247.801L761.316 247.301ZM757.358 247.301L759.337 247.301L759.337 247.801L757.358 247.801L757.358 247.301ZM753.399 247.301L755.378 247.301L755.378 247.801L753.399 247.801L753.399 247.301ZM749.441 247.301L751.42 247.301L751.42 247.801L749.441 247.801L749.441 247.301ZM745.482 247.301L747.461 247.301L747.461 247.801L745.482 247.801L745.482 247.301ZM741.523 247.301L743.503 247.301L743.503 247.801L741.523 247.801L741.523 247.301ZM737.565 247.301L739.544 247.301L739.544 247.801L737.565 247.801L737.565 247.301ZM733.606 247.301L735.586 247.301L735.586 247.801L733.606 247.801L733.606 247.301ZM729.648 247.301L731.627 247.301L731.627 247.801L729.648 247.801L729.648 247.301ZM725.689 247.301L727.669 247.301L727.669 247.801L725.689 247.801L725.689 247.301ZM721.731 247.301L723.71 247.301L723.71 247.801L721.731 247.801L721.731 247.301ZM717.772 247.301L719.751 247.301L719.751 247.801L717.772 247.801L717.772 247.301ZM713.814 247.301L715.793 247.301L715.793 247.801L713.814 247.801L713.814 247.301ZM709.855 247.301L711.834 247.301L711.834 247.801L709.855 247.801L709.855 247.301ZM705.896 247.301L707.876 247.301L707.876 247.801L705.896 247.801L705.896 247.301ZM701.938 247.301L703.917 247.301L703.917 247.801L701.938 247.801L701.938 247.301ZM697.979 247.301L699.959 247.301L699.959 247.801L697.979 247.801L697.979 247.301ZM694.021 247.301L696 247.301L696 247.801L694.021 247.801L694.021 247.301ZM690.062 247.301L692.041 247.301L692.041 247.801L690.062 247.801L690.062 247.301ZM686.104 247.301L688.083 247.301L688.083 247.801L686.104 247.801L686.104 247.301ZM682.145 247.301L684.124 247.301L684.124 247.801L682.145 247.801L682.145 247.301ZM678.187 247.301L680.166 247.301L680.166 247.801L678.187 247.801L678.187 247.301ZM674.228 247.301L676.207 247.301L676.207 247.801L674.228 247.801L674.228 247.301ZM670.269 247.301L672.249 247.301L672.249 247.801L670.269 247.801L670.269 247.301ZM666.311 247.301L668.29 247.301L668.29 247.801L666.311 247.801L666.311 247.301ZM662.352 247.301L664.332 247.301L664.332 247.801L662.352 247.801L662.352 247.301ZM658.394 247.301L660.373 247.301L660.373 247.801L658.394 247.801L658.394 247.301ZM654.435 247.301L656.414 247.301L656.414 247.801L654.435 247.801L654.435 247.301ZM650.477 247.301L652.456 247.301L652.456 247.801L650.477 247.801L650.477 247.301ZM646.518 247.301L648.497 247.301L648.497 247.801L646.518 247.801L646.518 247.301ZM642.56 247.301L644.539 247.301L644.539 247.801L642.56 247.801L642.56 247.301ZM638.601 247.301L640.58 247.301L640.58 247.801L638.601 247.801L638.601 247.301ZM634.642 247.301L636.622 247.301L636.622 247.801L634.642 247.801L634.642 247.301ZM630.684 247.301L632.663 247.301L632.663 247.801L630.684 247.801L630.684 247.301ZM626.725 247.301L628.705 247.301L628.705 247.801L626.725 247.801L626.725 247.301ZM622.767 247.301L624.746 247.301L624.746 247.801L622.767 247.801L622.767 247.301ZM619.798 247.301L620.787 247.301L620.787 247.801L619.798 247.801L619.798 247.301Z" fill="#5D616C"/>
<path fill-rule="evenodd" clip-rule="evenodd" d="M157.353 245.793L158.342 245.793L158.342 246.293L157.353 246.293L157.353 245.793ZM153.394 245.793L155.374 245.793L155.374 246.293L153.394 246.293L153.394 245.793ZM149.436 245.793L151.415 245.793L151.415 246.293L149.436 246.293L149.436 245.793ZM145.477 245.793L147.456 245.793L147.456 246.293L145.477 246.293L145.477 245.793ZM141.519 245.793L143.498 245.793L143.498 246.293L141.519 246.293L141.519 245.793ZM137.56 245.793L139.539 245.793L139.539 246.293L137.56 246.293L137.56 245.793ZM133.601 245.793L135.581 245.793L135.581 246.293L133.601 246.293L133.601 245.793ZM129.643 245.793L131.622 245.793L131.622 246.293L129.643 246.293L129.643 245.793ZM125.684 245.793L127.664 245.793L127.664 246.293L125.684 246.293L125.684 245.793ZM121.726 245.793L123.705 245.793L123.705 246.293L121.726 246.293L121.726 245.793ZM117.767 245.793L119.746 245.793L119.746 246.293L117.767 246.293L117.767 245.793ZM113.809 245.793L115.788 245.793L115.788 246.293L113.809 246.293L113.809 245.793ZM109.85 245.793L111.829 245.793L111.829 246.293L109.85 246.293L109.85 245.793ZM105.892 245.793L107.871 245.793L107.871 246.293L105.892 246.293L105.892 245.793ZM101.933 245.793L103.912 245.793L103.912 246.293L101.933 246.293L101.933 245.793ZM97.9744 245.793L99.9537 245.793L99.9537 246.293L97.9744 246.293L97.9744 245.793ZM94.0158 245.793L95.9951 245.793L95.9951 246.293L94.0158 246.293L94.0158 245.793ZM90.0573 245.793L92.0365 245.793L92.0365 246.293L90.0573 246.293L90.0573 245.793ZM86.0987 245.793L88.078 245.793L88.078 246.293L86.0987 246.293L86.0987 245.793ZM82.1401 245.793L84.1194 245.793L84.1194 246.293L82.1401 246.293L82.1401 245.793ZM78.1816 245.793L80.1609 245.793L80.1609 246.293L78.1816 246.293L78.1816 245.793ZM74.223 245.793L76.2023 245.793L76.2023 246.293L74.223 246.293L74.223 245.793ZM70.2645 245.793L72.2438 245.793L72.2438 246.293L70.2645 246.293L70.2645 245.793ZM66.3059 245.793L68.2852 245.793L68.2852 246.293L66.3059 246.293L66.3059 245.793ZM62.3474 245.793L64.3266 245.793L64.3266 246.293L62.3474 246.293L62.3474 245.793ZM58.3888 245.793L60.3681 245.793L60.3681 246.293L58.3888 246.293L58.3888 245.793ZM54.4302 245.793L56.4095 245.793L56.4095 246.293L54.4302 246.293L54.4302 245.793ZM50.4717 245.793L52.451 245.793L52.451 246.293L50.4717 246.293L50.4717 245.793ZM46.5131 245.793L48.4924 245.793L48.4924 246.293L46.5131 246.293L46.5131 245.793ZM42.5546 245.793L44.5339 245.793L44.5339 246.293L42.5546 246.293L42.5546 245.793ZM38.596 245.793L40.5753 245.793L40.5753 246.293L38.596 246.293L38.596 245.793ZM34.6375 245.793L36.6167 245.793L36.6167 246.293L34.6375 246.293L34.6375 245.793ZM30.6789 245.793L32.6582 245.793L32.6582 246.293L30.6789 246.293L30.6789 245.793ZM26.7203 245.793L28.6996 245.793L28.6996 246.293L26.7203 246.293L26.7203 245.793ZM22.7618 245.793L24.7411 245.793L24.7411 246.293L22.7618 246.293L22.7618 245.793ZM18.8032 245.793L20.7825 245.793L20.7825 246.293L18.8032 246.293L18.8032 245.793ZM14.8447 245.793L16.824 245.793L16.824 246.293L14.8447 246.293L14.8447 245.793ZM10.8861 245.793L12.8654 245.793L12.8654 246.293L10.8861 246.293L10.8861 245.793ZM6.92755 245.793L8.90683 245.793L8.90683 246.293L6.92755 246.293L6.92755 245.793ZM2.96899 245.793L4.94827 245.793L4.94827 246.293L2.96899 246.293L2.96899 245.793ZM-1.52588e-05 245.793L0.989716 245.793L0.989716 246.293L-1.52806e-05 246.293L-1.52588e-05 245.793Z" fill="#5D616C"/>
<path fill-rule="evenodd" clip-rule="evenodd" d="M34.4345 1.98192V0.989136H34.9345V1.98192H34.4345ZM34.4345 5.95305V3.96748H34.9345V5.95305H34.4345ZM34.4345 9.92418V7.93861H34.9345V9.92418H34.4345ZM34.4345 13.8953V11.9097H34.9345V13.8953H34.4345ZM34.4345 17.8664V15.8809H34.9345V17.8664H34.4345ZM34.4345 21.8376V19.852H34.9345V21.8376H34.4345ZM34.4345 25.8087V23.8231H34.9345V25.8087H34.4345ZM34.4345 29.7798V27.7943H34.9345V29.7798H34.4345ZM34.4345 33.751V31.7654H34.9345V33.751H34.4345ZM34.4345 37.7221V35.7365H34.9345V37.7221H34.4345ZM34.4345 41.6932V39.7076H34.9345V41.6932H34.4345ZM34.4345 45.6643V43.6788H34.9345V45.6643H34.4345ZM34.4345 49.6355V47.6499H34.9345V49.6355H34.4345ZM34.4345 53.6066V51.621H34.9345V53.6066H34.4345ZM34.4345 57.5777V55.5922H34.9345V57.5777H34.4345ZM34.4345 61.5489V59.5633H34.9345V61.5489H34.4345ZM34.4345 65.52V63.5344H34.9345V65.52H34.4345ZM34.4345 69.4911V67.5056H34.9345V69.4911H34.4345ZM34.4345 73.4623V71.4767H34.9345V73.4623H34.4345ZM34.4345 77.4334V75.4478H34.9345V77.4334H34.4345ZM34.4345 81.4045V79.419H34.9345V81.4045H34.4345ZM34.4345 85.3756V83.3901H34.9345V85.3756H34.4345ZM34.4345 89.3468V87.3612H34.9345V89.3468H34.4345ZM34.4345 93.3179V91.3323H34.9345V93.3179H34.4345ZM34.4345 97.289V95.3035H34.9345V97.289H34.4345ZM34.4345 101.26V99.2746H34.9345V101.26H34.4345ZM34.4345 105.231V103.246H34.9345V105.231H34.4345ZM34.4345 109.202V107.217H34.9345V109.202H34.4345ZM34.4345 113.174V111.188H34.9345V113.174H34.4345ZM34.4345 117.145V115.159H34.9345V117.145H34.4345ZM34.4345 120.123V119.13H34.9345V120.123H34.4345Z" fill="#5D616C"/>
<path fill-rule="evenodd" clip-rule="evenodd" d="M619.548 1.98192V0.989136H620.048V1.98192H619.548ZM619.548 5.95305V3.96748H620.048V5.95305H619.548ZM619.548 9.92418V7.93861H620.048V9.92418H619.548ZM619.548 13.8953V11.9097H620.048V13.8953H619.548ZM619.548 17.8664V15.8809H620.048V17.8664H619.548ZM619.548 21.8376V19.852H620.048V21.8376H619.548ZM619.548 25.8087V23.8231H620.048V25.8087H619.548ZM619.548 29.7798V27.7943H620.048V29.7798H619.548ZM619.548 33.751V31.7654H620.048V33.751H619.548ZM619.548 37.7221V35.7365H620.048V37.7221H619.548ZM619.548 41.6932V39.7076H620.048V41.6932H619.548ZM619.548 45.6643V43.6788H620.048V45.6643H619.548ZM619.548 49.6355V47.6499H620.048V49.6355H619.548ZM619.548 53.6066V51.621H620.048V53.6066H619.548ZM619.548 57.5777V55.5922H620.048V57.5777H619.548ZM619.548 61.5489V59.5633H620.048V61.5489H619.548ZM619.548 65.52V63.5344H620.048V65.52H619.548ZM619.548 69.4911V67.5056H620.048V69.4911H619.548ZM619.548 73.4623V71.4767H620.048V73.4623H619.548ZM619.548 77.4334V75.4478H620.048V77.4334H619.548ZM619.548 81.4045V79.419H620.048V81.4045H619.548ZM619.548 85.3756V83.3901H620.048V85.3756H619.548ZM619.548 89.3468V87.3612H620.048V89.3468H619.548ZM619.548 93.3179V91.3323H620.048V93.3179H619.548ZM619.548 97.289V95.3035H620.048V97.289H619.548ZM619.548 101.26V99.2746H620.048V101.26H619.548ZM619.548 105.231V103.246H620.048V105.231H619.548ZM619.548 109.202V107.217H620.048V109.202H619.548ZM619.548 113.174V111.188H620.048V113.174H619.548ZM619.548 117.145V115.159H620.048V117.145H619.548ZM619.548 120.123V119.13H620.048V120.123H619.548Z" fill="#5D616C"/>
<path fill-rule="evenodd" clip-rule="evenodd" d="M619.548 248.544V247.551H620.048V248.544H619.548ZM619.548 252.515V250.529H620.048V252.515H619.548ZM619.548 256.486V254.501H620.048V256.486H619.548ZM619.548 260.457V258.472H620.048V260.457H619.548ZM619.548 264.428V262.443H620.048V264.428H619.548ZM619.548 268.399V266.414H620.048V268.399H619.548ZM619.548 272.371V270.385H620.048V272.371H619.548ZM619.548 276.342V274.356H620.048V276.342H619.548ZM619.548 280.313V278.327H620.048V280.313H619.548ZM619.548 284.284V282.298H620.048V284.284H619.548ZM619.548 288.255V286.27H620.048V288.255H619.548ZM619.548 292.226V290.241H620.048V292.226H619.548ZM619.548 296.197V294.212H620.048V296.197H619.548ZM619.548 300.168V298.183H620.048V300.168H619.548ZM619.548 304.14V302.154H620.048V304.14H619.548ZM619.548 308.111V306.125H620.048V308.111H619.548ZM619.548 312.082V310.096H620.048V312.082H619.548ZM619.548 316.053V314.067H620.048V316.053H619.548ZM619.548 320.024V318.039H620.048V320.024H619.548ZM619.548 323.995V322.01H620.048V323.995H619.548ZM619.548 327.966V325.981H620.048V327.966H619.548ZM619.548 331.938V329.952H620.048V331.938H619.548ZM619.548 335.909V333.923H620.048V335.909H619.548ZM619.548 339.88V337.894H620.048V339.88H619.548ZM619.548 343.851V341.865H620.048V343.851H619.548ZM619.548 347.822V345.836H620.048V347.822H619.548ZM619.548 351.793V349.808H620.048V351.793H619.548ZM619.548 355.764V353.779H620.048V355.764H619.548ZM619.548 359.735V357.75H620.048V359.735H619.548ZM619.548 363.707V361.721H620.048V363.707H619.548ZM619.548 366.685V365.692H620.048V366.685H619.548Z" fill="#5D616C"/>
<path fill-rule="evenodd" clip-rule="evenodd" d="M34.4345 248.544V247.551H34.9345V248.544H34.4345ZM34.4345 252.515V250.529H34.9345V252.515H34.4345ZM34.4345 256.486V254.501H34.9345V256.486H34.4345ZM34.4345 260.457V258.472H34.9345V260.457H34.4345ZM34.4345 264.428V262.443H34.9345V264.428H34.4345ZM34.4345 268.399V266.414H34.9345V268.399H34.4345ZM34.4345 272.371V270.385H34.9345V272.371H34.4345ZM34.4345 276.342V274.356H34.9345V276.342H34.4345ZM34.4345 280.313V278.327H34.9345V280.313H34.4345ZM34.4345 284.284V282.298H34.9345V284.284H34.4345ZM34.4345 288.255V286.27H34.9345V288.255H34.4345ZM34.4345 292.226V290.241H34.9345V292.226H34.4345ZM34.4345 296.197V294.212H34.9345V296.197H34.4345ZM34.4345 300.168V298.183H34.9345V300.168H34.4345ZM34.4345 304.14V302.154H34.9345V304.14H34.4345ZM34.4345 308.111V306.125H34.9345V308.111H34.4345ZM34.4345 312.082V310.096H34.9345V312.082H34.4345ZM34.4345 316.053V314.067H34.9345V316.053H34.4345ZM34.4345 320.024V318.039H34.9345V320.024H34.4345ZM34.4345 323.995V322.01H34.9345V323.995H34.4345ZM34.4345 327.966V325.981H34.9345V327.966H34.4345ZM34.4345 331.938V329.952H34.9345V331.938H34.4345ZM34.4345 335.909V333.923H34.9345V335.909H34.4345ZM34.4345 339.88V337.894H34.9345V339.88H34.4345ZM34.4345 343.851V341.865H34.9345V343.851H34.4345ZM34.4345 347.822V345.836H34.9345V347.822H34.4345ZM34.4345 351.793V349.808H34.9345V351.793H34.4345ZM34.4345 355.764V353.779H34.9345V355.764H34.4345ZM34.4345 359.735V357.75H34.9345V359.735H34.4345ZM34.4345 363.707V361.721H34.9345V363.707H34.4345ZM34.4345 366.685V365.692H34.9345V366.685H34.4345Z" fill="#5D616C"/>
</svg>
