<svg width="100" height="86" viewBox="0 0 100 86" fill="none" xmlns="http://www.w3.org/2000/svg">
<path d="M93.1589 25.0458C89.4867 16.8542 80.4477 12.8525 72.4915 15.6302C82.8958 20.7617 89.6751 31.1189 89.6751 43.5947C89.6751 43.8772 89.6751 44.1596 89.6751 44.395C94.6183 39.6401 96.266 31.9193 93.1589 25.0458Z" fill="white"/>
<path d="M10.9596 36.8625C10.9596 35.4973 10.2064 34.8382 8.93527 34.8382H5.26315V24.9517H15.997C20.1399 24.9517 22.1172 26.8819 22.1172 30.1774V31.5427C22.1172 32.5313 22.0231 33.567 22.0231 33.567H22.2114C24.4241 29.0004 30.0264 23.8689 37.3235 23.8689C44.3853 23.8689 48.9519 27.1644 50.9763 33.4729H51.1646C53.6597 28.4355 59.6858 23.8689 67.1241 23.8689C76.8223 23.8689 82.4246 29.3771 82.4246 41.6645V59.8839C82.4246 61.155 83.1779 61.9082 84.449 61.9082H86.1909V71.7005H77.0577C72.6794 71.7005 70.8433 69.8645 70.8433 65.4862V43.8301C70.8433 38.5103 69.8547 34.4615 64.4407 34.4615C58.65 34.4615 54.5542 39.3106 53.236 45.1954C52.6711 47.0315 52.4828 48.9617 52.4828 51.1744V71.7005H40.8544V43.8301C40.8544 38.7927 40.1012 34.4615 34.5459 34.4615C28.6611 34.4615 24.7536 39.3106 23.2942 45.2896C22.8234 47.1256 22.5409 49.0558 22.5409 51.1744V71.7005H10.9596V36.8625Z" fill="white"/>
</svg>
