<svg width="177" height="116" viewBox="0 0 177 116" fill="none" xmlns="http://www.w3.org/2000/svg">
<path d="M171.002 22.9232C164.025 7.35909 146.851 -0.244065 131.734 5.03342C151.503 14.7834 164.383 34.4621 164.383 58.1661C164.383 58.7028 164.383 59.2395 164.383 59.6867C173.775 50.6524 176.906 35.9827 171.002 22.9232Z" fill="#61A60E"/>
<path d="M14.8233 45.3748C14.8233 42.7808 13.3921 41.5285 10.977 41.5285H4V22.7442H24.3944C32.2659 22.7442 36.0227 26.4116 36.0227 32.673V35.2671C36.0227 37.1455 35.8438 39.1134 35.8438 39.1134H36.2016C40.4057 30.4368 51.0501 20.6869 64.9147 20.6869C78.332 20.6869 87.0086 26.9483 90.8549 38.9345H91.2127C95.9535 29.3634 107.403 20.6869 121.536 20.6869C139.962 20.6869 150.607 31.1524 150.607 54.4986V89.1153C150.607 91.5304 152.038 92.9616 154.453 92.9616H157.763V111.567H140.41C132.091 111.567 128.602 108.078 128.602 99.7597V58.6132C128.602 48.5055 126.724 40.8129 116.437 40.8129C105.435 40.8129 97.653 50.0261 95.1484 61.2073C94.0751 64.6958 93.7173 68.3632 93.7173 72.5673V111.567H71.6234V58.6132C71.6234 49.0422 70.1922 40.8129 59.6372 40.8129C48.4561 40.8129 41.0319 50.0261 38.2589 61.3861C37.3644 64.8747 36.8278 68.5421 36.8278 72.5673V111.567H14.8233V45.3748Z" fill="#3A3A3A"/>
</svg>
