<svg width="100" height="66" viewBox="0 0 100 66" fill="none" xmlns="http://www.w3.org/2000/svg">
<path d="M96.6116 12.9568C92.6697 4.16355 82.9668 -0.132021 74.4262 2.84961C85.5947 8.35805 92.8719 19.476 92.8719 32.8681C92.8719 33.1713 92.8719 33.4745 92.8719 33.7272C98.1782 28.623 99.947 20.3351 96.6116 12.9568Z" fill="#393F4C"/>
<path d="M8.37476 25.6413C8.37476 24.1758 7.56618 23.4683 6.2017 23.4683H2.25989V12.8557H13.7821C18.2293 12.8557 20.3518 14.9277 20.3518 18.4652V19.9307C20.3518 20.992 20.2507 22.1038 20.2507 22.1038H20.4529C22.8281 17.2018 28.8419 11.6934 36.675 11.6934C44.2554 11.6934 49.1574 15.2309 51.3304 22.0027H51.5326C54.211 16.5954 60.6796 11.6934 68.6643 11.6934C79.0748 11.6934 85.0886 17.6061 85.0886 30.796V50.3535C85.0886 51.718 85.8971 52.5265 87.2616 52.5265H89.1315V63.038H79.3275C74.6276 63.038 72.6567 61.0671 72.6567 56.3673V33.1207C72.6567 27.4101 71.5954 23.064 65.7838 23.064C59.5678 23.064 55.1712 28.2692 53.7562 34.5862C53.1497 36.5571 52.9476 38.6291 52.9476 41.0043V63.038H40.4652V33.1207C40.4652 27.7133 39.6566 23.064 33.6933 23.064C27.3763 23.064 23.1818 28.2692 21.6152 34.6873C21.1099 36.6582 20.8066 38.7302 20.8066 41.0043V63.038H8.37476V25.6413Z" fill="#393F4C"/>
</svg>
