<svg width="120" height="36" viewBox="0 0 120 36" fill="none" xmlns="http://www.w3.org/2000/svg">
<path d="M0 0H120V35.4362H0V0Z" fill="white"/>
<path d="M116.839 10.3326C115.358 7.18807 111.755 5.62926 108.57 6.7043C112.732 8.69312 115.47 12.6708 115.47 17.4816C115.47 17.5891 115.47 17.6966 115.47 17.8041C117.426 15.9496 118.096 12.9664 116.839 10.3326Z" fill="#61A60E"/>
<path d="M3.66866 13.0202C3.66866 12.4826 3.36136 12.2408 2.85851 12.2408H1.40582V8.42437H5.708C7.35624 8.42437 8.16639 9.17689 8.16639 10.4401V10.9776C8.16639 11.3538 8.13845 11.757 8.13845 11.757H8.22226C9.11622 9.98317 11.3511 8.02123 14.2844 8.02123C17.106 8.02123 18.9498 9.2844 19.7599 11.7301H19.8437C20.7936 9.76816 23.224 7.99435 26.1852 7.99435C30.0684 7.99435 32.3312 10.1176 32.3312 14.8477V21.8892C32.3312 22.373 32.6106 22.6686 33.1414 22.6686H33.8398V26.4313H30.1801C28.4201 26.4313 27.6938 25.7325 27.6938 24.0393V15.7078C27.6938 13.6652 27.3027 12.1064 25.1237 12.1064C22.805 12.1064 21.1567 13.9877 20.6539 16.2453C20.4304 16.944 20.3466 17.6966 20.3466 18.5297V26.4313H15.6533V15.6809C15.6533 13.7458 15.346 12.0795 13.1111 12.0795C10.7645 12.0795 9.17209 13.9608 8.58543 16.2453C8.38988 16.944 8.27813 17.6966 8.27813 18.5029V26.4313H3.66866V13.0202Z" fill="#393F4C"/>
<path d="M43.4777 7.99435C49.2047 7.99435 53.7583 11.9182 53.7583 17.4278C53.7583 22.9643 49.2047 26.8613 43.4777 26.8613C37.7788 26.8613 33.2252 22.9643 33.2252 17.4278C33.2252 11.9182 37.7788 7.99435 43.4777 7.99435ZM43.4777 23.0449C46.5228 23.0449 49.065 20.7873 49.065 17.4278C49.065 14.0952 46.5228 11.8107 43.4777 11.8107C40.4606 11.8107 37.9184 14.0952 37.9184 17.4278C37.9184 20.7873 40.4606 23.0449 43.4777 23.0449Z" fill="#393F4C"/>
<path d="M63.4242 7.99435C67.5029 7.99435 68.8159 10.1982 68.8159 10.1982H68.8997C68.8997 10.1982 68.8718 9.74129 68.8718 9.15001V5.95178C68.8718 5.41426 68.5645 5.17237 68.0616 5.17237H67.5867V1.35599H71.0508C72.7828 1.35599 73.5371 2.10851 73.5371 3.74795V21.8892C73.5371 22.373 73.8444 22.6686 74.3473 22.6686H75.0457V26.4313H71.4978C69.7937 26.4313 69.1791 25.6519 69.1791 24.6037C69.1791 24.2274 69.1791 23.9318 69.1791 23.9318H69.0953C69.0953 23.9318 67.5588 26.8613 63.2566 26.8613C58.2001 26.8613 54.9316 23.018 54.9316 17.4278C54.9037 11.7032 58.4795 7.99435 63.4242 7.99435ZM68.9835 17.4009C68.9835 14.6058 67.475 11.8645 64.3461 11.8645C61.776 11.8645 59.6528 13.8802 59.6528 17.4547C59.6528 20.8948 61.5246 23.0986 64.2902 23.0986C66.6928 23.0718 68.9835 21.3786 68.9835 17.4009Z" fill="#393F4C"/>
<path d="M78.6774 30.0864C79.9624 30.0864 81.1078 29.3339 81.7503 27.8019L82.3649 26.4313L76.1072 12.8858C75.8837 12.3483 75.6323 12.2408 75.1015 12.2408H74.5428V8.42437H77.6158C78.9288 8.42437 79.5993 8.88126 80.0742 10.1176L83.7338 19.121C84.097 20.0348 84.4043 20.8142 84.4043 20.8142H84.4881C84.4881 20.8142 84.7954 20.0348 85.1027 19.121L88.2874 10.1176C88.7344 8.88126 89.4887 8.42437 90.7737 8.42437H93.9305L85.9967 29.092C84.6837 32.344 81.6107 33.8759 78.817 33.8759C75.8837 33.8759 74.0679 32.0483 74.0679 32.0483L75.8558 28.877C75.9675 28.8501 77.1129 30.0864 78.6774 30.0864Z" fill="#393F4C"/>
<path d="M102.311 7.99435C108.038 7.99435 112.592 11.9182 112.592 17.4278C112.592 22.9643 108.038 26.8613 102.311 26.8613C96.6124 26.8613 92.0588 22.9643 92.0588 17.4278C92.0588 11.9182 96.6124 7.99435 102.311 7.99435ZM102.311 23.0449C105.356 23.0449 107.899 20.7873 107.899 17.4278C107.899 14.0952 105.356 11.8107 102.311 11.8107C99.2943 11.8107 96.7521 14.0952 96.7521 17.4278C96.7521 20.7873 99.2943 23.0449 102.311 23.0449Z" fill="#393F4C"/>
</svg>
