<svg width="261" height="77" viewBox="0 0 261 77" fill="none" xmlns="http://www.w3.org/2000/svg">
<path d="M254.124 22.4518C250.904 15.6191 243.065 12.2319 236.139 14.5679C245.192 18.8894 251.147 27.5325 251.147 37.986C251.147 38.2196 251.147 38.4532 251.147 38.6868C255.4 34.6572 256.858 28.1749 254.124 22.4518Z" fill="#61A60E"/>
<path d="M7.98001 28.2917C7.98001 27.1237 7.31164 26.5981 6.21793 26.5981H3.05835V18.3054H12.4156C16.0005 18.3054 17.7626 19.9406 17.7626 22.6854V23.8533C17.7626 24.6709 17.7018 25.5469 17.7018 25.5469H17.8841C19.8285 21.6926 24.6894 17.4294 31.0693 17.4294C37.2062 17.4294 41.2164 20.1742 42.9785 25.4885H43.1608C45.2267 21.2254 50.5129 17.371 56.9536 17.371C65.3994 17.371 70.3211 21.9846 70.3211 32.2628V47.5634C70.3211 48.6146 70.9287 49.257 72.0831 49.257H73.6022V57.4329H65.6424C61.8145 57.4329 60.2347 55.9145 60.2347 52.2354V34.1316C60.2347 29.6933 59.384 26.3061 54.6447 26.3061C49.6015 26.3061 46.0166 30.394 44.9229 35.2996C44.4368 36.818 44.2545 38.4531 44.2545 40.2635V57.4329H34.0466V34.0732C34.0466 29.8685 33.3782 26.2477 28.5173 26.2477C23.4134 26.2477 19.95 30.3356 18.674 35.2996C18.2487 36.818 18.0056 38.4531 18.0056 40.2051V57.4329H7.98001V28.2917Z" fill="#3A3A3A"/>
<path d="M94.5648 17.371C107.021 17.371 116.925 25.8973 116.925 37.8692C116.925 49.8994 107.021 58.3673 94.5648 58.3673C82.1695 58.3673 72.2654 49.8994 72.2654 37.8692C72.2654 25.8973 82.1695 17.371 94.5648 17.371ZM94.5648 50.0746C101.188 50.0746 106.717 45.1691 106.717 37.8692C106.717 30.6276 101.188 25.6637 94.5648 25.6637C88.0026 25.6637 82.4733 30.6276 82.4733 37.8692C82.4733 45.1691 88.0026 50.0746 94.5648 50.0746Z" fill="#3A3A3A"/>
<path d="M137.948 17.371C146.82 17.371 149.675 22.1598 149.675 22.1598H149.858C149.858 22.1598 149.797 21.167 149.797 19.8822V12.9327C149.797 11.7647 149.128 11.2391 148.035 11.2391H147.002V2.94641H154.536C158.303 2.94641 159.944 4.58159 159.944 8.14394V47.5634C159.944 48.6146 160.612 49.257 161.706 49.257H163.225V57.4329H155.508C151.802 57.4329 150.465 55.7393 150.465 53.4617C150.465 52.6441 150.465 52.0018 150.465 52.0018H150.283C150.283 52.0018 146.941 58.3673 137.584 58.3673C126.586 58.3673 119.477 50.0162 119.477 37.8691C119.416 25.4301 127.194 17.371 137.948 17.371ZM150.04 37.8107C150.04 31.7372 146.759 25.7805 139.953 25.7805C134.363 25.7805 129.746 30.1604 129.746 37.9275C129.746 45.4026 133.817 50.1914 139.832 50.1914C145.057 50.133 150.04 46.4538 150.04 37.8107Z" fill="#3A3A3A"/>
<path d="M171.124 65.3752C173.919 65.3752 176.41 63.74 177.808 60.4113L179.144 57.4329L165.534 27.9997C165.048 26.8317 164.501 26.5981 163.347 26.5981H162.131V18.3054H168.815C171.671 18.3054 173.129 19.2982 174.162 21.9846L182.122 41.5483C182.912 43.5339 183.58 45.2275 183.58 45.2275H183.762C183.762 45.2275 184.431 43.5339 185.099 41.5483L192.026 21.9846C192.998 19.2982 194.639 18.3054 197.434 18.3054H204.3L187.043 63.2144C184.188 70.2807 177.504 73.6095 171.428 73.6095C165.048 73.6095 161.098 69.6383 161.098 69.6383L164.987 62.7472C165.23 62.6888 167.721 65.3752 171.124 65.3752Z" fill="#3A3A3A"/>
<path d="M222.528 17.371C234.984 17.371 244.888 25.8973 244.888 37.8692C244.888 49.8994 234.984 58.3673 222.528 58.3673C210.133 58.3673 200.229 49.8994 200.229 37.8692C200.229 25.8973 210.133 17.371 222.528 17.371ZM222.528 50.0746C229.151 50.0746 234.68 45.1691 234.68 37.8692C234.68 30.6276 229.151 25.6637 222.528 25.6637C215.966 25.6637 210.437 30.6276 210.437 37.8692C210.437 45.1691 215.966 50.0746 222.528 50.0746Z" fill="#3A3A3A"/>
</svg>
