<svg width="177" height="117" viewBox="0 0 177 117" fill="none" xmlns="http://www.w3.org/2000/svg">
<path d="M171.002 22.9291C164.025 7.36495 146.851 -0.238206 131.734 5.03928C151.503 14.7892 164.383 34.468 164.383 58.1719C164.383 58.7086 164.383 59.2453 164.383 59.6926C173.775 50.6582 176.906 35.9886 171.002 22.9291Z" fill="#61A60E"/>
<path d="M14.8233 45.3808C14.8233 42.7868 13.3921 41.5345 10.977 41.5345H4V22.7502H24.3944C32.2659 22.7502 36.0227 26.4176 36.0227 32.679V35.273C36.0227 37.1515 35.8438 39.1193 35.8438 39.1193H36.2016C40.4057 30.4428 51.0501 20.6929 64.9147 20.6929C78.332 20.6929 87.0086 26.9543 90.8549 38.9404H91.2127C95.9535 29.3694 107.403 20.6929 121.536 20.6929C139.962 20.6929 150.607 31.1584 150.607 54.5046V89.1213C150.607 91.5364 152.038 92.9676 154.453 92.9676H157.763V111.573H140.41C132.091 111.573 128.602 108.084 128.602 99.7657V58.6192C128.602 48.5115 126.724 40.8189 116.437 40.8189C105.435 40.8189 97.653 50.0321 95.1484 61.2132C94.0751 64.7017 93.7173 68.3691 93.7173 72.5732V111.573H71.6234V58.6192C71.6234 49.0482 70.1922 40.8189 59.6372 40.8189C48.4561 40.8189 41.0319 50.0321 38.2589 61.3921C37.3644 64.8806 36.8278 68.548 36.8278 72.5732V111.573H14.8233V45.3808Z" fill="#393F4C"/>
</svg>
