<svg width="150" height="47" viewBox="0 0 150 47" fill="none" xmlns="http://www.w3.org/2000/svg">
<path d="M146.048 14.2028C144.197 10.096 139.693 8.06015 135.712 9.46419C140.915 12.0617 144.337 17.2566 144.337 23.5397C144.337 23.6801 144.337 23.8205 144.337 23.9609C146.782 21.5389 147.62 17.6427 146.048 14.2028Z" fill="white"/>
<path d="M4.5862 17.7129C4.5862 17.0109 4.20208 16.695 3.57351 16.695H1.75766V11.7106H7.13538C9.19568 11.7106 10.2084 12.6934 10.2084 14.3432V15.0452C10.2084 15.5366 10.1734 16.0631 10.1734 16.0631H10.2782C11.3957 13.7465 14.1893 11.1841 17.8559 11.1841C21.3828 11.1841 23.6876 12.8338 24.7003 16.028H24.805C25.9923 13.4657 29.0304 11.149 32.7319 11.149C37.5858 11.149 40.4144 13.922 40.4144 20.0998V29.2962C40.4144 29.928 40.7636 30.3141 41.4271 30.3141H42.3001V35.2283H37.7255C35.5256 35.2283 34.6176 34.3156 34.6176 32.1043V21.223C34.6176 18.5553 34.1287 16.5195 31.405 16.5195C28.5066 16.5195 26.4463 18.9765 25.8177 21.925C25.5384 22.8376 25.4336 23.8204 25.4336 24.9086V35.2283H19.567V21.1879C19.567 18.6606 19.1829 16.4844 16.3893 16.4844C13.4559 16.4844 11.4655 18.9414 10.7322 21.925C10.4877 22.8376 10.348 23.8204 10.348 24.8735V35.2283H4.5862V17.7129Z" fill="white"/>
<path d="M54.3476 11.149C61.5062 11.149 67.1982 16.2737 67.1982 23.4694C67.1982 30.7002 61.5062 35.7899 54.3476 35.7899C47.2238 35.7899 41.5318 30.7002 41.5318 23.4694C41.5318 16.2737 47.2238 11.149 54.3476 11.149ZM54.3476 30.8055C58.1539 30.8055 61.3316 27.8571 61.3316 23.4694C61.3316 19.1169 58.1539 16.1333 54.3476 16.1333C50.5762 16.1333 47.3984 19.1169 47.3984 23.4694C47.3984 27.8571 50.5762 30.8055 54.3476 30.8055Z" fill="white"/>
<path d="M79.2807 11.149C84.379 11.149 86.0203 14.0273 86.0203 14.0273H86.125C86.125 14.0273 86.0901 13.4306 86.0901 12.6583V8.48133C86.0901 7.77931 85.706 7.4634 85.0774 7.4634H84.4838V2.47906H88.8139C90.9789 2.47906 91.9218 3.46189 91.9218 5.60305V29.2962C91.9218 29.928 92.3059 30.3141 92.9345 30.3141H93.8075V35.2283H89.3726C87.2425 35.2283 86.4742 34.2103 86.4742 32.8414C86.4742 32.35 86.4742 31.9639 86.4742 31.9639H86.3695C86.3695 31.9639 84.4489 35.7899 79.0711 35.7899C72.7506 35.7899 68.6649 30.7704 68.6649 23.4694C68.63 15.9929 73.0998 11.149 79.2807 11.149ZM86.2298 23.4343C86.2298 19.7838 84.3441 16.2035 80.433 16.2035C77.2204 16.2035 74.5664 18.8361 74.5664 23.5045C74.5664 27.9975 76.9061 30.8757 80.3632 30.8757C83.3663 30.8406 86.2298 28.6293 86.2298 23.4343Z" fill="white"/>
<path d="M98.3471 40.002C99.9534 40.002 101.385 39.0192 102.188 37.0184L102.957 35.2283L95.1344 17.5374C94.8551 16.8354 94.5408 16.695 93.8773 16.695H93.1789V11.7106H97.0201C98.6614 11.7106 99.4995 12.3073 100.093 13.922L104.668 25.6808C105.122 26.8742 105.506 27.8922 105.506 27.8922H105.611C105.611 27.8922 105.995 26.8742 106.379 25.6808L110.36 13.922C110.918 12.3073 111.861 11.7106 113.468 11.7106H117.414L107.496 38.7033C105.855 42.9505 102.014 44.9512 98.5217 44.9512C94.8551 44.9512 92.5852 42.5644 92.5852 42.5644L94.8201 38.4225C94.9598 38.3874 96.3915 40.002 98.3471 40.002Z" fill="white"/>
<path d="M127.89 11.149C135.048 11.149 140.74 16.2737 140.74 23.4694C140.74 30.7002 135.048 35.7899 127.89 35.7899C120.766 35.7899 115.074 30.7002 115.074 23.4694C115.074 16.2737 120.766 11.149 127.89 11.149ZM127.89 30.8055C131.696 30.8055 134.874 27.8571 134.874 23.4694C134.874 19.1169 131.696 16.1333 127.89 16.1333C124.118 16.1333 120.941 19.1169 120.941 23.4694C120.941 27.8571 124.118 30.8055 127.89 30.8055Z" fill="white"/>
</svg>
