<svg width="200" height="62" viewBox="0 0 200 62" fill="none" xmlns="http://www.w3.org/2000/svg">
<path d="M194.731 17.9058C192.263 12.4789 186.257 9.78871 180.949 11.644C187.887 15.0764 192.449 21.9412 192.449 30.2438C192.449 30.4293 192.449 30.6149 192.449 30.8004C195.709 27.5999 196.826 22.4514 194.731 17.9058Z" fill="#393F4C"/>
<path d="M6.11492 22.5442C6.11492 21.6165 5.60276 21.199 4.76467 21.199H2.34354V14.6126H9.51383C12.2609 14.6126 13.6111 15.9113 13.6111 18.0914V19.019C13.6111 19.6684 13.5646 20.3641 13.5646 20.3641H13.7043C15.1942 17.3028 18.919 13.9168 23.8079 13.9168C28.5105 13.9168 31.5834 16.0969 32.9337 20.3178H33.0734C34.6564 16.9318 38.7072 13.8705 43.6426 13.8705C50.1145 13.8705 53.8858 17.5348 53.8858 25.6982V37.8507C53.8858 38.6856 54.3515 39.1958 55.2361 39.1958H56.4001V45.6895H50.3007C47.3674 45.6895 46.1568 44.4835 46.1568 41.5614V27.1825C46.1568 23.6574 45.505 20.9671 41.8733 20.9671C38.0088 20.9671 35.2617 24.214 34.4236 28.1102C34.0511 29.3161 33.9115 30.6149 33.9115 32.0528V45.6895H26.0893V27.1361C26.0893 23.7965 25.5772 20.9207 21.8523 20.9207C17.9413 20.9207 15.2873 24.1676 14.3095 28.1102C13.9836 29.3161 13.7974 30.6149 13.7974 32.0064V45.6895H6.11492V22.5442Z" fill="#393F4C"/>
<path d="M72.4634 13.8705C82.0083 13.8705 89.5976 20.6424 89.5976 30.151C89.5976 39.706 82.0083 46.4316 72.4634 46.4316C62.9651 46.4316 55.3758 39.706 55.3758 30.151C55.3758 20.6424 62.9651 13.8705 72.4634 13.8705ZM72.4634 39.8452C77.5385 39.8452 81.7755 35.949 81.7755 30.151C81.7755 24.3995 77.5385 20.4569 72.4634 20.4569C67.4349 20.4569 63.1979 24.3995 63.1979 30.151C63.1979 35.949 67.4349 39.8452 72.4634 39.8452Z" fill="#393F4C"/>
<path d="M105.708 13.8705C112.505 13.8705 114.694 17.6739 114.694 17.6739H114.833C114.833 17.6739 114.787 16.8854 114.787 15.8649V10.3453C114.787 9.41765 114.275 9.0002 113.437 9.0002H112.645V2.41376H118.419C121.305 2.41376 122.562 3.71249 122.562 6.54188V37.8507C122.562 38.6856 123.075 39.1958 123.913 39.1958H125.077V45.6895H119.163C116.323 45.6895 115.299 44.3444 115.299 42.5354C115.299 41.886 115.299 41.3758 115.299 41.3758H115.159C115.159 41.3758 112.598 46.4316 105.428 46.4316C97.0007 46.4316 91.5532 39.7988 91.5532 30.151C91.5066 20.2714 97.4664 13.8705 105.708 13.8705ZM114.973 30.1047C114.973 25.2808 112.459 20.5497 107.244 20.5497C102.96 20.5497 99.4219 24.0284 99.4219 30.1974C99.4219 36.1345 102.541 39.9379 107.151 39.9379C111.155 39.8916 114.973 36.9694 114.973 30.1047Z" fill="#393F4C"/>
<path d="M131.129 51.9976C133.271 51.9976 135.18 50.6989 136.251 48.055L137.275 45.6895L126.846 22.3122C126.473 21.3846 126.054 21.199 125.17 21.199H124.239V14.6126H129.36C131.548 14.6126 132.666 15.4011 133.457 17.5348L139.557 33.0732C140.162 34.6502 140.674 35.9954 140.674 35.9954H140.814C140.814 35.9954 141.326 34.6502 141.838 33.0732L147.146 17.5348C147.891 15.4011 149.148 14.6126 151.29 14.6126H156.551L143.328 50.2814C141.14 55.8938 136.018 58.5377 131.362 58.5377C126.473 58.5377 123.447 55.3836 123.447 55.3836L126.427 49.9104C126.613 49.864 128.522 51.9976 131.129 51.9976Z" fill="#393F4C"/>
<path d="M170.52 13.8705C180.064 13.8705 187.654 20.6424 187.654 30.151C187.654 39.706 180.064 46.4316 170.52 46.4316C161.021 46.4316 153.432 39.706 153.432 30.151C153.432 20.6424 161.021 13.8705 170.52 13.8705ZM170.52 39.8452C175.595 39.8452 179.832 35.949 179.832 30.151C179.832 24.3995 175.595 20.4569 170.52 20.4569C165.491 20.4569 161.254 24.3995 161.254 30.151C161.254 35.949 165.491 39.8452 170.52 39.8452Z" fill="#393F4C"/>
</svg>
