<svg width="176" height="116" viewBox="0 0 176 116" fill="none" xmlns="http://www.w3.org/2000/svg">
<path d="M170.036 22.9232C163.099 7.35909 146.022 -0.244065 130.99 5.03342C150.647 14.7834 163.455 34.4621 163.455 58.1661C163.455 58.7028 163.455 59.2395 163.455 59.6867C172.794 50.6524 175.907 35.9827 170.036 22.9232Z" fill="#3A3A3A"/>
<path d="M14.7396 45.3748C14.7396 42.7808 13.3165 41.5285 10.915 41.5285H3.97742V22.7442H24.2565C32.0836 22.7442 35.8192 26.4116 35.8192 32.673V35.2671C35.8192 37.1455 35.6413 39.1134 35.6413 39.1134H35.9971C40.1774 30.4368 50.7617 20.6869 64.548 20.6869C77.8895 20.6869 86.517 26.9483 90.3416 38.9345H90.6974C95.4114 29.3634 106.796 20.6869 120.849 20.6869C139.172 20.6869 149.756 31.1524 149.756 54.4986V89.1153C149.756 91.5304 151.179 92.9616 153.58 92.9616H156.871V111.567H139.616C131.345 111.567 127.876 108.078 127.876 99.7597V58.6132C127.876 48.5055 126.008 40.8129 115.779 40.8129C104.839 40.8129 97.1013 50.0261 94.6109 61.2073C93.5436 64.6958 93.1878 68.3632 93.1878 72.5673V111.567H71.2187V58.6132C71.2187 49.0422 69.7956 40.8129 59.3003 40.8129C48.1824 40.8129 40.8 50.0261 38.0428 61.3861C37.1534 64.8747 36.6197 68.5421 36.6197 72.5673V111.567H14.7396V45.3748Z" fill="#3A3A3A"/>
</svg>
