<svg width="308" height="178" viewBox="0 0 308 178" fill="none" xmlns="http://www.w3.org/2000/svg">
<path d="M18.58 22.0801L27.7 38.4001L36.82 22.0801L38.9 41.0001H42.3L38.9 11.6001L27.7 31.8801L16.5 11.6001L13.1 41.0001H16.5L18.58 22.0801ZM45.2828 31.8001C45.2828 37.3601 49.4028 41.4001 54.8028 41.4001C60.2028 41.4001 64.3228 37.3601 64.3228 31.8001C64.3228 26.2401 60.2028 22.2001 54.8028 22.2001C49.4028 22.2001 45.2828 26.2401 45.2828 31.8001ZM48.5228 31.8001C48.5228 27.9601 51.2028 25.2001 54.8028 25.2001C58.4028 25.2001 61.0828 27.9601 61.0828 31.8001C61.0828 35.6401 58.4028 38.4001 54.8028 38.4001C51.2028 38.4001 48.5228 35.6401 48.5228 31.8001ZM67.1188 31.8001C67.1188 37.7601 71.2388 41.4001 76.2388 41.4001C78.9588 41.4001 81.1588 40.1201 82.5188 37.8401V41.0001H85.7188V9.80008H82.5188V25.7601C81.1588 23.4801 78.9588 22.2001 76.2388 22.2001C71.2388 22.2001 67.1188 25.8401 67.1188 31.8001ZM70.3588 31.8001C70.3588 27.5601 73.2388 25.2001 76.6388 25.2001C79.4388 25.2001 82.5188 27.5601 82.5188 31.8001C82.5188 36.0401 79.4388 38.4001 76.6388 38.4001C73.2388 38.4001 70.3588 36.0401 70.3588 31.8001ZM106.131 22.6001H102.531L97.4913 35.2801L92.3313 22.6001H88.5312L95.5713 38.4001L90.5313 49.8001H94.1313L106.131 22.6001ZM106.963 31.8001C106.963 37.3601 111.083 41.4001 116.483 41.4001C121.883 41.4001 126.003 37.3601 126.003 31.8001C126.003 26.2401 121.883 22.2001 116.483 22.2001C111.083 22.2001 106.963 26.2401 106.963 31.8001ZM110.203 31.8001C110.203 27.9601 112.883 25.2001 116.483 25.2001C120.083 25.2001 122.763 27.9601 122.763 31.8001C122.763 35.6401 120.083 38.4001 116.483 38.4001C112.883 38.4001 110.203 35.6401 110.203 31.8001Z" fill="#393F4C"/>
<path d="M192.58 22.1201L187.3 41.0001H183.9L192.3 11.5601L199.66 31.8001L214.14 11.4401L212.3 41.0001H208.94L210.18 22.2801L198.62 38.4401L192.58 22.1201ZM217.025 31.8001C217.265 30.0401 217.879 28.4401 218.865 27.0001C219.879 25.5334 221.145 24.3734 222.665 23.5201C224.212 22.6401 225.879 22.2001 227.665 22.2001C229.452 22.2001 230.972 22.6534 232.225 23.5601C233.479 24.4401 234.399 25.6134 234.985 27.0801C235.599 28.5201 235.785 30.0934 235.545 31.8001C235.305 33.5601 234.679 35.1734 233.665 36.6401C232.679 38.0801 231.425 39.2401 229.905 40.1201C228.385 40.9734 226.719 41.4001 224.905 41.4001C223.119 41.4001 221.599 40.9601 220.345 40.0801C219.092 39.1734 218.172 38.0001 217.585 36.5601C216.999 35.0934 216.812 33.5067 217.025 31.8001ZM220.185 31.8001C220.025 32.9201 220.119 33.9867 220.465 35.0001C220.812 35.9867 221.372 36.8001 222.145 37.4401C222.945 38.0534 223.945 38.3601 225.145 38.3601C226.372 38.3601 227.492 38.0667 228.505 37.4801C229.545 36.8667 230.399 36.0667 231.065 35.0801C231.759 34.0934 232.199 33.0001 232.385 31.8001C232.545 30.6534 232.452 29.5867 232.105 28.6001C231.759 27.6134 231.185 26.8134 230.385 26.2001C229.585 25.5601 228.585 25.2401 227.385 25.2401C226.185 25.2401 225.065 25.5334 224.025 26.1201C223.012 26.7067 222.159 27.5067 221.465 28.5201C220.799 29.5067 220.372 30.6001 220.185 31.8001ZM237.917 31.8001C238.184 29.9867 238.811 28.3601 239.797 26.9201C240.811 25.4534 242.051 24.2934 243.517 23.4401C245.011 22.5867 246.624 22.1734 248.357 22.2001C249.797 22.2001 250.957 22.5601 251.837 23.2801C252.744 23.9734 253.411 24.8934 253.837 26.0401L256.597 9.80008H259.837L254.437 41.0001H251.317L251.797 38.0801C250.997 39.0934 250.051 39.9067 248.957 40.5201C247.864 41.1067 246.651 41.4001 245.317 41.4001C243.584 41.4001 242.117 40.9601 240.917 40.0801C239.744 39.2001 238.891 38.0401 238.357 36.6001C237.824 35.1334 237.677 33.5334 237.917 31.8001ZM241.117 31.8001C240.931 33.0001 240.997 34.0934 241.317 35.0801C241.664 36.0667 242.224 36.8667 242.997 37.4801C243.797 38.0667 244.784 38.3601 245.957 38.3601C246.944 38.3601 247.891 38.1201 248.797 37.6401C249.731 37.1334 250.544 36.4534 251.237 35.6001C251.931 34.7467 252.424 33.7867 252.717 32.7201L252.957 31.2001C253.037 30.1334 252.904 29.1601 252.557 28.2801C252.211 27.3734 251.677 26.6534 250.957 26.1201C250.264 25.5601 249.424 25.2667 248.437 25.2401C247.237 25.2134 246.117 25.4934 245.077 26.0801C244.037 26.6401 243.171 27.4267 242.477 28.4401C241.784 29.4267 241.331 30.5467 241.117 31.8001ZM277.467 22.6001L261.107 49.8001H257.507L264.467 38.2801L260.307 22.6001H263.827L266.787 35.2801L273.827 22.6001H277.467ZM276.752 31.8001C276.992 30.0401 277.605 28.4401 278.592 27.0001C279.605 25.5334 280.872 24.3734 282.392 23.5201C283.939 22.6401 285.605 22.2001 287.392 22.2001C289.179 22.2001 290.699 22.6534 291.952 23.5601C293.205 24.4401 294.125 25.6134 294.712 27.0801C295.325 28.5201 295.512 30.0934 295.272 31.8001C295.032 33.5601 294.405 35.1734 293.392 36.6401C292.405 38.0801 291.152 39.2401 289.632 40.1201C288.112 40.9734 286.445 41.4001 284.632 41.4001C282.845 41.4001 281.325 40.9601 280.072 40.0801C278.819 39.1734 277.899 38.0001 277.312 36.5601C276.725 35.0934 276.539 33.5067 276.752 31.8001ZM279.912 31.8001C279.752 32.9201 279.845 33.9867 280.192 35.0001C280.539 35.9867 281.099 36.8001 281.872 37.4401C282.672 38.0534 283.672 38.3601 284.872 38.3601C286.099 38.3601 287.219 38.0667 288.232 37.4801C289.272 36.8667 290.125 36.0667 290.792 35.0801C291.485 34.0934 291.925 33.0001 292.112 31.8001C292.272 30.6534 292.179 29.5867 291.832 28.6001C291.485 27.6134 290.912 26.8134 290.112 26.2001C289.312 25.5601 288.312 25.2401 287.112 25.2401C285.912 25.2401 284.792 25.5334 283.752 26.1201C282.739 26.7067 281.885 27.5067 281.192 28.5201C280.525 29.5067 280.099 30.6001 279.912 31.8001Z" fill="#393F4C"/>
<path d="M15.32 85.9601L23.84 100.4L32.4 85.9601L34.32 103H39.2L35.36 73.6001L23.84 92.6001L12.36 73.6001L8.52 103H13.4L15.32 85.9601ZM42.0319 93.8001C42.0319 99.4401 46.3119 103.4 51.9519 103.4C57.5919 103.4 61.8719 99.4401 61.8719 93.8001C61.8719 88.1601 57.5919 84.2001 51.9519 84.2001C46.3119 84.2001 42.0319 88.1601 42.0319 93.8001ZM46.4719 93.8001C46.4719 90.3601 48.8319 88.0001 51.9519 88.0001C55.0719 88.0001 57.4319 90.3601 57.4319 93.8001C57.4319 97.2401 55.0719 99.6001 51.9519 99.6001C48.8319 99.6001 46.4719 97.2401 46.4719 93.8001ZM64.5709 93.8001C64.5709 99.8401 68.7309 103.4 73.5309 103.4C76.2109 103.4 78.4109 102.16 79.8109 99.9601V103H84.1709V71.8001H79.8109V87.6401C78.4109 85.4401 76.2109 84.2001 73.5309 84.2001C68.7309 84.2001 64.5709 87.7601 64.5709 93.8001ZM69.0509 93.8001C69.0509 90.1201 71.5709 87.9601 74.5709 87.9601C77.0509 87.9601 79.8109 90.0401 79.8109 93.8001C79.8109 97.5601 77.0509 99.6401 74.5709 99.6401C71.5709 99.6401 69.0509 97.4801 69.0509 93.8001ZM105.767 84.6001H101.127L96.3666 96.5601L91.5266 84.6001H86.5666L94.0066 100.84L89.1666 111.8H93.7666L105.767 84.6001ZM106.368 93.8001C106.368 99.4401 110.648 103.4 116.288 103.4C121.928 103.4 126.208 99.4401 126.208 93.8001C126.208 88.1601 121.928 84.2001 116.288 84.2001C110.648 84.2001 106.368 88.1601 106.368 93.8001ZM110.808 93.8001C110.808 90.3601 113.168 88.0001 116.288 88.0001C119.408 88.0001 121.768 90.3601 121.768 93.8001C121.768 97.2401 119.408 99.6001 116.288 99.6001C113.168 99.6001 110.808 97.2401 110.808 93.8001Z" fill="#393F4C"/>
<path d="M194 85.9601L199.76 100.44L210.4 86.1601L209.36 103H214.16L215.52 73.4001L200.96 92.5201L193.12 73.5601L184.32 103H189.2L194 85.9601ZM218.695 93.8001C217.975 99.0801 221.535 103.4 227.015 103.4C232.575 103.4 237.335 99.2401 238.055 93.8001C238.775 88.5201 235.255 84.2001 229.735 84.2001C224.175 84.2001 219.415 88.3601 218.695 93.8001ZM223.055 93.8001C223.535 90.6401 226.215 88.0401 229.375 88.0401C232.495 88.0401 234.095 90.8001 233.655 93.8001C233.175 96.9601 230.495 99.5601 227.335 99.5601C224.215 99.5601 222.615 96.8001 223.055 93.8001ZM240.291 93.8001C239.571 99.0001 242.491 103.4 247.571 103.4C250.211 103.4 252.411 102.16 254.011 100.16L253.531 103H257.811L263.171 71.8001H258.851L256.091 88.0001C255.171 85.7601 253.371 84.2401 250.531 84.2001C245.451 84.1601 241.051 88.3601 240.291 93.8001ZM244.691 93.8001C245.211 90.5201 248.051 87.8801 251.171 87.9601C253.971 88.0401 255.491 90.7201 255.091 93.8001C254.571 97.0801 251.771 99.6401 248.931 99.6401C245.811 99.6401 244.211 96.9201 244.691 93.8001ZM281.984 84.6001H277.304L270.664 96.5201L267.904 84.6001H263.264L267.744 100.72L261.024 111.8H265.664L281.984 84.6001ZM281.039 93.8001C280.319 99.0801 283.879 103.4 289.359 103.4C294.919 103.4 299.679 99.2401 300.399 93.8001C301.119 88.5201 297.599 84.2001 292.079 84.2001C286.519 84.2001 281.759 88.3601 281.039 93.8001ZM285.399 93.8001C285.879 90.6401 288.559 88.0401 291.719 88.0401C294.839 88.0401 296.439 90.8001 295.999 93.8001C295.519 96.9601 292.839 99.5601 289.679 99.5601C286.559 99.5601 284.959 96.8001 285.399 93.8001Z" fill="#393F4C"/>
<path d="M10.2 150.76L17.84 162.4L25.48 150.76L27.16 165H34.32L29.76 135.6L17.84 152.64L5.88 135.6L1.36 165H8.48L10.2 150.76ZM36.905 155.8C36.905 161.6 41.385 165.4 47.425 165.4C53.465 165.4 57.945 161.6 57.945 155.8C57.945 150 53.465 146.16 47.425 146.16C41.385 146.16 36.905 150 36.905 155.8ZM43.145 155.8C43.145 152.96 45.065 151.16 47.425 151.16C49.785 151.16 51.705 152.96 51.705 155.8C51.705 158.64 49.785 160.4 47.425 160.4C45.065 160.4 43.145 158.64 43.145 155.8ZM60.4597 155.8C60.4597 162 64.6997 165.4 69.1797 165.4C71.8197 165.4 74.0597 164.2 75.4997 162.04V165H81.5397V133.8H75.4997V149.56C74.0597 147.4 71.8197 146.2 69.1797 146.2C64.6997 146.2 60.4597 149.6 60.4597 155.8ZM66.8197 155.8C66.8197 152.92 68.8197 151.08 71.2197 151.08C73.2597 151.08 75.4997 152.8 75.4997 155.8C75.4997 158.8 73.2597 160.52 71.2197 160.52C68.8197 160.52 66.8197 158.68 66.8197 155.8ZM105.068 146.6H98.8281L94.5081 157.44L90.1481 146.6H83.4681L91.4281 163.52L86.9481 173.8H93.0681L105.068 146.6ZM105.382 155.8C105.382 161.6 109.862 165.4 115.902 165.4C121.942 165.4 126.422 161.6 126.422 155.8C126.422 150 121.942 146.16 115.902 146.16C109.862 146.16 105.382 150 105.382 155.8ZM111.622 155.8C111.622 152.96 113.542 151.16 115.902 151.16C118.262 151.16 120.182 152.96 120.182 155.8C120.182 158.64 118.262 160.4 115.902 160.4C113.542 160.4 111.622 158.64 111.622 155.8Z" fill="#393F4C"/>
<path d="M195.32 150.76L200.72 162.44L210 151L209.2 165H216.24L216.92 135.4L202.24 152.6L193.6 135.6L184.12 165H191.2L195.32 150.76ZM220.49 155.8C219.77 161.32 223.73 165.4 229.45 165.4C235.29 165.4 240.29 161.44 241.01 155.8C241.73 150.28 237.81 146.2 232.05 146.2C226.21 146.2 221.21 150.16 220.49 155.8ZM226.61 155.8C227.01 153.24 229.17 151.12 231.61 151.16C234.01 151.2 235.21 153.4 234.89 155.8C234.49 158.36 232.33 160.4 229.89 160.36C227.49 160.32 226.29 158.2 226.61 155.8ZM243.102 155.8C242.422 161.08 245.302 165.4 250.182 165.4C252.742 165.4 254.982 164.2 256.582 162.28L256.142 165H262.062L267.422 133.8H261.422L258.702 149.88C257.742 147.68 255.862 146.2 253.062 146.2C248.182 146.2 243.822 150.32 243.102 155.8ZM249.342 155.8C249.742 153.24 252.062 151 254.542 151.08C256.782 151.16 257.982 153.36 257.662 155.8C257.262 158.4 254.942 160.56 252.622 160.52C250.142 160.48 248.982 158.2 249.342 155.8ZM288.089 146.6H281.809L275.769 157.4L273.369 146.6H267.049L271.849 163.32L265.609 173.8H271.769L288.089 146.6ZM286.818 155.8C286.098 161.32 290.058 165.4 295.778 165.4C301.618 165.4 306.618 161.44 307.338 155.8C308.058 150.28 304.138 146.2 298.378 146.2C292.538 146.2 287.538 150.16 286.818 155.8ZM292.938 155.8C293.338 153.24 295.498 151.12 297.938 151.16C300.338 151.2 301.538 153.4 301.218 155.8C300.818 158.36 298.658 160.4 296.218 160.36C293.818 160.32 292.618 158.2 292.938 155.8Z" fill="#393F4C"/>
</svg>
